<svg width="44" height="41" viewBox="0 0 44 41" fill="none" xmlns="http://www.w3.org/2000/svg">
<circle cx="18" cy="18" r="18" fill="#E6F0F1"/>
<path d="M37.3334 35.6666H18.6667V36.9999C18.6667 37.7363 18.0698 38.3333 17.3334 38.3333H16.0001C15.2637 38.3333 14.6667 37.7363 14.6667 36.9999V23.6666L17.9741 15.9495C18.3943 14.969 19.3584 14.3333 20.4251 14.3333H35.575C36.6418 14.3333 37.6058 14.969 38.0261 15.9495L41.3334 23.6666V36.9999C41.3334 37.7363 40.7365 38.3333 40.0001 38.3333H38.6667C37.9303 38.3333 37.3334 37.7363 37.3334 36.9999V35.6666ZM38.6667 26.3333H17.3334V32.9999H38.6667V26.3333ZM17.568 23.6666H38.4322L35.575 16.9999H20.4251L17.568 23.6666ZM20.6667 31.6666C19.5622 31.6666 18.6667 30.7711 18.6667 29.6666C18.6667 28.5621 19.5622 27.6666 20.6667 27.6666C21.7713 27.6666 22.6667 28.5621 22.6667 29.6666C22.6667 30.7711 21.7713 31.6666 20.6667 31.6666ZM35.3334 31.6666C34.2289 31.6666 33.3334 30.7711 33.3334 29.6666C33.3334 28.5621 34.2289 27.6666 35.3334 27.6666C36.4379 27.6666 37.3334 28.5621 37.3334 29.6666C37.3334 30.7711 36.4379 31.6666 35.3334 31.6666Z" fill="#076476"/>
</svg>
