<svg width="1438" height="724" viewBox="0 0 1438 724" fill="none" xmlns="http://www.w3.org/2000/svg">
<rect x="0.5" y="0.5" width="1437" height="723" fill="white"/>
<path d="M1199.16 109.044C1199.16 114.755 1194.51 119.4 1188.8 119.4C1183.09 119.4 1178.45 114.755 1178.45 109.044C1178.45 103.332 1183.09 98.6863 1188.8 98.6863C1194.51 98.6863 1199.16 103.332 1199.16 109.044ZM1199.89 109.044C1199.89 102.932 1194.91 97.9598 1188.8 97.9598C1182.69 97.9598 1177.72 102.932 1177.72 109.044C1177.72 115.155 1182.69 120.126 1188.8 120.126C1194.91 120.126 1199.89 115.155 1199.89 109.044ZM1209.12 109.044C1209.12 119.48 1191.3 143.508 1188.8 146.826C1186.3 143.508 1168.49 119.481 1168.49 109.044C1168.49 97.841 1177.6 88.7265 1188.8 88.7265C1200.01 88.7265 1209.12 97.841 1209.12 109.044ZM1189.09 147.649C1189.94 146.544 1209.85 120.456 1209.85 109.044C1209.85 97.441 1200.41 87.9999 1188.8 87.9999C1177.2 87.9999 1167.76 97.441 1167.76 109.044C1167.76 120.456 1187.67 146.544 1188.52 147.649L1188.8 148.025L1189.09 147.649Z" fill="#B2CFD5"/>
<path d="M1194.66 158.633C1194.66 161.865 1192.03 164.495 1188.8 164.495C1185.57 164.495 1182.94 161.865 1182.94 158.633C1182.94 155.401 1185.57 152.772 1188.8 152.772C1192.03 152.772 1194.66 155.401 1194.66 158.633ZM1195.39 158.633C1195.39 155.001 1192.44 152.045 1188.8 152.045C1185.17 152.045 1182.21 155.001 1182.21 158.633C1182.21 162.267 1185.17 165.221 1188.8 165.221C1192.44 165.221 1195.39 162.267 1195.39 158.633Z" fill="#B2CFD5"/>
<path d="M1191.55 172.383C1191.55 173.898 1190.32 175.131 1188.8 175.131C1187.29 175.131 1186.05 173.898 1186.05 172.383C1186.05 170.867 1187.29 169.633 1188.8 169.633C1190.32 169.633 1191.55 170.867 1191.55 172.383ZM1192.28 172.383C1192.28 170.467 1190.72 168.907 1188.8 168.907C1186.89 168.907 1185.33 170.467 1185.33 172.383C1185.33 174.298 1186.89 175.857 1188.8 175.857C1190.72 175.857 1192.28 174.298 1192.28 172.383Z" fill="#B2CFD5"/>
<path d="M1077.82 93.7567L1078.25 92.0775C1075.94 91.4817 1073.7 91.1713 1071.59 91.1535L1071.58 92.8885C1073.55 92.903 1075.65 93.1953 1077.82 93.7567ZM1061.66 95.5671C1063.46 94.4724 1065.4 93.7046 1067.43 93.2843L1067.08 91.5858C1064.86 92.0473 1062.73 92.8885 1060.76 94.0858L1061.66 95.5671ZM1087.69 97.7806L1088.51 96.2551C1086.44 95.1406 1084.42 94.1963 1082.49 93.451L1081.86 95.0687C1083.73 95.7869 1085.68 96.7004 1087.69 97.7806ZM1054.22 102.9C1055.5 101.044 1056.89 99.427 1058.33 98.0926L1057.16 96.8166C1055.62 98.239 1054.15 99.9551 1052.79 101.915L1054.22 102.9ZM1096.78 103.564L1097.8 102.159C1095.93 100.807 1094.08 99.5671 1092.32 98.4724L1091.41 99.9458C1093.13 101.018 1094.94 102.236 1096.78 103.564ZM1105.3 110.267L1106.41 108.943C1104.66 107.458 1102.94 106.062 1101.31 104.795L1100.25 106.163C1101.86 107.417 1103.56 108.796 1105.3 110.267ZM1049.58 112.424C1050.29 110.234 1051.08 108.307 1052.01 106.531L1050.48 105.724C1049.5 107.59 1048.67 109.608 1047.93 111.894L1049.58 112.424ZM1113.42 117.482L1114.59 116.208C1112.86 114.607 1111.27 113.167 1109.73 111.806L1108.58 113.106C1110.11 114.458 1111.69 115.89 1113.42 117.482ZM1047.05 122.915L1047.13 122.524C1047.53 120.56 1047.95 118.53 1048.43 116.56L1046.74 116.148C1046.26 118.148 1045.84 120.196 1045.43 122.175L1045.35 122.566L1047.05 122.915ZM1121.33 124.959L1122.53 123.705L1122.14 123.334C1120.75 122.003 1119.29 120.614 1117.79 119.193L1116.6 120.454C1118.1 121.872 1119.55 123.259 1120.95 124.588L1121.33 124.959ZM1129.34 132.417L1130.49 131.114C1129.19 129.976 1127.71 128.617 1125.69 126.707L1124.5 127.969C1126.54 129.891 1128.03 131.263 1129.34 132.417ZM1044.37 133.575C1045 131.718 1045.56 129.69 1046.13 127.194L1044.44 126.807C1043.88 129.243 1043.34 131.217 1042.73 133.017L1044.37 133.575ZM1137.97 139.214L1138.97 137.799C1137.25 136.581 1135.51 135.264 1133.8 133.887L1132.71 135.239C1134.45 136.638 1136.22 137.974 1137.97 139.214ZM1039.6 143.551C1040.74 141.654 1041.79 139.686 1042.71 137.702L1041.14 136.97C1040.24 138.9 1039.22 140.815 1038.12 142.66L1039.6 143.551ZM1147.26 145.064L1148.1 143.544C1146.25 142.527 1144.38 141.41 1142.55 140.223L1141.6 141.679C1143.47 142.888 1145.38 144.027 1147.26 145.064ZM1157.22 149.723L1157.85 148.107C1155.87 147.338 1153.88 146.469 1151.93 145.523L1151.17 147.083C1153.16 148.048 1155.2 148.936 1157.22 149.723ZM860.497 150.758C862.415 150.324 864.532 150.103 866.792 150.103L866.791 148.369C864.404 148.37 862.157 148.605 860.115 149.067L860.497 150.758ZM877.399 151.381L877.769 149.687C875.477 149.186 873.277 148.823 871.228 148.61L871.048 150.334C873.033 150.541 875.169 150.893 877.399 151.381ZM1033.17 152.503C1034.61 150.814 1035.97 149.05 1037.21 147.259L1035.78 146.271C1034.57 148.015 1033.25 149.735 1031.85 151.381L1033.17 152.503ZM1167.74 152.967L1168.13 151.278C1166.04 150.795 1163.95 150.214 1161.91 149.551L1161.37 151.199C1163.46 151.878 1165.61 152.472 1167.74 152.967ZM887.781 154.342L888.34 152.7C886.149 151.952 884.032 151.296 882.045 150.748L881.585 152.419C883.537 152.958 885.623 153.605 887.781 154.342ZM1178.61 154.681L1178.76 152.952C1176.61 152.767 1174.45 152.49 1172.35 152.129L1172.06 153.838C1174.21 154.207 1176.41 154.49 1178.61 154.681ZM851.377 155.519C852.883 154.086 854.619 152.923 856.532 152.066L855.823 150.483C853.728 151.422 851.831 152.694 850.183 154.263L851.377 155.519ZM897.917 158.196L898.58 156.594C896.415 155.699 894.416 154.91 892.469 154.181L891.861 155.805C893.789 156.527 895.771 157.31 897.917 158.196ZM1025.42 160.327C1027.09 158.874 1028.71 157.342 1030.22 155.774L1028.97 154.572C1027.49 156.103 1025.92 157.599 1024.29 159.018L1025.42 160.327ZM907.897 162.532L908.611 160.952C906.407 159.959 904.445 159.091 902.613 158.3L901.927 159.891C903.749 160.679 905.703 161.543 907.897 162.532ZM845.789 164.302C846.593 162.205 847.567 160.318 848.684 158.695L847.256 157.712C846.061 159.447 845.023 161.457 844.171 163.682L845.789 164.302ZM1016.59 166.908C1018.46 165.729 1020.28 164.454 1022.01 163.122L1020.95 161.747C1019.26 163.048 1017.48 164.291 1015.66 165.443L1016.59 166.908ZM917.804 167.07L918.528 165.495L916.404 164.517C915.141 163.935 913.867 163.348 912.585 162.762L911.863 164.338C913.144 164.924 914.417 165.511 915.679 166.091L917.804 167.07ZM927.767 171.548L928.455 169.958C926.7 169.199 924.805 168.356 922.491 167.307L921.775 168.886C924.099 169.941 926.003 170.786 927.767 171.548ZM1006.88 172.088C1008.9 171.188 1010.89 170.2 1012.79 169.15L1011.96 167.632C1010.1 168.659 1008.15 169.624 1006.17 170.505L1006.88 172.088ZM843.309 174.666C843.603 172.417 844.005 170.294 844.505 168.356L842.827 167.923C842.309 169.929 841.893 172.122 841.591 174.442L843.309 174.666ZM937.975 175.566L938.532 173.923C936.699 173.302 934.712 172.555 932.457 171.639L931.805 173.246C934.092 174.174 936.109 174.932 937.975 175.566ZM996.551 175.87C998.676 175.244 1000.78 174.536 1002.81 173.766L1002.19 172.146C1000.21 172.9 998.143 173.594 996.06 174.207L996.551 175.87ZM948.689 178.151L948.973 176.441C947.601 176.212 946.213 175.958 944.848 175.683C944.153 175.544 943.412 175.371 942.644 175.171L942.205 176.847C943.005 177.056 943.779 177.236 944.507 177.383C945.891 177.662 947.299 177.919 948.689 178.151ZM985.843 178.331C988.021 177.962 990.195 177.517 992.301 177.007L991.895 175.323C989.827 175.823 987.692 176.259 985.553 176.622L985.843 178.331ZM959.58 179.457L959.708 177.727C957.571 177.569 955.399 177.348 953.253 177.071L953.031 178.79C955.208 179.071 957.411 179.295 959.58 179.457ZM974.935 179.574C977.137 179.441 979.344 179.236 981.495 178.969L981.28 177.248C979.165 177.511 976.995 177.711 974.828 177.844L974.935 179.574ZM968.193 179.778C968.977 179.778 969.763 179.77 970.547 179.754L970.509 178.02C968.36 178.064 966.188 178.047 964.025 177.967L963.961 179.699C965.369 179.751 966.792 179.778 968.193 179.778ZM841.427 185.502L843.153 185.339C843 183.726 842.923 182.123 842.923 180.572C842.923 180.022 842.932 179.467 842.952 178.924L841.219 178.863C841.2 179.426 841.189 180.002 841.189 180.572C841.189 182.178 841.269 183.836 841.427 185.502ZM843.429 196.342L845.104 195.895C844.531 193.742 844.065 191.62 843.72 189.593L842.011 189.883C842.364 191.963 842.841 194.136 843.429 196.342ZM846.864 206.771L848.481 206.148C847.656 203.999 846.948 201.999 846.32 200.034L844.668 200.563C845.308 202.56 846.025 204.591 846.864 206.771ZM851.132 216.85L852.708 216.129C851.836 214.224 850.985 212.282 850.177 210.355L850.099 210.167L848.5 210.838L848.576 211.022C849.393 212.97 850.252 214.929 851.132 216.85ZM855.955 226.668L857.489 225.86C856.481 223.943 855.493 221.988 854.556 220.052L852.996 220.808C853.943 222.762 854.937 224.734 855.955 226.668ZM861.307 236.207L862.795 235.319C861.687 233.464 860.596 231.567 859.549 229.679L858.033 230.519C859.088 232.423 860.189 234.336 861.307 236.207ZM867.171 245.441L868.609 244.472C867.4 242.678 866.207 240.842 865.061 239.018L863.593 239.939C864.748 241.779 865.952 243.631 867.171 245.441ZM873.529 254.342L874.912 253.295C873.607 251.57 872.315 249.802 871.072 248.042L869.656 249.042C870.909 250.818 872.213 252.6 873.529 254.342ZM880.364 262.882L881.688 261.762C880.295 260.115 878.908 258.422 877.567 256.727L876.208 257.803C877.56 259.512 878.959 261.22 880.364 262.882ZM887.657 271.035L888.916 269.844C887.435 268.276 885.957 266.662 884.525 265.043L883.228 266.191C884.672 267.823 886.163 269.454 887.657 271.035ZM895.283 278.843L896.512 277.62C894.963 276.06 893.445 274.532 891.927 272.975L890.687 274.186C892.211 275.748 893.729 277.281 895.283 278.843ZM902.911 286.602L904.163 285.4C902.843 284.026 901.431 282.581 899.584 280.714L898.352 281.934C900.192 283.793 901.599 285.232 902.911 286.602ZM910.207 294.623L911.529 293.502C910.195 291.93 908.767 290.322 907.163 288.584L905.889 289.76C907.476 291.479 908.888 293.07 910.207 294.623ZM916.763 303.2L918.201 302.232C917.033 300.498 915.723 298.703 914.308 296.902L912.944 297.972C914.333 299.742 915.619 301.5 916.763 303.2ZM922.031 312.551L923.612 311.838C922.733 309.894 921.705 307.917 920.553 305.962L919.06 306.841C920.18 308.743 921.179 310.664 922.031 312.551ZM925.365 322.691L927.063 322.336C926.619 320.202 926.013 318.05 925.264 315.94L923.631 316.52C924.353 318.555 924.937 320.631 925.365 322.691ZM927.949 333.382C927.98 332.703 927.996 332.016 927.996 331.342C927.996 329.799 927.915 328.246 927.755 326.724L926.031 326.907C926.184 328.367 926.263 329.859 926.263 331.342C926.263 331.991 926.248 332.65 926.219 333.304L927.949 333.382ZM926.153 344.3C926.764 342.152 927.229 339.964 927.536 337.799L925.82 337.556C925.524 339.644 925.075 341.754 924.487 343.827L926.153 344.3ZM922.039 354.556C923.073 352.584 923.991 350.548 924.763 348.506L923.143 347.892C922.393 349.87 921.507 351.84 920.504 353.751L922.039 354.556ZM793.159 358.715L794.211 357.336C792.536 356.058 790.812 354.704 789.089 353.314L788 354.662C789.736 356.063 791.471 357.427 793.159 358.715ZM915.989 363.792C917.372 362.064 918.665 360.246 919.832 358.39L918.364 357.467C917.232 359.268 915.977 361.032 914.635 362.71L915.989 363.792ZM802.027 365.118L803.001 363.683C801.255 362.496 799.467 361.235 797.685 359.934L796.663 361.332C798.459 362.646 800.264 363.919 802.027 365.118ZM811.276 370.975L812.152 369.479C810.329 368.41 808.465 367.266 806.617 366.075L805.679 367.534C807.548 368.736 809.431 369.894 811.276 370.975ZM908.312 371.727C909.981 370.299 911.591 368.755 913.097 367.138L911.829 365.956C910.367 367.526 908.805 369.024 907.184 370.41L908.312 371.727ZM820.936 376.146L821.692 374.586C819.787 373.664 817.845 372.664 815.921 371.612L815.089 373.135C817.04 374.199 819.007 375.212 820.936 376.146ZM899.26 378.059L899.495 377.927C901.32 376.892 903.12 375.73 904.843 374.471L903.821 373.071C902.151 374.291 900.408 375.416 898.64 376.418L898.413 376.547L899.26 378.059ZM831.013 380.476L831.623 378.854C829.636 378.108 827.616 377.283 825.617 376.403L824.919 377.988C826.945 378.883 828.996 379.72 831.013 380.476ZM889.212 382.6C891.304 381.862 893.364 381.015 895.336 380.083L894.595 378.516C892.676 379.422 890.671 380.247 888.635 380.966L889.212 382.6ZM841.48 383.795L841.912 382.116C840.405 381.728 838.883 381.296 837.387 380.831C836.823 380.655 836.259 380.475 835.697 380.29L835.155 381.936C835.725 382.124 836.297 382.308 836.872 382.486C838.395 382.96 839.945 383.4 841.48 383.795ZM878.565 385.431C880.747 385.028 882.913 384.524 885.007 383.934L884.536 382.266C882.493 382.842 880.379 383.334 878.251 383.727L878.565 385.431ZM852.264 385.91L852.496 384.192C850.377 383.904 848.231 383.535 846.117 383.095L845.764 384.791C847.917 385.24 850.104 385.616 852.264 385.91ZM867.628 386.651C869.841 386.559 872.056 386.375 874.211 386.106L873.996 384.386C871.888 384.648 869.721 384.828 867.556 384.919L867.628 386.651ZM863.227 386.718L863.245 384.984C861.119 384.96 858.944 384.855 856.784 384.668L856.635 386.395C858.839 386.584 861.055 386.694 863.227 386.718Z" fill="#B2CFD5"/>
<path d="M1199.16 673.674C1199.16 667.963 1194.51 663.318 1188.8 663.318C1183.09 663.318 1178.45 667.963 1178.45 673.674C1178.45 679.386 1183.09 684.031 1188.8 684.031C1194.51 684.031 1199.16 679.386 1199.16 673.674ZM1199.89 673.674C1199.89 679.786 1194.91 684.758 1188.8 684.758C1182.69 684.758 1177.72 679.786 1177.72 673.674C1177.72 667.563 1182.69 662.591 1188.8 662.591C1194.91 662.591 1199.89 667.563 1199.89 673.674ZM1209.12 673.674C1209.12 663.238 1191.3 639.21 1188.8 635.891C1186.3 639.21 1168.49 663.237 1168.49 673.674C1168.49 684.877 1177.6 693.991 1188.8 693.991C1200.01 693.991 1209.12 684.877 1209.12 673.674ZM1189.09 635.068C1189.94 636.174 1209.85 662.262 1209.85 673.674C1209.85 685.277 1200.41 694.718 1188.8 694.718C1177.2 694.718 1167.76 685.277 1167.76 673.674C1167.76 662.262 1187.67 636.174 1188.52 635.068L1188.8 634.692L1189.09 635.068Z" fill="#B2CFD5"/>
<path d="M1194.66 624.085C1194.66 620.853 1192.03 618.223 1188.8 618.223C1185.57 618.223 1182.94 620.853 1182.94 624.085C1182.94 627.316 1185.57 629.946 1188.8 629.946C1192.03 629.946 1194.66 627.316 1194.66 624.085ZM1195.39 624.085C1195.39 627.716 1192.44 630.673 1188.8 630.673C1185.17 630.673 1182.21 627.716 1182.21 624.085C1182.21 620.451 1185.17 617.497 1188.8 617.497C1192.44 617.497 1195.39 620.451 1195.39 624.085Z" fill="#B2CFD5"/>
<path d="M1191.55 610.335C1191.55 608.82 1190.32 607.587 1188.8 607.587C1187.29 607.587 1186.05 608.82 1186.05 610.335C1186.05 611.851 1187.29 613.084 1188.8 613.084C1190.32 613.084 1191.55 611.851 1191.55 610.335ZM1192.28 610.335C1192.28 612.251 1190.72 613.811 1188.8 613.811C1186.89 613.811 1185.33 612.251 1185.33 610.335C1185.33 608.42 1186.89 606.86 1188.8 606.86C1190.72 606.86 1192.28 608.42 1192.28 610.335Z" fill="#B2CFD5"/>
<path d="M1077.82 688.961L1078.25 690.64C1075.94 691.236 1073.7 691.547 1071.59 691.564L1071.58 689.829C1073.55 689.815 1075.65 689.523 1077.82 688.961ZM1061.66 687.151C1063.46 688.245 1065.4 689.013 1067.43 689.433L1067.08 691.132C1064.86 690.671 1062.73 689.829 1060.76 688.632L1061.66 687.151ZM1087.69 684.937L1088.51 686.463C1086.44 687.577 1084.42 688.521 1082.49 689.267L1081.86 687.649C1083.73 686.931 1085.68 686.017 1087.69 684.937ZM1054.22 679.817C1055.5 681.674 1056.89 683.291 1058.33 684.625L1057.16 685.901C1055.62 684.479 1054.15 682.763 1052.79 680.803L1054.22 679.817ZM1096.78 679.153L1097.8 680.559C1095.93 681.911 1094.08 683.151 1092.32 684.245L1091.41 682.772C1093.13 681.7 1094.94 680.481 1096.78 679.153ZM1105.3 672.451L1106.41 673.775C1104.66 675.26 1102.94 676.656 1101.31 677.923L1100.25 676.555C1101.86 675.301 1103.56 673.921 1105.3 672.451ZM1049.58 670.293C1050.29 672.484 1051.08 674.41 1052.01 676.187L1050.48 676.993C1049.5 675.128 1048.67 673.11 1047.93 670.824L1049.58 670.293ZM1113.42 665.236L1114.59 666.51C1112.86 668.111 1111.27 669.551 1109.73 670.912L1108.58 669.612C1110.11 668.26 1111.69 666.828 1113.42 665.236ZM1047.05 659.803L1047.13 660.193C1047.53 662.157 1047.95 664.188 1048.43 666.157L1046.74 666.569C1046.26 664.569 1045.84 662.521 1045.43 660.543L1045.35 660.152L1047.05 659.803ZM1121.33 657.759L1122.53 659.013L1122.14 659.384C1120.75 660.715 1119.29 662.104 1117.79 663.525L1116.6 662.264C1118.1 660.845 1119.55 659.459 1120.95 658.129L1121.33 657.759ZM1129.34 650.301L1130.49 651.604C1129.19 652.741 1127.71 654.101 1125.69 656.011L1124.5 654.749C1126.54 652.827 1128.03 651.455 1129.34 650.301ZM1044.37 649.143C1045 651 1045.56 653.028 1046.13 655.524L1044.44 655.911C1043.88 653.475 1043.34 651.501 1042.73 649.701L1044.37 649.143ZM1137.97 643.504L1138.97 644.919C1137.25 646.137 1135.51 647.453 1133.8 648.831L1132.71 647.479C1134.45 646.08 1136.22 644.744 1137.97 643.504ZM1039.6 639.167C1040.74 641.064 1041.79 643.032 1042.71 645.016L1041.14 645.748C1040.24 643.817 1039.22 641.903 1038.12 640.057L1039.6 639.167ZM1147.26 637.653L1148.1 639.174C1146.25 640.191 1144.38 641.308 1142.55 642.495L1141.6 641.039C1143.47 639.829 1145.38 638.691 1147.26 637.653ZM1157.22 632.995L1157.85 634.611C1155.87 635.38 1153.88 636.249 1151.93 637.195L1151.17 635.635C1153.16 634.669 1155.2 633.781 1157.22 632.995ZM860.497 631.96C862.415 632.393 864.532 632.615 866.792 632.615L866.791 634.349C864.404 634.348 862.157 634.113 860.115 633.651L860.497 631.96ZM877.399 631.337L877.769 633.031C875.477 633.532 873.277 633.895 871.228 634.108L871.048 632.384C873.033 632.177 875.169 631.825 877.399 631.337ZM1033.17 630.215C1034.61 631.904 1035.97 633.668 1037.21 635.459L1035.78 636.447C1034.57 634.703 1033.25 632.982 1031.85 631.337L1033.17 630.215ZM1167.74 629.751L1168.13 631.44C1166.04 631.923 1163.95 632.504 1161.91 633.167L1161.37 631.519C1163.46 630.84 1165.61 630.245 1167.74 629.751ZM887.781 628.376L888.34 630.017C886.149 630.765 884.032 631.421 882.045 631.969L881.585 630.299C883.537 629.76 885.623 629.113 887.781 628.376ZM1178.61 628.037L1178.76 629.765C1176.61 629.951 1174.45 630.228 1172.35 630.589L1172.06 628.88C1174.21 628.511 1176.41 628.228 1178.61 628.037ZM851.377 627.199C852.883 628.632 854.619 629.794 856.532 630.652L855.823 632.235C853.728 631.296 851.831 630.024 850.183 628.455L851.377 627.199ZM897.917 624.521L898.58 626.124C896.415 627.019 894.416 627.808 892.469 628.537L891.861 626.913C893.789 626.191 895.771 625.408 897.917 624.521ZM1025.42 622.391C1027.09 623.844 1028.71 625.376 1030.22 626.944L1028.97 628.145C1027.49 626.615 1025.92 625.119 1024.29 623.7L1025.42 622.391ZM907.897 620.186L908.611 621.765C906.407 622.759 904.445 623.627 902.613 624.417L901.927 622.827C903.749 622.039 905.703 621.175 907.897 620.186ZM845.789 618.416C846.593 620.513 847.567 622.4 848.684 624.023L847.256 625.005C846.061 623.271 845.023 621.261 844.171 619.036L845.789 618.416ZM1016.59 615.81C1018.46 616.989 1020.28 618.264 1022.01 619.596L1020.95 620.971C1019.26 619.669 1017.48 618.427 1015.66 617.275L1016.59 615.81ZM917.804 615.648L918.528 617.223L916.404 618.201C915.141 618.783 913.867 619.369 912.585 619.956L911.863 618.38C913.144 617.793 914.417 617.207 915.679 616.627L917.804 615.648ZM927.767 611.169L928.455 612.76C926.7 613.519 924.805 614.362 922.491 615.411L921.775 613.832C924.099 612.777 926.003 611.932 927.767 611.169ZM1006.88 610.629C1008.9 611.529 1010.89 612.517 1012.79 613.568L1011.96 615.086C1010.1 614.058 1008.15 613.093 1006.17 612.213L1006.88 610.629ZM843.309 608.052C843.603 610.301 844.005 612.424 844.505 614.362L842.827 614.794C842.309 612.789 841.893 610.596 841.591 608.276L843.309 608.052ZM937.975 607.152L938.532 608.794C936.699 609.416 934.712 610.163 932.457 611.079L931.805 609.472C934.092 608.544 936.109 607.786 937.975 607.152ZM996.551 606.848C998.676 607.474 1000.78 608.181 1002.81 608.952L1002.19 610.572C1000.21 609.817 998.143 609.124 996.06 608.511L996.551 606.848ZM948.689 604.567L948.973 606.277C947.601 606.505 946.213 606.76 944.848 607.035C944.153 607.174 943.412 607.347 942.644 607.547L942.205 605.87C943.005 605.662 943.779 605.481 944.507 605.335C945.891 605.056 947.299 604.799 948.689 604.567ZM985.843 604.387C988.021 604.756 990.195 605.201 992.301 605.711L991.895 607.395C989.827 606.895 987.692 606.458 985.553 606.096L985.843 604.387ZM959.58 603.261L959.708 604.991C957.571 605.149 955.399 605.369 953.253 605.646L953.031 603.928C955.208 603.646 957.411 603.423 959.58 603.261ZM974.935 603.144C977.137 603.277 979.344 603.481 981.495 603.749L981.28 605.469C979.165 605.207 976.995 605.007 974.828 604.874L974.935 603.144ZM968.193 602.94C968.977 602.94 969.763 602.948 970.547 602.964L970.509 604.698C968.36 604.653 966.188 604.67 964.025 604.751L963.961 603.019C965.369 602.967 966.792 602.94 968.193 602.94ZM841.427 597.216L843.153 597.379C843 598.992 842.923 600.594 842.923 602.145C842.923 602.696 842.932 603.251 842.952 603.793L841.219 603.855C841.2 603.292 841.189 602.716 841.189 602.145C841.189 600.54 841.269 598.881 841.427 597.216ZM843.429 586.376L845.104 586.823C844.531 588.976 844.065 591.098 843.72 593.125L842.011 592.835C842.364 590.755 842.841 588.581 843.429 586.376ZM846.864 575.947L848.481 576.569C847.656 578.719 846.948 580.719 846.32 582.684L844.668 582.155C845.308 580.157 846.025 578.127 846.864 575.947ZM851.132 565.868L852.708 566.589C851.836 568.493 850.985 570.436 850.177 572.363L850.099 572.551L848.5 571.88L848.576 571.696C849.393 569.748 850.252 567.789 851.132 565.868ZM855.955 556.05L857.489 556.857C856.481 558.775 855.493 560.729 854.556 562.665L852.996 561.91C853.943 559.956 854.937 557.984 855.955 556.05ZM861.307 546.511L862.795 547.399C861.687 549.253 860.596 551.151 859.549 553.039L858.033 552.199C859.088 550.294 860.189 548.381 861.307 546.511ZM867.171 537.277L868.609 538.245C867.4 540.04 866.207 541.876 865.061 543.7L863.593 542.779C864.748 540.939 865.952 539.087 867.171 537.277ZM873.529 528.376L874.912 529.423C873.607 531.148 872.315 532.916 871.072 534.676L869.656 533.676C870.909 531.9 872.213 530.117 873.529 528.376ZM880.364 519.836L881.688 520.956C880.295 522.603 878.908 524.296 877.567 525.991L876.208 524.915C877.56 523.205 878.959 521.498 880.364 519.836ZM887.657 511.682L888.916 512.874C887.435 514.441 885.957 516.056 884.525 517.675L883.228 516.527C884.672 514.895 886.163 513.264 887.657 511.682ZM895.283 503.875L896.512 505.098C894.963 506.657 893.445 508.186 891.927 509.743L890.687 508.532C892.211 506.969 893.729 505.437 895.283 503.875ZM902.911 496.116L904.163 497.317C902.843 498.692 901.431 500.137 899.584 502.004L898.352 500.784C900.192 498.925 901.599 497.486 902.911 496.116ZM910.207 488.095L911.529 489.216C910.195 490.788 908.767 492.396 907.163 494.133L905.889 492.957C907.476 491.239 908.888 489.648 910.207 488.095ZM916.763 479.517L918.201 480.486C917.033 482.22 915.723 484.015 914.308 485.816L912.944 484.745C914.333 482.976 915.619 481.217 916.763 479.517ZM922.031 470.167L923.612 470.88C922.733 472.824 921.705 474.801 920.553 476.756L919.06 475.877C920.18 473.975 921.179 472.053 922.031 470.167ZM925.365 460.027L927.063 460.381C926.619 462.516 926.013 464.668 925.264 466.777L923.631 466.197C924.353 464.163 924.937 462.087 925.365 460.027ZM927.949 449.336C927.98 450.015 927.996 450.701 927.996 451.376C927.996 452.919 927.915 454.472 927.755 455.993L926.031 455.811C926.184 454.351 926.263 452.859 926.263 451.376C926.263 450.727 926.248 450.068 926.219 449.413L927.949 449.336ZM926.153 438.417C926.764 440.565 927.229 442.753 927.536 444.919L925.82 445.161C925.524 443.073 925.075 440.964 924.487 438.891L926.153 438.417ZM922.039 428.161C923.073 430.133 923.991 432.169 924.763 434.212L923.143 434.825C922.393 432.848 921.507 430.877 920.504 428.967L922.039 428.161ZM793.159 424.003L794.211 425.381C792.536 426.66 790.812 428.013 789.089 429.404L788 428.056C789.736 426.655 791.471 425.291 793.159 424.003ZM915.989 418.925C917.372 420.653 918.665 422.472 919.832 424.328L918.364 425.251C917.232 423.449 915.977 421.685 914.635 420.008L915.989 418.925ZM802.027 417.6L803.001 419.035C801.255 420.221 799.467 421.483 797.685 422.784L796.663 421.385C798.459 420.072 800.264 418.799 802.027 417.6ZM811.276 411.743L812.152 413.239C810.329 414.308 808.465 415.452 806.617 416.643L805.679 415.184C807.548 413.981 809.431 412.824 811.276 411.743ZM908.312 410.991C909.981 412.419 911.591 413.963 913.097 415.58L911.829 416.761C910.367 415.192 908.805 413.693 907.184 412.308L908.312 410.991ZM820.936 406.572L821.692 408.132C819.787 409.053 817.845 410.053 815.921 411.105L815.089 409.583C817.04 408.519 819.007 407.505 820.936 406.572ZM899.26 404.659L899.495 404.791C901.32 405.825 903.12 406.988 904.843 408.247L903.821 409.647C902.151 408.427 900.408 407.301 898.64 406.3L898.413 406.171L899.26 404.659ZM831.013 402.241L831.623 403.864C829.636 404.609 827.616 405.435 825.617 406.315L824.919 404.729C826.945 403.835 828.996 402.997 831.013 402.241ZM889.212 400.117C891.304 400.856 893.364 401.703 895.336 402.635L894.595 404.201C892.676 403.296 890.671 402.471 888.635 401.752L889.212 400.117ZM841.48 398.923L841.912 400.601C840.405 400.989 838.883 401.421 837.387 401.887C836.823 402.063 836.259 402.243 835.697 402.428L835.155 400.781C835.725 400.593 836.297 400.409 836.872 400.232C838.395 399.757 839.945 399.317 841.48 398.923ZM878.565 397.287C880.747 397.689 882.913 398.193 885.007 398.784L884.536 400.452C882.493 399.876 880.379 399.384 878.251 398.991L878.565 397.287ZM852.264 396.808L852.496 398.525C850.377 398.813 848.231 399.183 846.117 399.623L845.764 397.927C847.917 397.477 850.104 397.101 852.264 396.808ZM867.628 396.067C869.841 396.159 872.056 396.343 874.211 396.612L873.996 398.332C871.888 398.069 869.721 397.889 867.556 397.799L867.628 396.067ZM863.227 396L863.245 397.733C861.119 397.757 858.944 397.863 856.784 398.049L856.635 396.323C858.839 396.133 861.055 396.024 863.227 396Z" fill="#B2CFD5"/>
<path d="M246.043 98.6867C251.753 98.6867 256.4 103.333 256.4 109.044C256.4 114.755 251.753 119.401 246.043 119.401C240.332 119.401 235.687 114.755 235.687 109.044C235.687 103.333 240.332 98.6867 246.043 98.6867ZM246.043 120.128C252.153 120.128 257.125 115.156 257.125 109.044C257.125 102.932 252.153 97.9601 246.043 97.9601C239.932 97.9601 234.96 102.932 234.96 109.044C234.96 115.156 239.932 120.128 246.043 120.128ZM246.043 88.7267C257.245 88.7267 266.36 97.8414 266.36 109.044C266.36 119.481 248.543 143.508 246.043 146.827C243.543 143.508 225.727 119.48 225.727 109.044C225.727 97.8414 234.841 88.7267 246.043 88.7267ZM246.043 148.025L246.331 147.649C247.177 146.544 267.085 120.456 267.085 109.044C267.085 97.4414 257.645 88 246.043 88C234.439 88 225 97.4414 225 109.044C225 120.456 244.907 146.544 245.755 147.649L246.043 148.025Z" fill="#B2CFD5"/>
<path d="M246.043 152.772C249.275 152.772 251.904 155.401 251.904 158.635C251.904 161.865 249.275 164.495 246.043 164.495C242.811 164.495 240.183 161.865 240.183 158.635C240.183 155.401 242.811 152.772 246.043 152.772ZM246.043 165.221C249.675 165.221 252.631 162.267 252.631 158.635C252.631 155.001 249.675 152.045 246.043 152.045C242.409 152.045 239.456 155.001 239.456 158.635C239.456 162.267 242.409 165.221 246.043 165.221Z" fill="#B2CFD5"/>
<path d="M246.042 169.633C247.56 169.633 248.792 170.867 248.792 172.383C248.792 173.899 247.56 175.131 246.042 175.131C244.526 175.131 243.293 173.899 243.293 172.383C243.293 170.867 244.526 169.633 246.042 169.633ZM246.042 175.857C247.96 175.857 249.518 174.297 249.518 172.383C249.518 170.467 247.96 168.908 246.042 168.908C244.126 168.908 242.566 170.467 242.566 172.383C242.566 174.297 244.126 175.857 246.042 175.857Z" fill="#B2CFD5"/>
<path d="M371.269 92.8885L371.256 91.1551C369.144 91.1711 366.902 91.4818 364.593 92.0778L365.026 93.7565C367.198 93.1965 369.298 92.9044 371.269 92.8885ZM382.085 94.0871C380.116 92.8885 377.989 92.0471 375.765 91.5871L375.414 93.2845C377.444 93.7045 379.384 94.4724 381.184 95.5671L382.085 94.0871ZM360.982 95.0685L360.357 93.4511C358.428 94.1965 356.402 95.1405 354.336 96.2565L355.158 97.7818C357.162 96.7005 359.121 95.7885 360.982 95.0685ZM390.05 101.916C388.697 99.9551 387.229 98.2391 385.685 96.8178L384.51 98.0925C385.96 99.4271 387.344 101.046 388.624 102.9L390.05 101.916ZM351.436 99.9458L350.521 98.4738C348.761 99.5671 346.92 100.807 345.048 102.159L346.062 103.566C347.902 102.236 349.71 101.018 351.436 99.9458ZM342.598 106.164L341.534 104.795C339.904 106.063 338.188 107.458 336.43 108.943L337.55 110.267C339.288 108.798 340.986 107.416 342.598 106.164ZM394.913 111.894C394.177 109.608 393.345 107.591 392.366 105.724L390.83 106.531C391.762 108.307 392.558 110.235 393.262 112.424L394.913 111.894ZM334.266 113.106L333.12 111.806C331.576 113.168 329.985 114.608 328.253 116.208L329.43 117.482C331.152 115.89 332.733 114.459 334.266 113.106ZM397.497 122.566L397.417 122.175C397.009 120.196 396.589 118.15 396.101 116.148L394.417 116.56C394.898 118.53 395.316 120.56 395.718 122.524L395.798 122.915L397.497 122.566ZM321.9 124.588C323.293 123.259 324.746 121.872 326.249 120.454L325.06 119.192C323.554 120.614 322.098 122.003 320.702 123.335L320.314 123.706L321.512 124.959L321.9 124.588ZM318.345 127.968L317.156 126.708C315.133 128.616 313.653 129.976 312.357 131.115L313.502 132.416C314.813 131.264 316.308 129.892 318.345 127.968ZM400.12 133.016C399.508 131.216 398.962 129.244 398.404 126.807L396.714 127.194C397.286 129.69 397.846 131.718 398.478 133.575L400.12 133.016ZM310.13 135.239L309.045 133.887C307.332 135.264 305.592 136.58 303.876 137.8L304.88 139.214C306.624 137.975 308.39 136.638 310.13 135.239ZM404.729 142.66C403.624 140.815 402.608 138.9 401.708 136.971L400.137 137.702C401.061 139.687 402.106 141.654 403.242 143.551L404.729 142.66ZM301.242 141.68L300.301 140.224C298.468 141.41 296.598 142.527 294.748 143.544L295.581 145.064C297.469 144.027 299.373 142.888 301.242 141.68ZM291.676 147.084L290.92 145.524C288.97 146.468 286.977 147.338 284.996 148.107L285.624 149.723C287.648 148.936 289.685 148.05 291.676 147.084ZM582.73 149.067C580.688 148.606 578.442 148.37 576.056 148.368L576.054 150.103C578.313 150.104 580.43 150.324 582.348 150.758L582.73 149.067ZM571.797 150.334L571.618 148.61C569.569 148.823 567.368 149.186 565.076 149.687L565.446 151.38C567.676 150.894 569.813 150.54 571.797 150.334ZM410.994 151.382C409.596 149.735 408.273 148.016 407.061 146.271L405.637 147.259C406.881 149.051 408.238 150.815 409.673 152.504L410.994 151.382ZM281.473 151.2L280.938 149.551C278.896 150.214 276.802 150.795 274.717 151.278L275.108 152.967C277.241 152.474 279.382 151.879 281.473 151.2ZM561.26 152.42L560.8 150.748C558.814 151.296 556.696 151.954 554.505 152.7L555.065 154.342C557.224 153.604 559.308 152.959 561.26 152.42ZM270.786 153.838L270.493 152.13C268.393 152.491 266.237 152.767 264.086 152.952L264.236 154.68C266.434 154.49 268.638 154.207 270.786 153.838ZM592.664 154.263C591.014 152.694 589.117 151.422 587.022 150.483L586.313 152.066C588.228 152.923 589.962 154.086 591.468 155.519L592.664 154.263ZM550.985 155.804L550.376 154.18C548.43 154.911 546.432 155.7 544.266 156.594L544.928 158.196C547.076 157.31 549.056 156.527 550.985 155.804ZM418.56 159.018C416.928 157.599 415.353 156.103 413.88 154.572L412.63 155.775C414.138 157.342 415.752 158.874 417.424 160.327L418.56 159.018ZM540.92 159.891L540.232 158.3C538.401 159.091 536.438 159.959 534.236 160.952L534.948 162.534C537.142 161.543 539.097 160.679 540.92 159.891ZM598.674 163.682C597.822 161.456 596.785 159.448 595.59 157.712L594.162 158.695C595.278 160.318 596.253 162.204 597.057 164.302L598.674 163.682ZM427.182 165.443C425.361 164.292 423.582 163.048 421.892 161.748L420.834 163.122C422.566 164.455 424.39 165.728 426.257 166.908L427.182 165.443ZM527.168 166.092C528.429 165.511 529.702 164.924 530.984 164.338L530.261 162.762C528.978 163.35 527.705 163.935 526.442 164.518L524.318 165.495L525.041 167.07L527.168 166.092ZM521.072 168.886L520.356 167.307C518.041 168.356 516.145 169.199 514.392 169.958L515.08 171.548C516.844 170.787 518.748 169.94 521.072 168.886ZM436.673 170.504C434.696 169.624 432.749 168.659 430.889 167.632L430.052 169.151C431.956 170.2 433.946 171.188 435.969 172.088L436.673 170.504ZM601.256 174.442C600.953 172.122 600.537 169.93 600.018 167.924L598.34 168.356C598.84 170.294 599.242 172.416 599.536 174.666L601.256 174.442ZM511.041 173.246L510.388 171.64C508.133 172.555 506.146 173.302 504.313 173.924L504.87 175.566C506.736 174.934 508.754 174.174 511.041 173.246ZM446.785 174.207C444.702 173.594 442.641 172.902 440.657 172.146L440.041 173.766C442.066 174.536 444.17 175.244 446.296 175.871L446.785 174.207ZM498.34 177.383C499.066 177.236 499.841 177.056 500.64 176.848L500.201 175.171C499.434 175.371 498.693 175.544 497.997 175.684C496.632 175.958 495.244 176.212 493.872 176.44L494.156 178.151C495.548 177.919 496.954 177.662 498.34 177.383ZM457.293 176.622C455.153 176.26 453.02 175.823 450.952 175.323L450.544 177.008C452.652 177.518 454.825 177.962 457.004 178.331L457.293 176.622ZM489.814 178.79L489.593 177.071C487.446 177.348 485.276 177.57 483.138 177.728L483.266 179.456C485.434 179.296 487.638 179.072 489.814 178.79ZM468.017 177.844C465.85 177.712 463.68 177.512 461.565 177.248L461.35 178.97C463.502 179.236 465.709 179.44 467.912 179.575L468.017 177.844ZM478.885 179.7L478.82 177.967C476.657 178.047 474.486 178.066 472.336 178.02L472.3 179.754C473.084 179.77 473.869 179.778 474.653 179.778C476.054 179.778 477.477 179.751 478.885 179.7ZM601.656 180.572C601.656 180.002 601.646 179.427 601.626 178.863L599.893 178.924C599.913 179.467 599.922 180.022 599.922 180.572C599.922 182.123 599.845 183.727 599.693 185.339L601.418 185.503C601.577 183.836 601.656 182.178 601.656 180.572ZM600.836 189.883L599.126 189.592C598.781 191.62 598.316 193.742 597.741 195.895L599.417 196.342C600.004 194.136 600.481 191.964 600.836 189.883ZM598.177 200.563L596.526 200.035C595.897 201.999 595.19 204 594.364 206.148L595.981 206.771C596.82 204.591 597.538 202.56 598.177 200.563ZM594.27 211.022L594.346 210.838L592.748 210.168L592.669 210.355C591.861 212.282 591.009 214.224 590.138 216.128L591.714 216.85C592.593 214.93 593.453 212.97 594.27 211.022ZM589.85 220.81L588.289 220.054C587.352 221.99 586.365 223.943 585.357 225.862L586.892 226.668C587.909 224.734 588.904 222.762 589.85 220.81ZM584.813 230.519L583.296 229.679C582.25 231.567 581.158 233.464 580.05 235.319L581.538 236.207C582.656 234.338 583.757 232.423 584.813 230.519ZM579.253 239.939L577.785 239.018C576.64 240.843 575.445 242.678 574.237 244.472L575.674 245.442C576.894 243.631 578.098 241.779 579.253 239.939ZM573.189 249.043L571.773 248.043C570.532 249.802 569.238 251.57 567.933 253.296L569.317 254.342C570.633 252.6 571.936 250.818 573.189 249.043ZM566.638 257.803L565.278 256.727C563.937 258.422 562.55 260.116 561.157 261.763L562.481 262.883C563.886 261.222 565.285 259.512 566.638 257.803ZM559.618 266.191L558.32 265.043C556.888 266.662 555.41 268.276 553.929 269.844L555.189 271.035C556.684 269.454 558.173 267.824 559.618 266.191ZM552.16 274.186L550.918 272.975C549.4 274.534 547.882 276.062 546.333 277.62L547.564 278.843C549.116 277.28 550.636 275.748 552.16 274.186ZM544.494 281.935L543.262 280.714C541.414 282.58 540.002 284.026 538.684 285.402L539.934 286.602C541.248 285.232 542.653 283.794 544.494 281.935ZM536.957 289.76L535.682 288.584C534.08 290.322 532.652 291.93 531.317 293.502L532.638 294.624C533.957 293.07 535.37 291.479 536.957 289.76ZM529.901 297.972L528.537 296.902C527.122 298.704 525.813 300.498 524.645 302.232L526.084 303.202C527.228 301.5 528.512 299.742 529.901 297.972ZM523.786 306.842L522.292 305.962C521.141 307.918 520.113 309.895 519.234 311.838L520.814 312.551C521.666 310.664 522.666 308.743 523.786 306.842ZM519.214 316.522L517.581 315.942C516.833 318.05 516.228 320.202 515.782 322.336L517.48 322.691C517.909 320.631 518.493 318.556 519.214 316.522ZM516.628 333.304C516.598 332.65 516.582 331.991 516.582 331.342C516.582 329.86 516.661 328.367 516.816 326.907L515.092 326.724C514.932 328.246 514.85 329.799 514.85 331.342C514.85 332.016 514.865 332.703 514.896 333.382L516.628 333.304ZM518.36 343.828C517.77 341.754 517.322 339.644 517.026 337.556L515.309 337.799C515.617 339.964 516.082 342.152 516.692 344.302L518.36 343.828ZM522.342 353.751C521.34 351.84 520.452 349.87 519.704 347.892L518.082 348.506C518.856 350.548 519.772 352.584 520.808 354.556L522.342 353.751ZM654.845 354.662L653.756 353.314C652.033 354.704 650.31 356.059 648.636 357.336L649.688 358.715C651.374 357.427 653.11 356.064 654.845 354.662ZM528.21 362.71C526.869 361.032 525.614 359.268 524.481 357.467L523.013 358.39C524.181 360.246 525.474 362.064 526.857 363.792L528.21 362.71ZM646.182 361.334L645.161 359.934C643.38 361.235 641.592 362.496 639.844 363.684L640.818 365.118C642.582 363.919 644.388 362.646 646.182 361.334ZM637.166 367.534L636.229 366.076C634.38 367.266 632.517 368.411 630.693 369.48L631.57 370.975C633.414 369.895 635.297 368.736 637.166 367.534ZM535.661 370.411C534.041 369.024 532.478 367.526 531.016 365.956L529.748 367.139C531.254 368.756 532.865 370.299 534.534 371.727L535.661 370.411ZM627.756 373.135L626.925 371.614C625.001 372.665 623.058 373.665 621.154 374.586L621.909 376.147C623.84 375.212 625.806 374.199 627.756 373.135ZM544.433 376.547L544.205 376.419C542.438 375.416 540.694 374.291 539.025 373.071L538.002 374.471C539.726 375.73 541.525 376.892 543.35 377.927L543.585 378.06L544.433 376.547ZM617.928 377.99L617.229 376.403C615.23 377.283 613.21 378.108 611.224 378.854L611.832 380.477C613.85 379.72 615.9 378.883 617.928 377.99ZM554.21 380.966C552.174 380.247 550.169 379.423 548.25 378.517L547.51 380.084C549.482 381.015 551.542 381.862 553.633 382.601L554.21 380.966ZM605.974 382.487C606.549 382.308 607.121 382.124 607.69 381.936L607.148 380.29C606.586 380.475 606.024 380.656 605.458 380.831C603.964 381.296 602.441 381.729 600.933 382.117L601.365 383.796C602.9 383.401 604.45 382.96 605.974 382.487ZM564.596 383.727C562.466 383.334 560.352 382.843 558.31 382.267L557.84 383.935C559.932 384.524 562.1 385.029 564.28 385.431L564.596 383.727ZM597.082 384.792L596.729 383.095C594.614 383.535 592.468 383.904 590.349 384.192L590.582 385.91C592.741 385.617 594.928 385.241 597.082 384.792ZM575.29 384.919C573.124 384.829 570.957 384.648 568.85 384.386L568.636 386.106C570.789 386.375 573.004 386.559 575.218 386.651L575.29 384.919ZM586.21 386.395L586.061 384.668C583.902 384.855 581.728 384.96 579.601 384.984L579.62 386.718C581.79 386.694 584.008 386.586 586.21 386.395Z" fill="#B2CFD5"/>
<path d="M246.043 687.031C251.753 687.031 256.4 682.384 256.4 676.674C256.4 670.963 251.753 666.316 246.043 666.316C240.332 666.316 235.687 670.963 235.687 676.674C235.687 682.384 240.332 687.031 246.043 687.031ZM246.043 665.59C252.153 665.59 257.125 670.562 257.125 676.674C257.125 682.786 252.153 687.758 246.043 687.758C239.932 687.758 234.96 682.786 234.96 676.674C234.96 670.562 239.932 665.59 246.043 665.59ZM246.043 696.991C257.245 696.991 266.36 687.876 266.36 676.674C266.36 666.236 248.543 642.21 246.043 638.891C243.543 642.21 225.727 666.238 225.727 676.674C225.727 687.876 234.841 696.991 246.043 696.991ZM246.043 637.692L246.331 638.068C247.177 639.174 267.085 665.262 267.085 676.674C267.085 688.276 257.645 697.718 246.043 697.718C234.439 697.718 225 688.276 225 676.674C225 665.262 244.907 639.174 245.755 638.068L246.043 637.692Z" fill="#B2CFD5"/>
<path d="M246.043 632.946C249.275 632.946 251.904 630.317 251.904 627.083C251.904 623.853 249.275 621.223 246.043 621.223C242.811 621.223 240.183 623.853 240.183 627.083C240.183 630.317 242.811 632.946 246.043 632.946ZM246.043 620.497C249.675 620.497 252.631 623.451 252.631 627.083C252.631 630.717 249.675 633.673 246.043 633.673C242.409 633.673 239.456 630.717 239.456 627.083C239.456 623.451 242.409 620.497 246.043 620.497Z" fill="#B2CFD5"/>
<path d="M246.042 616.084C247.56 616.084 248.792 614.851 248.792 613.335C248.792 611.819 247.56 610.587 246.042 610.587C244.526 610.587 243.293 611.819 243.293 613.335C243.293 614.851 244.526 616.084 246.042 616.084ZM246.042 609.86C247.96 609.86 249.518 611.42 249.518 613.335C249.518 615.251 247.96 616.81 246.042 616.81C244.126 616.81 242.566 615.251 242.566 613.335C242.566 611.42 244.126 609.86 246.042 609.86Z" fill="#B2CFD5"/>
<path d="M371.269 692.829L371.256 694.563C369.144 694.547 366.902 694.236 364.593 693.64L365.026 691.961C367.198 692.521 369.298 692.813 371.269 692.829ZM382.085 691.631C380.116 692.829 377.989 693.671 375.765 694.131L375.414 692.433C377.444 692.013 379.384 691.245 381.184 690.151L382.085 691.631ZM360.982 690.649L360.357 692.267C358.428 691.521 356.402 690.577 354.336 689.461L355.158 687.936C357.162 689.017 359.121 689.929 360.982 690.649ZM390.05 683.801C388.697 685.763 387.229 687.479 385.685 688.9L384.51 687.625C385.96 686.291 387.344 684.672 388.624 682.817L390.05 683.801ZM351.436 685.772L350.521 687.244C348.761 686.151 346.92 684.911 345.048 683.559L346.062 682.152C347.902 683.481 349.71 684.7 351.436 685.772ZM342.598 679.553L341.534 680.923C339.904 679.655 338.188 678.26 336.43 676.775L337.55 675.451C339.288 676.92 340.986 678.301 342.598 679.553ZM394.913 673.824C394.177 676.109 393.345 678.127 392.366 679.993L390.83 679.187C391.762 677.411 392.558 675.483 393.262 673.293L394.913 673.824ZM334.266 672.612L333.12 673.912C331.576 672.549 329.985 671.109 328.253 669.509L329.43 668.236C331.152 669.828 332.733 671.259 334.266 672.612ZM397.497 663.152L397.417 663.543C397.009 665.521 396.589 667.568 396.101 669.569L394.417 669.157C394.898 667.188 395.316 665.157 395.718 663.193L395.798 662.803L397.497 663.152ZM321.9 661.129C323.293 662.459 324.746 663.845 326.249 665.264L325.06 666.525C323.554 665.104 322.098 663.715 320.702 662.383L320.314 662.012L321.512 660.759L321.9 661.129ZM318.345 657.749L317.156 659.009C315.133 657.101 313.653 655.741 312.357 654.603L313.502 653.301C314.813 654.453 316.308 655.825 318.345 657.749ZM400.12 652.701C399.508 654.501 398.962 656.473 398.404 658.911L396.714 658.524C397.286 656.028 397.846 654 398.478 652.143L400.12 652.701ZM310.13 650.479L309.045 651.831C307.332 650.453 305.592 649.137 303.876 647.917L304.88 646.504C306.624 647.743 308.39 649.08 310.13 650.479ZM404.729 643.057C403.624 644.903 402.608 646.817 401.708 648.747L400.137 648.016C401.061 646.031 402.106 644.064 403.242 642.167L404.729 643.057ZM301.242 644.037L300.301 645.493C298.468 644.308 296.598 643.191 294.748 642.173L295.581 640.653C297.469 641.691 299.373 642.829 301.242 644.037ZM291.676 638.633L290.92 640.193C288.97 639.249 286.977 638.38 284.996 637.611L285.624 635.995C287.648 636.781 289.685 637.668 291.676 638.633ZM582.73 636.651C580.688 637.112 578.442 637.348 576.056 637.349L576.054 635.615C578.313 635.613 580.43 635.393 582.348 634.96L582.73 636.651ZM571.797 635.384L571.618 637.108C569.569 636.895 567.368 636.532 565.076 636.031L565.446 634.337C567.676 634.824 569.813 635.177 571.797 635.384ZM410.994 634.336C409.596 635.983 408.273 637.701 407.061 639.447L405.637 638.459C406.881 636.667 408.238 634.903 409.673 633.213L410.994 634.336ZM281.473 634.517L280.938 636.167C278.896 635.504 276.802 634.923 274.717 634.44L275.108 632.751C277.241 633.244 279.382 633.839 281.473 634.517ZM561.26 633.297L560.8 634.969C558.814 634.421 556.696 633.764 554.505 633.017L555.065 631.376C557.224 632.113 559.308 632.759 561.26 633.297ZM270.786 631.88L270.493 633.588C268.393 633.227 266.237 632.951 264.086 632.765L264.236 631.037C266.434 631.228 268.638 631.511 270.786 631.88ZM592.664 631.455C591.014 633.024 589.117 634.296 587.022 635.235L586.313 633.652C588.228 632.795 589.962 631.632 591.468 630.199L592.664 631.455ZM550.985 629.913L550.376 631.537C548.43 630.807 546.432 630.017 544.266 629.124L544.928 627.521C547.076 628.408 549.056 629.191 550.985 629.913ZM418.56 626.7C416.928 628.119 415.353 629.615 413.88 631.145L412.63 629.943C414.138 628.376 415.752 626.844 417.424 625.391L418.56 626.7ZM540.92 625.827L540.232 627.417C538.401 626.627 536.438 625.759 534.236 624.765L534.948 623.184C537.142 624.175 539.097 625.039 540.92 625.827ZM598.674 622.036C597.822 624.261 596.785 626.269 595.59 628.005L594.162 627.023C595.278 625.4 596.253 623.513 597.057 621.416L598.674 622.036ZM427.182 620.275C425.361 621.425 423.582 622.669 421.892 623.969L420.834 622.596C422.566 621.263 424.39 619.989 426.257 618.809L427.182 620.275ZM527.168 619.625C528.429 620.207 529.702 620.793 530.984 621.38L530.261 622.956C528.978 622.368 527.705 621.783 526.442 621.2L524.318 620.223L525.041 618.648L527.168 619.625ZM521.072 616.832L520.356 618.411C518.041 617.361 516.145 616.519 514.392 615.76L515.08 614.169C516.844 614.931 518.748 615.777 521.072 616.832ZM436.673 615.213C434.696 616.093 432.749 617.059 430.889 618.085L430.052 616.567C431.956 615.517 433.946 614.529 435.969 613.629L436.673 615.213ZM601.256 611.276C600.953 613.596 600.537 615.788 600.018 617.793L598.34 617.361C598.84 615.424 599.242 613.301 599.536 611.052L601.256 611.276ZM511.041 612.472L510.388 614.077C508.133 613.163 506.146 612.416 504.313 611.793L504.87 610.152C506.736 610.784 508.754 611.544 511.041 612.472ZM446.785 611.511C444.702 612.124 442.641 612.816 440.657 613.572L440.041 611.952C442.066 611.181 444.17 610.473 446.296 609.847L446.785 611.511ZM498.34 608.335C499.066 608.481 499.841 608.661 500.64 608.869L500.201 610.547C499.434 610.347 498.693 610.173 497.997 610.033C496.632 609.76 495.244 609.505 493.872 609.277L494.156 607.567C495.548 607.799 496.954 608.056 498.34 608.335ZM457.293 609.096C455.153 609.457 453.02 609.895 450.952 610.395L450.544 608.709C452.652 608.2 454.825 607.756 457.004 607.387L457.293 609.096ZM489.814 606.928L489.593 608.647C487.446 608.369 485.276 608.148 483.138 607.989L483.266 606.261C485.434 606.421 487.638 606.645 489.814 606.928ZM468.017 607.873C465.85 608.005 463.68 608.205 461.565 608.469L461.35 606.748C463.502 606.481 465.709 606.277 467.912 606.143L468.017 607.873ZM478.885 606.017L478.82 607.751C476.657 607.671 474.486 607.652 472.336 607.697L472.3 605.964C473.084 605.948 473.869 605.94 474.653 605.94C476.054 605.94 477.477 605.967 478.885 606.017ZM601.656 605.145C601.656 605.716 601.646 606.291 601.626 606.855L599.893 606.793C599.913 606.251 599.922 605.696 599.922 605.145C599.922 603.595 599.845 601.991 599.693 600.379L601.418 600.215C601.577 601.881 601.656 603.54 601.656 605.145ZM600.836 595.835L599.126 596.125C598.781 594.097 598.316 591.976 597.741 589.823L599.417 589.376C600.004 591.581 600.481 593.753 600.836 595.835ZM598.177 585.155L596.526 585.683C595.897 583.719 595.19 581.717 594.364 579.569L595.981 578.947C596.82 581.127 597.538 583.157 598.177 585.155ZM594.27 574.696L594.346 574.88L592.748 575.549L592.669 575.363C591.861 573.436 591.009 571.493 590.138 569.589L591.714 568.868C592.593 570.788 593.453 572.748 594.27 574.696ZM589.85 564.908L588.289 565.664C587.352 563.728 586.365 561.775 585.357 559.856L586.892 559.049C587.909 560.984 588.904 562.956 589.85 564.908ZM584.813 555.199L583.296 556.039C582.25 554.151 581.158 552.253 580.05 550.399L581.538 549.511C582.656 551.38 583.757 553.295 584.813 555.199ZM579.253 545.779L577.785 546.7C576.64 544.875 575.445 543.04 574.237 541.245L575.674 540.276C576.894 542.087 578.098 543.939 579.253 545.779ZM573.189 536.675L571.773 537.675C570.532 535.916 569.238 534.148 567.933 532.421L569.317 531.376C570.633 533.117 571.936 534.9 573.189 536.675ZM566.638 527.915L565.278 528.991C563.937 527.296 562.55 525.601 561.157 523.955L562.481 522.835C563.886 524.496 565.285 526.205 566.638 527.915ZM559.618 519.527L558.32 520.675C556.888 519.056 555.41 517.441 553.929 515.873L555.189 514.683C556.684 516.264 558.173 517.893 559.618 519.527ZM552.16 511.532L550.918 512.743C549.4 511.184 547.882 509.656 546.333 508.097L547.564 506.875C549.116 508.437 550.636 509.969 552.16 511.532ZM544.494 503.783L543.262 505.004C541.414 503.137 540.002 501.692 538.684 500.316L539.934 499.116C541.248 500.485 542.653 501.924 544.494 503.783ZM536.957 495.957L535.682 497.133C534.08 495.396 532.652 493.788 531.317 492.216L532.638 491.093C533.957 492.648 535.37 494.239 536.957 495.957ZM529.901 487.745L528.537 488.816C527.122 487.013 525.813 485.22 524.645 483.485L526.084 482.516C527.228 484.217 528.512 485.976 529.901 487.745ZM523.786 478.876L522.292 479.756C521.141 477.8 520.113 475.823 519.234 473.88L520.814 473.167C521.666 475.053 522.666 476.975 523.786 478.876ZM519.214 469.196L517.581 469.776C516.833 467.668 516.228 465.516 515.782 463.381L517.48 463.027C517.909 465.087 518.493 467.161 519.214 469.196ZM516.628 452.413C516.598 453.068 516.582 453.727 516.582 454.376C516.582 455.857 516.661 457.351 516.816 458.811L515.092 458.993C514.932 457.472 514.85 455.919 514.85 454.376C514.85 453.701 514.865 453.015 514.896 452.336L516.628 452.413ZM518.36 441.889C517.77 443.964 517.322 446.073 517.026 448.161L515.309 447.919C515.617 445.753 516.082 443.565 516.692 441.416L518.36 441.889ZM522.342 431.967C521.34 433.877 520.452 435.848 519.704 437.825L518.082 437.212C518.856 435.169 519.772 433.133 520.808 431.161L522.342 431.967ZM654.845 431.056L653.756 432.404C652.033 431.013 650.31 429.659 648.636 428.381L649.688 427.003C651.374 428.291 653.11 429.653 654.845 431.056ZM528.21 423.008C526.869 424.685 525.614 426.449 524.481 428.251L523.013 427.328C524.181 425.472 525.474 423.653 526.857 421.925L528.21 423.008ZM646.182 424.384L645.161 425.784C643.38 424.483 641.592 423.221 639.844 422.033L640.818 420.6C642.582 421.799 644.388 423.072 646.182 424.384ZM637.166 418.184L636.229 419.641C634.38 418.452 632.517 417.307 630.693 416.238L631.57 414.743C633.414 415.822 635.297 416.981 637.166 418.184ZM535.661 415.307C534.041 416.693 532.478 418.192 531.016 419.761L529.748 418.579C531.254 416.961 532.865 415.419 534.534 413.991L535.661 415.307ZM627.756 412.583L626.925 414.104C625.001 413.053 623.058 412.053 621.154 411.132L621.909 409.571C623.84 410.505 625.806 411.519 627.756 412.583ZM544.433 409.171L544.205 409.299C542.438 410.302 540.694 411.427 539.025 412.647L538.002 411.247C539.726 409.988 541.525 408.826 543.35 407.791L543.585 407.657L544.433 409.171ZM617.928 407.728L617.229 409.315C615.23 408.434 613.21 407.609 611.224 406.864L611.832 405.241C613.85 405.997 615.9 406.834 617.928 407.728ZM554.21 404.752C552.174 405.471 550.169 406.295 548.25 407.201L547.51 405.633C549.482 404.703 551.542 403.856 553.633 403.117L554.21 404.752ZM605.974 403.231C606.549 403.409 607.121 403.593 607.69 403.781L607.148 405.428C606.586 405.243 606.024 405.061 605.458 404.887C603.964 404.421 602.441 403.989 600.933 403.601L601.365 401.921C602.9 402.317 604.45 402.757 605.974 403.231ZM564.596 401.991C562.466 402.384 560.352 402.875 558.31 403.451L557.84 401.783C559.932 401.193 562.1 400.689 564.28 400.287L564.596 401.991ZM597.082 400.926L596.729 402.622C594.614 402.183 592.468 401.814 590.349 401.526L590.582 399.808C592.741 400.101 594.928 400.477 597.082 400.926ZM575.29 400.799C573.124 400.889 570.957 401.069 568.85 401.332L568.636 399.612C570.789 399.343 573.004 399.159 575.218 399.067L575.29 400.799ZM586.21 399.322L586.061 401.05C583.902 400.863 581.728 400.757 579.601 400.733L579.62 399C581.79 399.024 584.008 399.132 586.21 399.322Z" fill="#B2CFD5"/>

<path opacity="0.3" d="M832.811 529.261C826.684 536.049 820.886 540.427 816.305 543.885C762.461 584.541 698.748 572.69 685.208 569.796C665.212 565.522 626.562 557.261 598.618 522.681C556.342 470.363 562.925 387.938 595.717 333.528C601.716 323.576 633.4 268.337 697.799 259.478C736.772 254.117 782.203 264.93 815.102 293.936C884.161 354.821 879.245 477.819 832.811 529.261Z" fill="url(#paint0_linear_291_597)"/>
<path d="M592.519 258.382C592.449 256.783 594.677 256.167 595.741 257.483C606.548 270.85 631.373 309.397 613.663 364.763C591.445 434.229 603.183 463.474 620.725 483.351C620.725 483.351 594.091 470.393 581.185 440.523C549.499 367.184 593.769 286.815 592.519 258.382Z" fill="url(#paint1_linear_291_597)"/>
<path d="M598.258 282.569C598.442 290.824 598.449 299.069 598.127 307.287C597.852 315.508 597.305 323.703 596.48 331.858C595.62 340.007 594.592 348.133 593.187 356.187C591.822 364.249 590.078 372.23 588.295 380.236C586.563 388.248 584.768 396.309 583.878 404.606C582.981 412.885 583.154 421.448 585.027 429.812C585.496 431.897 586.008 433.984 586.648 436.029C587.247 438.084 587.944 440.119 588.68 442.145C590.174 446.191 591.958 450.167 594.049 454.019C598.252 461.716 603.697 468.881 609.962 475.27C610.621 475.942 611.722 476.025 612.421 475.455C613.107 474.895 613.15 473.913 612.527 473.241L612.523 473.236C611.044 471.645 609.587 470.041 608.209 468.387C607.507 467.569 606.843 466.726 606.163 465.894C605.518 465.042 604.837 464.21 604.219 463.341C601.688 459.901 599.413 456.316 597.431 452.607C593.431 445.214 590.584 437.292 588.78 429.305C587.926 425.303 587.392 421.266 587.196 417.222C587.004 413.177 587.15 409.129 587.549 405.098C588.346 397.031 590.05 389.036 591.718 381.009C593.376 372.978 594.98 364.894 596.216 356.745C596.846 352.673 597.395 348.587 597.864 344.49C598.111 342.444 598.315 340.391 598.523 338.34C598.709 336.285 598.883 334.229 599.038 332.172C599.642 323.939 599.972 315.68 600.015 307.409C600.016 299.136 599.776 290.854 599.19 282.577C599.173 282.341 598.951 282.151 598.694 282.154C598.444 282.157 598.253 282.341 598.258 282.569Z" fill="white"/>
<path d="M595.221 407.501C593.35 408.937 590.694 407.897 590.141 405.53C587.094 392.472 581.651 354.734 608.259 317.714C630.728 286.452 640.089 267.253 643.764 258.228C644.541 256.32 647.182 256.565 647.634 258.586C652.618 280.885 662.997 355.445 595.221 407.501Z" fill="url(#paint2_linear_291_597)"/>
<path d="M592.61 405.673C592.553 405.672 592.495 405.666 592.436 405.654C591.947 405.549 591.63 405.047 591.73 404.532C591.842 403.949 603.303 345.639 632.679 300.687C632.962 300.254 633.525 300.144 633.936 300.442C634.348 300.74 634.452 301.332 634.169 301.765C605.007 346.39 593.613 404.33 593.502 404.91C593.414 405.364 593.034 405.676 592.61 405.673Z" fill="white"/>
<path d="M868.878 421.431C865.631 499.28 798.266 559.398 718.414 555.709C638.563 552.02 576.464 485.921 579.711 408.073C582.959 330.224 650.324 270.106 730.175 273.795C810.026 277.484 872.126 343.583 868.878 421.431Z" fill="url(#paint3_linear_291_597)"/>
<path d="M615.119 321.275C611.942 326.642 609.493 332.683 609.953 338.987C610.485 346.287 613.996 353.122 614.176 360.441C614.481 372.852 605.376 383.242 602.536 395.292C599.362 408.762 611.331 424.109 616.1 431.627C620.869 439.145 618.819 425.527 621.711 420.217C624.603 414.907 630.838 442.561 640.578 448.631C645.804 451.887 651.935 454.055 655.693 459.075C661.175 466.397 659.656 476.816 658.833 486.097C658.01 495.378 659.243 506.689 667.186 510.815C671.863 513.244 677.808 512.422 682.028 515.647C689.44 521.31 685.899 533.657 688.836 542.786C692.03 552.715 698.363 552.846 708.162 554.951C717.96 557.055 706.927 534.403 711.517 526.485C713.93 522.324 717.613 519.012 719.516 514.568C722.155 508.404 721.412 500.169 726.531 496.085C730.368 493.023 735.708 493.852 740.524 493.807C745.339 493.762 751.196 491.563 751.742 486.528C752.227 482.061 747.977 478.499 743.819 477.464C739.661 476.428 735.23 476.922 731.147 475.599C719.466 471.814 714.018 454.614 701.821 453.809C691.395 453.121 682.662 465.437 672.417 463.286C666.705 462.087 662.796 456.764 658.557 452.562C653.111 447.164 646.352 443.112 642.028 436.687C637.704 430.262 636.968 419.993 643.119 415.511C647.689 412.182 654.181 413.533 658.695 416.945C663.209 420.356 666.284 425.418 669.599 430.112C670.623 431.561 671.781 433.064 673.42 433.603C677.828 435.056 681.044 428.529 679.989 423.797C678.934 419.065 675.758 414.903 675.609 410.045C675.346 401.483 684.107 396.05 691.794 393.229C699.48 390.408 708.539 387.044 710.799 378.814C711.597 375.908 711.388 372.709 712.606 369.968C716.643 360.884 737.947 356.35 732.855 351.082C727.762 345.815 711.6 344.67 708.452 334.062C707.326 330.265 706.166 325.245 702.401 324.878C696.269 324.279 692.771 332.267 687.627 333.638C685.186 334.288 684.951 338.653 685.046 344.019C685.115 347.914 682.171 351.131 678.469 351.205C674.768 351.279 671.71 348.181 671.639 344.286C671.613 342.84 671.853 341.379 672.418 339.921C673.409 337.367 675.289 335.324 677.185 333.419C685.096 325.471 708.701 316.738 703.758 313.354C698.815 309.971 675.091 300.633 671.552 305.786C668.014 310.939 673.866 306.576 675.294 312.687C676.721 318.799 657.744 317.979 648.97 320.625C647.521 321.062 645.914 321.487 644.558 320.796C643.041 320.024 642.403 318.167 641.58 316.62C637.173 308.335 622.516 313.713 622.516 313.713C622.516 313.713 617.957 316.48 615.119 321.275Z" fill="url(#paint4_linear_291_597)"/>
<path d="M681.416 283.677C679.285 287.857 685.621 287.789 686.251 292.485C691.955 293.139 694.297 283.676 699.938 282.572C703.121 281.949 706.208 284.349 707.938 287.229C709.668 290.109 710.474 293.491 711.941 296.529C715.226 303.336 722.009 308.127 729.24 308.747C730.813 308.882 732.547 308.776 733.731 307.678C737.169 304.49 732.251 298.501 733.528 293.871C734.988 288.58 742.239 289.382 747.139 287.442C748.491 286.907 758.886 283.988 759.053 282.478C759.35 279.802 754.527 278.098 749.132 276.638C739.991 274.165 723.908 274.268 716.046 275.016C705.587 276.012 688.162 275.208 681.416 283.677Z" fill="url(#paint5_linear_291_597)"/>
<path d="M855.837 463.427C858.207 447.814 858.01 431.774 855.257 416.232C854.522 412.086 852.803 407.143 848.835 406.546C844.246 405.856 838.628 411.403 835.755 407.574C834.487 405.884 834.993 403.423 835.711 401.407C837.606 396.089 840.572 391.197 844.356 387.148C846.707 384.633 849.397 382.403 851.207 379.433C855.079 373.082 852.361 363.801 846.881 358.934C841.401 354.067 834.332 362.795 828.572 359.33C822.811 355.866 822.632 347.461 821.549 340.572C820.747 335.47 817.175 321.646 813.228 328.378C809.282 335.111 818.492 361.911 828.859 374.758C830.109 376.307 831.49 378.043 831.384 380.073C831.132 384.92 824.42 384.704 819.904 385.697C814.315 386.925 805.748 383.775 810.476 394.024C812.969 399.43 824.88 406.829 821.679 410.447C818.479 414.064 808.64 424.543 804.023 433.017C799.406 441.491 797.169 452.044 800.651 461.099C804.132 470.154 814.6 476.407 823.145 472.592C827.145 470.807 831.504 467.095 835.222 469.46C838.589 471.602 838.092 476.744 837.925 480.88C837.759 485.017 840.025 490.508 843.849 489.536C845.107 489.216 846.097 488.212 846.947 487.184C852.327 480.677 854.544 471.944 855.837 463.427Z" fill="url(#paint6_linear_291_597)"/>
<path opacity="0.18" d="M716.462 517.466C779.181 517.466 830.024 466.922 830.024 404.572C830.024 342.222 779.181 291.678 716.462 291.678C653.743 291.678 602.9 342.222 602.9 404.572C602.9 466.922 653.743 517.466 716.462 517.466Z" fill="white"/>
<g opacity="0.68">
<path d="M764.657 417.173C764.623 442.048 763.008 466.974 758.864 491.497C757.814 497.622 756.597 503.718 755.146 509.756C753.69 515.792 752.008 521.775 749.949 527.623C748.916 530.545 747.787 533.433 746.517 536.256C745.245 539.076 743.834 541.836 742.194 544.453C740.548 547.058 738.68 549.552 736.381 551.601C735.231 552.619 733.97 553.521 732.584 554.181C731.202 554.836 729.693 555.251 728.162 555.281C726.632 555.329 725.101 555.012 723.691 554.413C722.276 553.821 720.985 552.96 719.808 551.976C717.453 549.992 715.545 547.525 713.869 544.94C712.198 542.345 710.769 539.593 709.477 536.783C708.19 533.969 707.045 531.087 706.001 528.169C703.916 522.331 702.217 516.353 700.749 510.321C699.283 504.287 698.053 498.194 696.994 492.07C694.882 479.82 693.445 467.452 692.478 455.05C691.518 442.646 691.041 430.202 690.992 417.758C690.967 411.536 691.113 405.315 691.319 399.098C691.533 392.881 691.852 386.667 692.28 380.463C693.141 368.054 694.433 355.673 696.361 343.393C697.328 337.255 698.457 331.142 699.817 325.084C701.18 319.028 702.765 313.02 704.732 307.142C705.721 304.207 706.803 301.302 708.037 298.466C709.268 295.631 710.647 292.858 712.267 290.237C713.891 287.628 715.758 285.138 718.081 283.147C719.242 282.16 720.521 281.301 721.921 280.719C723.316 280.13 724.828 279.83 726.333 279.89C727.84 279.934 729.324 280.333 730.695 280.969C732.067 281.61 733.329 282.48 734.488 283.467C736.806 285.454 738.726 287.885 740.429 290.438C742.126 293.001 743.606 295.714 744.943 298.496C746.283 301.277 747.476 304.133 748.578 307.024C750.772 312.812 752.582 318.75 754.158 324.749C755.729 330.752 757.058 336.821 758.207 342.926C762.753 367.367 764.597 392.295 764.657 417.173ZM763.285 417.173C763.302 404.768 762.848 392.361 761.863 379.999C760.888 367.639 759.411 355.314 757.22 343.127C756.125 337.034 754.85 330.976 753.335 324.985C751.814 318.996 750.059 313.069 747.925 307.295C746.853 304.411 745.69 301.563 744.383 298.791C743.079 296.019 741.634 293.317 739.976 290.767C738.314 288.229 736.439 285.817 734.188 283.854C733.062 282.879 731.84 282.021 730.516 281.389C729.194 280.765 727.769 280.358 726.32 280.317C724.872 280.268 723.425 280.572 722.086 281.15C720.741 281.723 719.508 282.565 718.384 283.537C716.136 285.499 714.316 287.964 712.733 290.555C711.155 293.157 709.811 295.916 708.611 298.74C707.41 301.564 706.359 304.46 705.4 307.387C703.491 313.249 701.962 319.244 700.653 325.288C699.348 331.335 698.273 337.436 697.358 343.563C695.537 355.819 694.348 368.177 693.591 380.557C692.829 392.939 692.547 405.35 692.566 417.756C692.545 430.16 692.948 442.568 693.834 454.938C694.727 467.305 696.089 479.642 698.123 491.858C699.143 497.964 700.333 504.04 701.757 510.053C703.184 516.064 704.839 522.019 706.876 527.826C707.894 530.729 709.013 533.592 710.271 536.384C711.533 539.171 712.928 541.896 714.555 544.455C716.184 547.002 718.039 549.421 720.291 551.341C721.417 552.294 722.643 553.12 723.971 553.685C725.295 554.253 726.717 554.567 728.142 554.517C729.567 554.48 730.97 554.085 732.271 553.459C733.574 552.828 734.774 551.961 735.875 550.974C738.078 548.987 739.893 546.539 741.494 543.97C743.089 541.388 744.467 538.655 745.708 535.856C746.949 533.056 748.051 530.185 749.059 527.279C751.068 521.461 752.705 515.501 754.118 509.486C755.527 503.469 756.703 497.391 757.712 491.282C759.73 479.064 761.076 466.726 761.969 454.358C762.871 441.988 763.288 429.58 763.285 417.173Z" fill="white"/>
<path d="M824.285 417.174C824.257 425.178 823.776 433.184 822.761 441.118C821.743 449.051 820.233 456.916 818.193 464.63C814.075 480.036 807.853 494.865 799.385 508.177C795.151 514.826 790.351 521.084 784.985 526.761C779.623 532.436 773.687 537.524 767.248 541.791C760.808 546.05 753.853 549.47 746.567 551.792C739.278 554.095 731.672 555.29 724.062 555.288C716.452 555.295 708.845 554.107 701.553 551.808C694.263 549.492 687.304 546.076 680.859 541.82C674.415 537.556 668.472 532.472 663.103 526.798C657.73 521.124 652.923 514.867 648.681 508.218C640.199 494.905 633.967 480.07 629.834 464.659C627.787 456.942 626.26 449.075 625.243 441.135C624.231 433.195 623.755 425.183 623.732 417.174C623.759 409.164 624.239 401.154 625.254 393.214C626.274 385.276 627.806 377.41 629.857 369.696C633.999 354.289 640.238 339.462 648.724 326.16C652.967 319.516 657.775 313.264 663.147 307.595C668.517 301.928 674.456 296.848 680.9 292.595C687.343 288.348 694.301 284.952 701.58 282.636C708.862 280.335 716.46 279.142 724.062 279.144C731.664 279.147 739.261 280.345 746.54 282.651C753.816 284.972 760.769 288.373 767.208 292.624C773.645 296.881 779.578 301.964 784.941 307.633C790.306 313.304 795.106 319.556 799.342 326.201C807.814 339.502 814.044 354.323 818.17 369.724C820.214 377.435 821.728 385.299 822.749 393.231C823.768 401.164 824.253 409.169 824.285 417.174ZM822.712 417.174C822.707 409.241 822.254 401.304 821.271 393.437C820.286 385.571 818.812 377.771 816.813 370.121C812.815 354.831 806.779 340.073 798.475 326.807C794.325 320.181 789.61 313.938 784.331 308.267C779.051 302.602 773.213 297.492 766.842 293.232C760.469 288.988 753.587 285.564 746.368 283.246C739.146 280.949 731.609 279.751 724.062 279.739C716.515 279.756 708.98 280.96 701.761 283.261C694.544 285.585 687.667 289.013 681.3 293.261C674.934 297.524 669.103 302.638 663.83 308.305C658.557 313.978 653.85 320.222 649.708 326.848C641.416 340.112 635.391 354.865 631.409 370.149C627.44 385.451 625.517 401.318 625.52 417.174C625.524 433.029 627.455 448.895 631.432 464.192C635.423 479.471 641.455 494.216 649.751 507.469C653.895 514.09 658.602 520.329 663.874 525.996C669.147 531.657 674.976 536.766 681.34 541.019C687.706 545.258 694.582 548.667 701.788 550.989C708.997 553.294 716.523 554.501 724.062 554.525C731.601 554.507 739.128 553.305 746.341 551.006C753.55 548.688 760.43 545.284 766.801 541.048C773.171 536.799 779.006 531.692 784.286 526.034C789.565 520.369 794.28 514.131 798.431 507.51C806.74 494.255 812.783 479.505 816.789 464.22C818.792 456.572 820.27 448.773 821.259 440.909C822.246 433.043 822.703 425.107 822.712 417.174Z" fill="white"/>
<path d="M606.857 362.51L637.021 362.31L667.184 362.195L727.51 362.104L787.837 362.205L818 362.329L848.163 362.546C848.202 362.546 848.232 362.579 848.232 362.62C848.232 362.659 848.201 362.692 848.163 362.692L818 362.909L787.837 363.034L727.51 363.135L667.184 363.043L637.021 362.928L606.857 362.728C606.8 362.728 606.754 362.679 606.755 362.618C606.755 362.559 606.801 362.511 606.857 362.51Z" fill="white"/>
<path d="M641.85 309.346L663.265 309.145L684.68 309.031C691.819 308.982 698.957 308.988 706.095 308.973L727.51 308.939L770.34 309.04L791.755 309.165L813.17 309.382C813.208 309.382 813.239 309.415 813.239 309.455C813.239 309.495 813.208 309.527 813.17 309.528L791.755 309.745L770.34 309.869L727.51 309.97L706.095 309.937C698.957 309.922 691.819 309.927 684.68 309.879L663.265 309.765L641.85 309.564C641.793 309.563 641.747 309.514 641.748 309.454C641.748 309.394 641.794 309.346 641.85 309.346Z" fill="white"/>
<path d="M596.375 415.675L629.159 415.475L661.943 415.36L727.511 415.268L793.078 415.369L825.862 415.494L858.646 415.711C858.684 415.711 858.715 415.744 858.715 415.784C858.714 415.824 858.684 415.856 858.646 415.857L825.862 416.074L793.078 416.198L727.511 416.299L661.943 416.208L629.159 416.093L596.375 415.893C596.318 415.892 596.272 415.843 596.272 415.783C596.273 415.723 596.319 415.675 596.375 415.675Z" fill="white"/>
<path d="M606.857 468.839L637.021 468.639L667.184 468.525L727.51 468.433L787.837 468.534L818 468.658L848.163 468.875C848.202 468.876 848.232 468.909 848.232 468.949C848.232 468.989 848.201 469.021 848.163 469.021L818 469.238L787.837 469.363L727.51 469.464L667.184 469.372L637.021 469.257L606.857 469.057C606.8 469.057 606.754 469.008 606.755 468.947C606.755 468.888 606.801 468.84 606.857 468.839Z" fill="white"/>
<path d="M817.486 522.494H646.167C645.966 522.494 645.804 522.323 645.804 522.112C645.804 521.901 645.966 521.73 646.167 521.73H817.486C817.687 521.73 817.849 521.901 817.849 522.112C817.849 522.323 817.687 522.494 817.486 522.494Z" fill="white"/>
</g>
<path d="M727.67 391.557C707.144 387.669 687.421 378.923 672.07 366.698L673.384 365.877C691.73 380.487 716.437 390.025 741.166 392.055C765.906 394.081 790.544 388.576 808.763 376.952C816.753 371.854 823.004 365.981 827.341 359.498L829.062 360.221C824.636 366.836 818.264 372.824 810.123 378.019C791.566 389.859 766.455 395.465 741.227 393.398C736.694 393.027 732.163 392.408 727.67 391.557Z" fill="white"/>
<path d="M827.43 402.131C823.712 395.566 821.696 389.337 821.415 383.505C820.707 368.838 831.477 361.908 831.586 361.84L832.227 362.973C832.122 363.039 821.726 369.742 822.409 383.81C822.873 393.352 828.239 404.084 838.362 415.707L837.813 416.483C833.514 411.547 830.049 406.756 827.43 402.131Z" fill="white"/>
<path d="M666.638 364.375C665.861 364.647 665.146 364.642 664.555 364.337L665.169 363.531C666.339 364.137 668.172 362.383 668.529 362.025C676.402 354.113 682.045 345.324 684.848 336.607C687.945 326.974 687.57 317.378 683.791 309.585L684.757 309.134C688.622 317.104 689.009 326.909 685.847 336.743C682.996 345.609 677.264 354.541 669.27 362.574C668.376 363.473 667.472 364.084 666.638 364.375Z" fill="white"/>
<path d="M810.969 465.469L809.799 465.353C809.984 460.76 811.702 456.512 813.531 452.606C818.284 442.455 824.252 433.116 831.27 424.852C833.928 421.721 836.898 418.557 840.601 416.617L841.132 417.816C837.595 419.669 834.717 422.74 832.134 425.783C825.186 433.965 819.278 443.21 814.572 453.259C812.804 457.036 811.144 461.129 810.969 465.469Z" fill="white"/>
<path d="M668.293 370.731C673.164 370.731 677.112 366.576 677.112 361.45C677.112 356.324 673.164 352.169 668.293 352.169C663.422 352.169 659.473 356.324 659.473 361.45C659.473 366.576 663.422 370.731 668.293 370.731Z" fill="#6B5109"/>
<path d="M829.055 372.695C833.926 372.695 837.875 368.54 837.875 363.414C837.875 358.288 833.926 354.133 829.055 354.133C824.184 354.133 820.235 358.288 820.235 363.414C820.235 368.54 824.184 372.695 829.055 372.695Z" fill="#6B5109"/>
<path d="M680.179 318.656C685.049 318.656 688.998 314.5 688.998 309.374C688.998 304.249 685.049 300.093 680.179 300.093C675.308 300.093 671.359 304.249 671.359 309.374C671.359 314.5 675.308 318.656 680.179 318.656Z" fill="#6B5109"/>
<path d="M812.256 475.417C817.127 475.417 821.075 471.261 821.075 466.136C821.075 461.01 817.127 456.854 812.256 456.854C807.385 456.854 803.436 461.01 803.436 466.136C803.436 471.261 807.385 475.417 812.256 475.417Z" fill="#6B5109"/>
<path d="M841.078 425.056C845.949 425.056 849.898 420.901 849.898 415.775C849.898 410.649 845.949 406.494 841.078 406.494C836.207 406.494 832.259 410.649 832.259 415.775C832.259 420.901 836.207 425.056 841.078 425.056Z" fill="#6B5109"/>
<path d="M794.606 296.905L784.44 290.647C784.231 290.519 783.983 290.479 783.747 290.537L770.798 293.696C770.449 293.781 770.175 294.066 770.09 294.432C770.005 294.798 770.123 295.183 770.396 295.428L778.375 302.596L794.606 296.905Z" fill="url(#paint7_linear_291_597)"/>
<path d="M708.207 311.382C708.207 311.382 828.972 285.24 833.744 286.706C838.517 288.173 847.108 293.23 849.603 293.172C852.098 293.115 860.862 294.49 858.753 301.105C856.643 307.72 756.526 330.5 744.713 326.568C732.901 322.636 703.049 315.44 703.049 315.44C703.049 315.44 700.213 311.04 708.207 311.382Z" fill="url(#paint8_linear_291_597)"/>
<path d="M743.175 304.286L725.475 294.538C724.365 293.926 723.44 293 722.806 291.863L715.425 278.631C714.84 277.582 713.672 277.057 712.548 277.338C708.95 278.239 701.487 280.214 701.472 281.112C701.453 282.294 705.831 311.85 705.831 311.85L743.175 304.286Z" fill="url(#paint9_linear_291_597)"/>
<path d="M709.443 315.6L708.14 321.891C707.921 322.952 708.175 324.02 708.831 324.858C709.487 325.697 710.472 326.131 711.504 326.107L717.671 325.966C718.645 325.943 719.562 325.52 720.186 324.733L730.881 311.255L709.443 315.6Z" fill="url(#paint10_linear_291_597)"/>
<path d="M773.488 334.818C773.488 334.818 777.33 339.556 783.411 339.417C789.492 339.277 796.94 337.334 798.296 335.037C799.653 332.741 802.3 315.946 790.001 318.636C777.702 321.325 763.451 329.236 773.488 334.818Z" fill="url(#paint11_linear_291_597)"/>
<path d="M766.208 317.702L794.912 311.672L771.422 344.979C771.093 345.446 770.593 345.746 770.043 345.808L752.812 347.743C752.066 347.827 751.339 347.459 750.935 346.794C750.531 346.129 750.519 345.281 750.905 344.604L766.208 317.702Z" fill="url(#paint12_linear_291_597)"/>
<path d="M796.721 335.535C796.795 335.55 796.867 335.551 796.937 335.54C797.322 335.477 797.699 335.047 798.059 334.261C799.216 331.737 799.868 326.376 797.695 322.364C797.051 321.175 795.893 320.431 794.596 320.367C793.53 320.316 792.18 320.683 791.794 322.716C791.191 325.902 794.243 333.136 795.922 334.98C796.217 335.304 796.481 335.488 796.721 335.535ZM795.009 320.973C795.937 321.155 796.766 321.765 797.238 322.638C799.294 326.434 798.66 331.674 797.585 334.021C797.274 334.701 796.998 334.97 796.857 334.993C796.838 334.996 796.675 335.008 796.301 334.597C794.555 332.679 791.777 325.639 792.31 322.823C792.564 321.482 793.304 320.859 794.572 320.919C794.719 320.926 794.865 320.944 795.009 320.973Z" fill="url(#paint13_linear_291_597)"/>
<path d="M702.323 288.129L705.316 288.061L708.539 308.108L705.408 308.954L702.323 288.129Z" fill="url(#paint14_linear_291_597)"/>
<path d="M752.032 311.19C752.011 310.154 752.792 309.295 753.777 309.273L753.89 309.27C754.875 309.247 755.691 310.069 755.712 311.106L755.738 312.331C755.759 313.368 754.978 314.226 753.993 314.249L753.88 314.251C752.895 314.274 752.079 313.452 752.058 312.416L752.032 311.19Z" fill="url(#paint15_linear_291_597)"/>
<path d="M758.855 310.48C758.833 309.444 759.614 308.585 760.599 308.563L760.713 308.56C761.698 308.537 762.513 309.359 762.535 310.396L762.56 311.622C762.581 312.658 761.8 313.516 760.816 313.539L760.702 313.541C759.717 313.564 758.902 312.742 758.88 311.706L758.855 310.48Z" fill="url(#paint16_linear_291_597)"/>
<path d="M765.654 308.664C765.633 307.628 766.414 306.769 767.399 306.747L767.512 306.744C768.497 306.722 769.313 307.543 769.334 308.58L769.36 309.806C769.381 310.842 768.6 311.7 767.615 311.723L767.502 311.726C766.517 311.748 765.701 310.926 765.68 309.89L765.654 308.664Z" fill="url(#paint17_linear_291_597)"/>
<path d="M771.94 307.413C771.918 306.377 772.7 305.518 773.684 305.496L773.798 305.493C774.783 305.471 775.598 306.292 775.62 307.329L775.645 308.555C775.667 309.591 774.885 310.449 773.901 310.472L773.787 310.475C772.802 310.497 771.987 309.675 771.965 308.639L771.94 307.413Z" fill="url(#paint18_linear_291_597)"/>
<path d="M779.277 306.138C779.255 305.102 780.036 304.243 781.021 304.221L781.135 304.218C782.119 304.196 782.935 305.018 782.957 306.054L782.982 307.28C783.003 308.316 782.222 309.174 781.238 309.197L781.124 309.2C780.139 309.222 779.324 308.4 779.302 307.364L779.277 306.138Z" fill="url(#paint19_linear_291_597)"/>
<path d="M786.088 304.875C786.066 303.839 786.847 302.98 787.832 302.958L787.946 302.955C788.931 302.932 789.746 303.754 789.768 304.791L789.793 306.016C789.815 307.053 789.033 307.911 788.049 307.934L787.935 307.936C786.95 307.959 786.135 307.137 786.113 306.101L786.088 304.875Z" fill="url(#paint20_linear_291_597)"/>
<path d="M792.888 303.059C792.866 302.023 793.647 301.164 794.632 301.142L794.745 301.139C795.73 301.117 796.546 301.938 796.567 302.975L796.593 304.2C796.614 305.237 795.833 306.095 794.848 306.118L794.735 306.12C793.75 306.143 792.934 305.321 792.913 304.285L792.888 303.059Z" fill="url(#paint21_linear_291_597)"/>
<path d="M799.184 302.362C799.163 301.326 799.944 300.467 800.929 300.444L801.042 300.442C802.027 300.419 802.843 301.241 802.864 302.278L802.889 303.503C802.911 304.54 802.13 305.398 801.145 305.421L801.032 305.423C800.047 305.446 799.231 304.624 799.209 303.587L799.184 302.362Z" fill="url(#paint22_linear_291_597)"/>
<path d="M805.995 301.098C805.974 300.062 806.755 299.203 807.739 299.181L807.853 299.178C808.838 299.156 809.653 299.978 809.675 301.014L809.7 302.24C809.722 303.276 808.941 304.134 807.956 304.157L807.842 304.16C806.858 304.182 806.042 303.36 806.02 302.324L805.995 301.098Z" fill="url(#paint23_linear_291_597)"/>
<path d="M812.795 299.283C812.773 298.246 813.555 297.388 814.539 297.365L814.653 297.363C815.638 297.34 816.453 298.162 816.475 299.198L816.5 300.424C816.522 301.46 815.741 302.319 814.756 302.341L814.642 302.344C813.657 302.367 812.842 301.545 812.82 300.508L812.795 299.283Z" fill="url(#paint24_linear_291_597)"/>
<path d="M819.092 298.585C819.07 297.549 819.852 296.69 820.836 296.668L820.95 296.665C821.935 296.642 822.75 297.464 822.772 298.501L822.797 299.726C822.819 300.763 822.038 301.621 821.053 301.644L820.939 301.646C819.955 301.669 819.139 300.847 819.117 299.811L819.092 298.585Z" fill="url(#paint25_linear_291_597)"/>
<path d="M842.295 290.458L830.377 294.237C829.482 294.522 828.905 295.438 829.009 296.416C829.131 297.578 829.326 298.891 829.57 298.774C830.003 298.567 848.696 293.112 848.696 293.112L842.295 290.458Z" fill="url(#paint26_linear_291_597)"/>
<defs>
<linearGradient id="paint0_linear_291_597" x1="906.199" y1="666.75" x2="622.762" y2="332.243" gradientUnits="userSpaceOnUse">
<stop stop-color="#E8B113"/>
<stop offset="1" stop-color="#FFF9E8"/>
</linearGradient>
<linearGradient id="paint1_linear_291_597" x1="548.203" y1="329.565" x2="669.457" y2="404.525" gradientUnits="userSpaceOnUse">
<stop stop-color="#6B5109"/>
<stop offset="1" stop-color="#B2CFD5"/>
</linearGradient>
<linearGradient id="paint2_linear_291_597" x1="568.158" y1="378.812" x2="675.27" y2="292.505" gradientUnits="userSpaceOnUse">
<stop stop-color="#FFECB6"/>
<stop offset="1" stop-color="#6B5109"/>
</linearGradient>
<linearGradient id="paint3_linear_291_597" x1="568.57" y1="609.035" x2="866.819" y2="273.022" gradientUnits="userSpaceOnUse">
<stop stop-color="#8DB8C0"/>
<stop offset="1" stop-color="#032A32"/>
</linearGradient>
<linearGradient id="paint4_linear_291_597" x1="699.608" y1="300.938" x2="601.774" y2="818.826" gradientUnits="userSpaceOnUse">
<stop stop-color="#B2CFD5"/>
<stop offset="1" stop-color="#032A32"/>
</linearGradient>
<linearGradient id="paint5_linear_291_597" x1="711.571" y1="207.338" x2="746.853" y2="495.365" gradientUnits="userSpaceOnUse">
<stop stop-color="#076476"/>
<stop offset="1" stop-color="#032A32"/>
</linearGradient>
<linearGradient id="paint6_linear_291_597" x1="780.426" y1="557.498" x2="911.925" y2="206.931" gradientUnits="userSpaceOnUse">
<stop stop-color="#B2CFD5"/>
<stop offset="1" stop-color="#032A32"/>
</linearGradient>
<linearGradient id="paint7_linear_291_597" x1="779.934" y1="272.069" x2="786.94" y2="334.654" gradientUnits="userSpaceOnUse">
<stop stop-color="#FDF53F"/>
<stop offset="1" stop-color="#D93C65"/>
</linearGradient>
<linearGradient id="paint8_linear_291_597" x1="729.865" y1="333.928" x2="894.044" y2="255.92" gradientUnits="userSpaceOnUse">
<stop stop-color="#FFE393"/>
<stop offset="1" stop-color="#8C6B0C"/>
</linearGradient>
<linearGradient id="paint9_linear_291_597" x1="726.393" y1="317.103" x2="707.238" y2="234.414" gradientUnits="userSpaceOnUse">
<stop stop-color="#FFE393"/>
<stop offset="1" stop-color="#6B5109"/>
</linearGradient>
<linearGradient id="paint10_linear_291_597" x1="734.878" y1="273.609" x2="686.895" y2="390.85" gradientUnits="userSpaceOnUse">
<stop stop-color="#FDF53F"/>
<stop offset="1" stop-color="#D93C65"/>
</linearGradient>
<linearGradient id="paint11_linear_291_597" x1="800.705" y1="313.782" x2="764.614" y2="349.791" gradientUnits="userSpaceOnUse">
<stop stop-color="#FFE393"/>
<stop offset="1" stop-color="#8C6B0C"/>
</linearGradient>
<linearGradient id="paint12_linear_291_597" x1="760.401" y1="355.247" x2="837.021" y2="205.229" gradientUnits="userSpaceOnUse">
<stop stop-color="#FDF53F"/>
<stop offset="1" stop-color="#D93C65"/>
</linearGradient>
<linearGradient id="paint13_linear_291_597" x1="762.804" y1="349.041" x2="810.279" y2="321.217" gradientUnits="userSpaceOnUse">
<stop stop-color="#FDF53F"/>
<stop offset="1" stop-color="#D93C65"/>
</linearGradient>
<linearGradient id="paint14_linear_291_597" x1="704.313" y1="297.386" x2="754.876" y2="346.184" gradientUnits="userSpaceOnUse">
<stop stop-color="#FDF53F"/>
<stop offset="1" stop-color="#D93C65"/>
</linearGradient>
<linearGradient id="paint15_linear_291_597" x1="848.61" y1="266.723" x2="807.533" y2="284.36" gradientUnits="userSpaceOnUse">
<stop stop-color="#2C759E"/>
<stop offset="1" stop-color="#051042"/>
</linearGradient>
<linearGradient id="paint16_linear_291_597" x1="849.329" y1="268.915" x2="808.251" y2="286.552" gradientUnits="userSpaceOnUse">
<stop stop-color="#2C759E"/>
<stop offset="1" stop-color="#051042"/>
</linearGradient>
<linearGradient id="paint17_linear_291_597" x1="850.025" y1="270.002" x2="808.947" y2="287.638" gradientUnits="userSpaceOnUse">
<stop stop-color="#2C759E"/>
<stop offset="1" stop-color="#051042"/>
</linearGradient>
<linearGradient id="paint18_linear_291_597" x1="850.206" y1="271.653" x2="809.128" y2="289.29" gradientUnits="userSpaceOnUse">
<stop stop-color="#2C759E"/>
<stop offset="1" stop-color="#051042"/>
</linearGradient>
<linearGradient id="paint19_linear_291_597" x1="851.438" y1="273.28" x2="810.36" y2="290.917" gradientUnits="userSpaceOnUse">
<stop stop-color="#2C759E"/>
<stop offset="1" stop-color="#051042"/>
</linearGradient>
<linearGradient id="paint20_linear_291_597" x1="852.145" y1="274.92" x2="811.067" y2="292.557" gradientUnits="userSpaceOnUse">
<stop stop-color="#2C759E"/>
<stop offset="1" stop-color="#051042"/>
</linearGradient>
<linearGradient id="paint21_linear_291_597" x1="852.84" y1="276.006" x2="811.762" y2="293.643" gradientUnits="userSpaceOnUse">
<stop stop-color="#2C759E"/>
<stop offset="1" stop-color="#051042"/>
</linearGradient>
<linearGradient id="paint22_linear_291_597" x1="853.032" y1="278.211" x2="811.954" y2="295.848" gradientUnits="userSpaceOnUse">
<stop stop-color="#2C759E"/>
<stop offset="1" stop-color="#051042"/>
</linearGradient>
<linearGradient id="paint23_linear_291_597" x1="853.739" y1="279.85" x2="812.661" y2="297.486" gradientUnits="userSpaceOnUse">
<stop stop-color="#2C759E"/>
<stop offset="1" stop-color="#051042"/>
</linearGradient>
<linearGradient id="paint24_linear_291_597" x1="854.434" y1="280.937" x2="813.356" y2="298.573" gradientUnits="userSpaceOnUse">
<stop stop-color="#2C759E"/>
<stop offset="1" stop-color="#051042"/>
</linearGradient>
<linearGradient id="paint25_linear_291_597" x1="854.627" y1="283.141" x2="813.549" y2="300.778" gradientUnits="userSpaceOnUse">
<stop stop-color="#2C759E"/>
<stop offset="1" stop-color="#051042"/>
</linearGradient>
<linearGradient id="paint26_linear_291_597" x1="856.514" y1="285.593" x2="814.85" y2="303.481" gradientUnits="userSpaceOnUse">
<stop stop-color="#2C759E"/>
<stop offset="1" stop-color="#051042"/>
</linearGradient>
</defs>
</svg>
