<svg width="100" height="56" viewBox="0 0 100 56" fill="none" xmlns="http://www.w3.org/2000/svg">
<path d="M23.4137 8.198C23.335 8.59648 23.5139 9.05196 25.0573 9.91802C25.1086 9.94687 25.1607 9.97589 25.2134 10.0053L25.3081 11.1598L25.1934 11.0877C25.1464 11.0582 25.0846 11.0724 25.055 11.1194L24.9918 11.2201C24.9623 11.267 24.9764 11.3289 25.0234 11.3584L25.3405 11.5574L25.4361 12.723L25.3658 12.6787C25.3188 12.6492 25.2569 12.6634 25.2274 12.7104L25.1642 12.8111C25.1346 12.858 25.1488 12.9199 25.1958 12.9494L25.4685 13.1208L25.5452 14.0557L26.2085 14.472L26.6923 10.8008C27.5266 11.2385 28.3469 11.6539 28.9222 11.9421L28.9839 13.1569L29.425 13.4337L29.7344 12.2647L30.1061 12.349L29.8686 12.0509L30.787 11.2643L30.3459 10.9874L29.2252 11.4598C28.7156 11.067 27.9848 10.5086 27.2283 9.94739L30.3244 7.91628L29.6612 7.5L28.7858 7.83734L28.513 7.66599C28.4661 7.63646 28.4042 7.65062 28.3747 7.6976L28.3115 7.7983C28.2819 7.84528 28.2961 7.90712 28.3431 7.93666L28.4134 7.98088L27.3221 8.4013L27.0049 8.20214C26.958 8.1726 26.8961 8.18677 26.8666 8.23375L26.8034 8.33445C26.7738 8.38143 26.788 8.44327 26.835 8.47281L26.9495 8.54466L25.8686 8.96111C25.8193 8.92639 25.7705 8.89219 25.7223 8.85834C24.2715 7.84477 23.7836 7.88156 23.4588 8.1258C23.4355 8.14341 23.4193 8.16932 23.4137 8.198Z" fill="#076476"/>
<path d="M31.4676 15.8344C31.4301 17.0292 31.0128 18.2842 30.1116 19.3579C28.1857 21.6579 23.8561 23.63 16.9012 26.1085C9.50583 28.7426 1.66984 31.4572 1.22368 36.9814C0.437766 34.9893 0.000244141 32.8215 0.000244141 30.5531C0.000244141 20.8864 7.83607 13.0505 17.4999 13.0505C17.8483 13.0505 18.1908 13.0621 18.5333 13.0821C22.8773 13.3355 26.7923 15.1749 29.7171 18.0277C30.4023 17.5674 31.1653 16.8506 31.4676 15.8344Z" fill="#FABE12"/>
<path d="M13.9678 49.9704C2.14489 43.8703 7.39566 36.2993 19.2358 31.0083C6.70198 39.0198 9.85117 45.8192 13.9678 49.9704Z" fill="#FFC215"/>
<path d="M28.3499 22.9216C28.2462 23.0109 28.1369 23.0973 28.0274 23.1864C21.1214 28.9179 11.7856 31.0943 6.96662 36.5437C3.24156 40.7581 4.48797 43.7002 5.12136 44.8257C1.44812 41.6274 1.57197 36.4371 7.30344 32.8934C13.0351 29.3527 20.4363 27.5793 28.3499 22.9216Z" fill="#076476"/>
<path d="M31.4676 15.8344C31.4301 17.0292 31.0128 18.2842 30.1116 19.3579C28.1857 21.6579 23.8561 23.63 16.9012 26.1085C9.50583 28.7426 1.66984 31.4572 1.22368 36.9814C0.437766 34.9893 0.000244141 32.8215 0.000244141 30.5531C0.000244141 20.8864 7.83607 13.0505 17.4999 13.0505C17.8483 13.0505 18.1908 13.0621 18.5333 13.0821C10.6716 13.0965 3.11782 20.5784 3.89216 28.0774C6.02242 21.6809 21.7345 22.556 29.7171 18.0277C30.4023 17.5674 31.1653 16.8506 31.4676 15.8344Z" fill="#FFC215"/>
<path d="M33.4852 23.4299C35.1254 18.9264 33.869 14.8512 30.6269 12.8047C37.2908 20.522 25.6407 27.5417 16.956 34.7564C12.4383 38.5094 11.6694 44.7351 16.3547 47.1257C17.784 47.8549 19.4348 48.0181 21.0071 47.6982C28.9912 46.0739 35 39.0159 35 30.5524C35 28.0152 34.4573 25.6058 33.4852 23.4299Z" fill="#076476"/>
<path d="M33.4854 23.4294C30.9945 29.4273 19.2228 37.2836 17.8381 40.195C15.7066 44.6762 21.5498 46.516 26.1026 43.135C17.4705 42.6204 33.3665 35.3947 34.91 28.7797" fill="#0A7286"/>
<path d="M13.9678 49.9704C3.77422 41.936 9.80227 36.642 19.2358 31.0083C6.70197 39.0198 9.85115 45.8192 13.9678 49.9704Z" fill="#FABE12"/>
<path d="M28.0276 23.1868C21.1216 28.9182 11.7858 31.0946 6.96684 36.544C3.24178 40.7584 4.48819 43.7005 5.12158 44.826C-2.78333 33.1817 19.9355 29.6323 28.0276 23.1868Z" fill="#0A7286"/>
<path d="M74.613 16.5244H77.0463L79.1134 22.6605L81.1316 16.5244H83.4998L80.448 24.8415L79.9028 26.347C79.702 26.8516 79.5094 27.2368 79.325 27.5026C79.1459 27.7684 78.937 27.9827 78.6983 28.1455C78.465 28.3137 78.1748 28.4439 77.8276 28.5361C77.4858 28.6284 77.0978 28.6745 76.6638 28.6745C76.2244 28.6745 75.7931 28.6284 75.3699 28.5361L75.1664 26.7458C75.5245 26.8163 75.8473 26.8516 76.1348 26.8516C76.6665 26.8516 77.0599 26.6942 77.3149 26.3796C77.5699 26.0703 77.7652 25.6743 77.9008 25.1914L74.613 16.5244Z" fill="#043C47"/>
<path d="M71.3904 25.167H69.1036V16.5244H71.2277V17.7533C71.5912 17.1727 71.9167 16.7903 72.2042 16.6058C72.4972 16.4213 72.8281 16.3291 73.1971 16.3291C73.7179 16.3291 74.2197 16.4729 74.7026 16.7604L73.9946 18.7542C73.6094 18.5047 73.2513 18.3799 72.9204 18.3799C72.6003 18.3799 72.329 18.4694 72.1066 18.6484C71.8841 18.822 71.7078 19.1394 71.5776 19.6006C71.4528 20.0617 71.3904 21.0275 71.3904 22.4977V25.167Z" fill="#043C47"/>
<path d="M64.9288 22.4163L67.2074 22.7988C66.9145 23.6343 66.4506 24.2718 65.8158 24.7113C65.1865 25.1453 64.3971 25.3623 63.4477 25.3623C61.9449 25.3623 60.8327 24.8713 60.1111 23.8893C59.5414 23.1026 59.2566 22.1098 59.2566 20.9108C59.2566 19.4785 59.6309 18.3582 60.3796 17.5498C61.1283 16.736 62.0751 16.3291 63.2198 16.3291C64.5056 16.3291 65.5202 16.755 66.2634 17.6068C67.0067 18.4531 67.3621 19.7525 67.3295 21.5049H61.6003C61.6166 22.1831 61.8011 22.712 62.1537 23.0918C62.5064 23.4661 62.9458 23.6533 63.4721 23.6533C63.8302 23.6533 64.1313 23.5557 64.3754 23.3604C64.6195 23.165 64.804 22.8504 64.9288 22.4163ZM65.059 20.1051C65.0427 19.4433 64.8718 18.9414 64.5463 18.5996C64.2208 18.2524 63.8247 18.0788 63.3582 18.0788C62.859 18.0788 62.4467 18.2605 62.1212 18.624C61.7957 18.9875 61.6356 19.4812 61.641 20.1051H65.059Z" fill="#043C47"/>
<path d="M53.0229 25.167L49.5398 16.5244H51.9405L53.5681 20.9352L54.0401 22.4082C54.1649 22.0339 54.2436 21.787 54.2761 21.6676C54.3521 21.4235 54.4335 21.1794 54.5203 20.9352L56.1641 16.5244H58.516L55.0818 25.167H53.0229Z" fill="#043C47"/>
<path d="M39.5461 25.1669V13.2366H48.3922V15.2548H41.955V17.8997H47.9446V19.9097H41.955V23.1568H48.62V25.1669H39.5461Z" fill="#043C47"/>
<path d="M83.1173 45.8334V33.9031H85.4041V45.8334H83.1173Z" fill="#043C47"/>
<path d="M88 45.8334V33.9031H90.2868V45.8334H88Z" fill="#043C47"/>
<path d="M78.8448 43.0828L81.1235 43.4653C80.8305 44.3008 80.3666 44.9383 79.7319 45.3778C79.1025 45.8118 78.3131 46.0288 77.3637 46.0288C75.8609 46.0288 74.7487 45.5378 74.0271 44.5558C73.4574 43.7692 73.1726 42.7763 73.1726 41.5773C73.1726 40.145 73.547 39.0247 74.2957 38.2163C75.0444 37.4025 75.9911 36.9956 77.1358 36.9956C78.4216 36.9956 79.4362 37.4215 80.1794 38.2733C80.9227 39.1196 81.2781 40.419 81.2455 42.1714H75.5164C75.5326 42.8496 75.7171 43.3785 76.0697 43.7583C76.4224 44.1326 76.8618 44.3198 77.3881 44.3198C77.7462 44.3198 78.0473 44.2222 78.2914 44.0269C78.5356 43.8315 78.72 43.5169 78.8448 43.0828ZM78.975 40.7716C78.9587 40.1098 78.7878 39.6079 78.4623 39.2661C78.1368 38.9189 77.7407 38.7453 77.2742 38.7453C76.775 38.7453 76.3627 38.927 76.0372 39.2905C75.7117 39.654 75.5516 40.1477 75.557 40.7716H78.975Z" fill="#043C47"/>
<path d="M66.9389 45.8335L63.4558 37.1909H65.8565L67.4841 41.6017L67.9561 43.0747C68.0809 42.7004 68.1596 42.4535 68.1921 42.3341C68.2681 42.09 68.3495 41.8459 68.4363 41.6017L70.0802 37.1909H72.432L68.9978 45.8335H66.9389Z" fill="#043C47"/>
<path d="M56.9942 39.8276L54.919 39.4533C55.1523 38.6178 55.5538 37.9993 56.1234 37.5978C56.6931 37.1963 57.5394 36.9956 58.6625 36.9956C59.6824 36.9956 60.442 37.1177 60.9411 37.3618C61.4403 37.6005 61.7902 37.9071 61.9909 38.2814C62.1971 38.6503 62.3002 39.3312 62.3002 40.3241L62.2758 42.9933C62.2758 43.7529 62.311 44.3144 62.3816 44.6779C62.4575 45.036 62.5959 45.4212 62.7966 45.8335H60.5342C60.4745 45.6816 60.4013 45.4564 60.3145 45.158C60.2765 45.0224 60.2494 44.9329 60.2331 44.8895C59.8425 45.2693 59.4247 45.5541 58.9799 45.744C58.535 45.9339 58.0603 46.0288 57.5557 46.0288C56.6659 46.0288 55.9634 45.7874 55.448 45.3045C54.938 44.8217 54.683 44.2113 54.683 43.4735C54.683 42.9852 54.7996 42.5512 55.0329 42.1714C55.2662 41.7862 55.5917 41.4932 56.0095 41.2925C56.4327 41.0863 57.0403 40.9073 57.8324 40.7554C58.9012 40.5546 59.6418 40.3675 60.0541 40.1938V39.966C60.0541 39.5265 59.9456 39.2146 59.7286 39.0301C59.5115 38.8402 59.1019 38.7453 58.4997 38.7453C58.0928 38.7453 57.7754 38.8267 57.5476 38.9894C57.3197 39.1468 57.1352 39.4262 56.9942 39.8276ZM60.0541 41.6831C59.7611 41.7808 59.2972 41.8974 58.6625 42.033C58.0277 42.1687 57.6127 42.3016 57.4174 42.4318C57.119 42.6434 56.9698 42.9119 56.9698 43.2375C56.9698 43.5576 57.0891 43.8343 57.3278 44.0675C57.5666 44.3008 57.8704 44.4175 58.2393 44.4175C58.6516 44.4175 59.045 44.2818 59.4193 44.0106C59.696 43.8044 59.8778 43.5521 59.9646 43.2537C60.0242 43.0584 60.0541 42.6868 60.0541 42.1388V41.6831Z" fill="#043C47"/>
<path d="M50.9803 45.8335H48.6935V37.1909H50.8175V38.4198C51.181 37.8392 51.5065 37.4568 51.7941 37.2723C52.087 37.0878 52.418 36.9956 52.7869 36.9956C53.3077 36.9956 53.8096 37.1394 54.2924 37.4269L53.5844 39.4207C53.1992 39.1712 52.8412 39.0464 52.5102 39.0464C52.1901 39.0464 51.9189 39.1359 51.6964 39.3149C51.474 39.4886 51.2976 39.8059 51.1674 40.2671C51.0427 40.7282 50.9803 41.694 50.9803 43.1642V45.8335Z" fill="#043C47"/>
<path d="M42.2317 45.8334V35.9213H38.6917V33.9031H48.1724V35.9213H44.6405V45.8334H42.2317Z" fill="#043C47"/>
</svg>
