<svg width="24" height="24" viewBox="0 0 24 24" fill="none" xmlns="http://www.w3.org/2000/svg">
<circle cx="12" cy="12" r="12" fill="#E6F0F1"/>
<path d="M12.5997 6.16699C13.2562 6.16808 13.5889 6.17155 13.8763 6.18011L13.9896 6.18381C14.1204 6.18846 14.2494 6.19429 14.405 6.20158C15.0257 6.23027 15.4491 6.32846 15.821 6.47283C16.2055 6.6211 16.5302 6.82138 16.8544 7.14562C17.1782 7.46985 17.3785 7.79554 17.5273 8.17908C17.6711 8.55047 17.7693 8.97437 17.7985 9.59513C17.8054 9.75068 17.811 9.87972 17.8157 10.0105L17.8193 10.1237C17.8278 10.4112 17.8318 10.7439 17.833 11.4004L17.8334 11.8353C17.8335 11.8885 17.8335 11.9433 17.8335 11.9999L17.8334 12.1645L17.8331 12.5994C17.832 13.2559 17.8285 13.5887 17.82 13.8761L17.8162 13.9893C17.8116 14.1201 17.8058 14.2492 17.7985 14.4047C17.7698 15.0255 17.6711 15.4489 17.5273 15.8207C17.379 16.2053 17.1782 16.53 16.8544 16.8542C16.5302 17.178 16.204 17.3782 15.821 17.527C15.4491 17.6709 15.0257 17.7691 14.405 17.7982C14.2494 17.8052 14.1204 17.8108 13.9896 17.8154L13.8763 17.8191C13.5889 17.8276 13.2562 17.8315 12.5997 17.8328L12.1647 17.8332C12.1116 17.8332 12.0568 17.8332 12.0002 17.8332H11.8356L11.4006 17.8328C10.7441 17.8318 10.4114 17.8283 10.124 17.8197L10.0108 17.816C9.87995 17.8114 9.75092 17.8055 9.59537 17.7982C8.9746 17.7696 8.55169 17.6709 8.17933 17.527C7.7953 17.3788 7.47009 17.178 7.14585 16.8542C6.82162 16.53 6.62183 16.2038 6.47308 15.8207C6.3287 15.4489 6.23099 15.0255 6.20183 14.4047C6.1949 14.2492 6.18925 14.1201 6.18467 13.9893L6.181 13.8761C6.17246 13.5887 6.16857 13.2559 6.16731 12.5994L6.16724 11.4004C6.16832 10.7439 6.17179 10.4112 6.18035 10.1237L6.18405 10.0105C6.1887 9.87972 6.19454 9.75068 6.20183 9.59513C6.2305 8.97388 6.3287 8.55096 6.47308 8.17908C6.62134 7.79506 6.82162 7.46985 7.14585 7.14562C7.47009 6.82138 7.79579 6.62158 8.17933 6.47283C8.5512 6.32846 8.97412 6.23075 9.59537 6.20158C9.75092 6.19466 9.87995 6.18901 10.0108 6.18443L10.124 6.18076C10.4114 6.17222 10.7441 6.16833 11.4006 6.16707L12.5997 6.16699ZM12.0002 9.08325C10.3885 9.08325 9.08349 10.3896 9.08349 11.9999C9.08349 13.6116 10.3899 14.9166 12.0002 14.9166C13.6119 14.9166 14.9168 13.6102 14.9168 11.9999C14.9168 10.3882 13.6104 9.08325 12.0002 9.08325ZM12.0002 10.2499C12.9667 10.2499 13.7502 11.0331 13.7502 11.9999C13.7502 12.9664 12.9669 13.7499 12.0002 13.7499C11.0336 13.7499 10.2502 12.9667 10.2502 11.9999C10.2502 11.0334 11.0334 10.2499 12.0002 10.2499ZM15.0627 8.20825C14.6606 8.20825 14.3335 8.53486 14.3335 8.93692C14.3335 9.33898 14.6601 9.6661 15.0627 9.6661C15.4647 9.6661 15.7918 9.33949 15.7918 8.93692C15.7918 8.53486 15.4642 8.20775 15.0627 8.20825Z" fill="#043741"/>
</svg>
