<svg width="24" height="24" viewBox="0 0 24 24" fill="none" xmlns="http://www.w3.org/2000/svg">
<circle cx="12" cy="12" r="12" fill="#E6F0F1"/>
<path d="M9.04857 7.91671C9.04836 8.39172 8.76017 8.81918 8.31991 8.99751C7.87964 9.17584 7.37522 9.06944 7.04448 8.72849C6.71375 8.38752 6.62276 7.88009 6.81442 7.44546C7.00608 7.01083 7.44211 6.73579 7.91691 6.75004C8.54753 6.76897 9.04886 7.2858 9.04857 7.91671ZM9.08357 9.94671H6.75024V17.25H9.08357V9.94671ZM12.7703 9.94671H10.4486V17.25H12.7469V13.4175C12.7469 11.2825 15.5294 11.0842 15.5294 13.4175V17.25H17.8336V12.6242C17.8336 9.02504 13.7153 9.15921 12.7469 10.9267L12.7703 9.94671Z" fill="#043741"/>
</svg>
