<svg width="450" height="333" viewBox="0 0 450 333" fill="none" xmlns="http://www.w3.org/2000/svg">
<path d="M404.911 309.626H375.101V309.851H404.911V309.626Z" fill="#EBEBEB"/>
<path d="M298.098 312.069H290.274V312.294H298.098V312.069Z" fill="#EBEBEB"/>
<path d="M374.2 301.269H356.927V301.494H374.2V301.269Z" fill="#EBEBEB"/>
<path d="M86.0868 302.78H47.2131V303.005H86.0868V302.78Z" fill="#EBEBEB"/>
<path d="M99.8001 302.78H94.1004V303.005H99.8001V302.78Z" fill="#EBEBEB"/>
<path d="M202.632 306.581H118.324V306.806H202.632V306.581Z" fill="#EBEBEB"/>
<path d="M214.561 255.001H40.7718C37.9395 255.001 35.6346 252.696 35.6346 249.864V5.57519C35.6346 2.74289 37.9395 0.437988 40.7718 0.437988H214.561C217.392 0.437988 219.697 2.74289 219.697 5.57519V249.864C219.697 252.696 217.392 255.001 214.561 255.001ZM40.7718 0.663888C38.0628 0.663888 35.8596 2.86709 35.8596 5.57609V249.865C35.8596 252.574 38.0628 254.777 40.7718 254.777H214.561C217.269 254.777 219.472 252.574 219.472 249.865V5.57519C219.472 2.86709 217.269 0.662988 214.561 0.662988L40.7718 0.663888Z" fill="#EBEBEB"/>
<path d="M409.228 255.001H235.439C232.608 255.001 230.303 252.696 230.303 249.864V5.57519C230.303 2.74289 232.608 0.437988 235.439 0.437988H409.228C412.061 0.437988 414.365 2.74289 414.365 5.57519V249.864C414.365 252.696 412.061 255.001 409.228 255.001ZM235.439 0.663888C232.731 0.663888 230.528 2.86709 230.528 5.57609V249.865C230.528 252.574 232.731 254.777 235.439 254.777H409.228C411.937 254.777 414.14 252.574 414.14 249.865V5.57519C414.14 2.86709 411.937 0.662988 409.228 0.662988L235.439 0.663888Z" fill="#EBEBEB"/>
<path d="M450 295.14H0V295.365H450V295.14Z" fill="#EBEBEB"/>
<path d="M365.266 129.147L358.126 51.4424L254.211 60.9907L261.351 138.696L365.266 129.147Z" fill="#E6E6E6"/>
<path opacity="0.9" d="M352.658 58.0153L260.781 66.4575L266.815 132.125L358.692 123.683L352.658 58.0153Z" fill="#B2CFD5"/>
<path d="M310.405 70.1704L310.952 76.1194L275.261 79.399L277.064 99.0208L278.96 119.656L296.372 118.056L324.324 115.487L325.614 115.368L344.96 113.591L344.654 110.259L339.54 110.729C339.618 108.365 341.302 106.291 343.673 105.761L344.229 105.636L343.064 92.9557L339.616 93.2725L337.266 67.7017L310.405 70.1704ZM280.132 118.248L278.474 100.193L282.467 99.8254C283.389 102.744 286.239 104.682 289.319 104.398L289.964 104.339L289.49 99.1801L293.305 98.8291L294.964 116.885L280.132 118.248ZM296.254 116.767L294.476 97.4215L288.082 98.0092L288.553 103.127C286.187 103.05 284.113 101.364 283.583 98.9893L283.459 98.4331L278.355 98.902L276.67 80.569L311.071 77.4082L312.873 97.03L315.809 96.76L320.433 96.3352L322.547 96.1408L324.206 114.197L296.254 116.767ZM315.69 95.4721L315.332 91.5715C317.482 91.6399 319.371 93.0358 320.102 95.0671L315.69 95.4721ZM341.893 94.3651L342.838 104.648C339.923 105.571 337.987 108.419 338.27 111.497L338.329 112.143L343.483 111.669L343.553 112.422L325.497 114.081L323.837 96.0256L339.736 94.5649L341.893 94.3651ZM336.095 69.1102L338.326 93.3913L323.717 94.7341L322.428 94.8529L321.438 94.9438C320.54 91.981 317.683 90.0145 314.564 90.3007L313.92 90.3601L314.401 95.5909L314.044 95.6233L312.242 76.0015L311.813 71.3422L336.095 69.1102Z" fill="#E0E0E0"/>
<path d="M164.817 135.176L180.348 57.1016L75.939 36.3326L60.4084 114.407L164.817 135.176Z" fill="#E6E6E6"/>
<path opacity="0.9" d="M80.7899 43.5813L67.665 109.562L159.979 127.925L173.104 61.9444L80.7899 43.5813Z" fill="#B2CFD5"/>
<path d="M128.247 61.5912L127.058 67.568L91.1988 60.4355L87.2775 80.151L83.1537 100.884L100.647 104.364L128.731 109.95L130.027 110.207L149.465 114.074L150.131 110.726L144.993 109.704C145.753 107.415 148.001 105.874 150.475 106.042L151.054 106.081L153.589 93.3405L150.124 92.651L155.235 66.9587L128.247 61.5912ZM84.7071 99.8456L88.3161 81.7043L92.3283 82.5026C92.385 85.6247 94.6098 88.3455 97.7058 88.9611L98.3538 89.0897L99.3852 83.9067L103.219 84.669L99.6102 102.81L84.7071 99.8456ZM100.904 103.068L104.771 83.6303L98.3457 82.3524L97.3224 87.495C95.031 86.7336 93.4902 84.4845 93.6603 82.0077L93.6999 81.428L88.5726 80.4083L92.2365 61.989L126.8 68.8641L122.879 88.5794L125.828 89.1663L130.474 90.0905L132.597 90.5127L128.988 108.654L100.904 103.068ZM126.086 87.8702L126.866 83.9508C128.949 84.6411 130.392 86.5526 130.519 88.7522L126.086 87.8702ZM152.035 94.379L149.98 104.71C146.862 104.769 144.143 106.993 143.527 110.087L143.399 110.735L148.577 111.765L148.427 112.521L130.286 108.912L133.895 90.771L149.868 93.948L152.035 94.379ZM153.682 67.9974L148.829 92.3936L134.151 89.474L132.855 89.2167L131.861 89.0186C131.841 85.8605 129.617 83.1093 126.483 82.4865L125.835 82.3577L124.79 87.6129L124.433 87.5417L128.354 67.8264L129.286 63.1454L153.682 67.9974Z" fill="#E0E0E0"/>
<path d="M269.206 47.3117H260.407C255.298 47.3117 251.141 43.1555 251.141 38.0462V29.2469C251.141 24.1376 255.298 19.9814 260.407 19.9814H269.206C274.315 19.9814 278.472 24.1376 278.472 29.2469V38.0462C278.472 43.1555 274.315 47.3117 269.206 47.3117ZM260.407 22.6814C256.787 22.6814 253.841 25.6262 253.841 29.2469V38.0462C253.841 41.666 256.787 44.6117 260.407 44.6117H269.206C272.826 44.6117 275.772 41.6669 275.772 38.0462V29.2469C275.772 25.6271 272.827 22.6814 269.206 22.6814H260.407Z" fill="#F0F0F0"/>
<path d="M261.146 39.3612L248.315 26.5308L252.132 22.7121L261.146 31.7247L277.48 15.3906L281.298 19.2093L261.146 39.3612Z" fill="#E0E0E0"/>
<path d="M80.244 165.155H73.4625C69.525 165.155 66.3219 161.952 66.3219 158.014V151.233C66.3219 147.295 69.525 144.092 73.4625 144.092H80.244C84.1815 144.092 87.3846 147.295 87.3846 151.233V158.014C87.3837 161.953 84.1815 165.155 80.244 165.155ZM73.4625 146.175C70.6725 146.175 68.4027 148.445 68.4027 151.235V158.016C68.4027 160.806 70.6725 163.076 73.4625 163.076H80.244C83.034 163.076 85.3038 160.806 85.3038 158.016V151.235C85.3038 148.445 83.034 146.175 80.244 146.175H73.4625Z" fill="#F0F0F0"/>
<path d="M74.0322 159.028L64.1439 149.141L67.0869 146.198L74.0322 153.143L86.6196 140.556L89.5617 143.499L74.0322 159.028Z" fill="#E0E0E0"/>
<path d="M387.898 220.381H381.117C377.179 220.381 373.976 217.177 373.976 213.24V206.458C373.976 202.521 377.179 199.318 381.117 199.318H387.898C391.836 199.318 395.039 202.521 395.039 206.458V213.24C395.039 217.177 391.836 220.381 387.898 220.381ZM381.117 201.4C378.327 201.4 376.057 203.669 376.057 206.459V213.241C376.057 216.031 378.327 218.301 381.117 218.301H387.898C390.688 218.301 392.958 216.031 392.958 213.241V206.459C392.958 203.669 390.688 201.4 387.898 201.4H381.117Z" fill="#F0F0F0"/>
<path d="M381.686 214.254L371.799 204.366L374.741 201.423L381.686 208.369L394.274 195.781L397.217 198.724L381.686 214.254Z" fill="#E0E0E0"/>
<path d="M225 332.324C321.374 332.324 399.5 327.761 399.5 322.133C399.5 316.505 321.374 311.942 225 311.942C128.626 311.942 50.4999 316.505 50.4999 322.133C50.4999 327.761 128.626 332.324 225 332.324Z" fill="#054754"/>
<path d="M312.699 130.997C313.996 127.435 315.607 124.215 317.345 121.09C318.208 119.526 319.132 118.009 320.073 116.506C321.025 114.991 321.961 113.547 323.047 112.032C324.426 110.113 327.091 109.603 329.081 110.917C331.121 112.263 331.682 115.008 330.336 117.047L330.297 117.105C329.433 118.414 328.501 119.848 327.627 121.239C326.748 122.645 325.903 124.069 325.067 125.487C323.424 128.33 321.863 131.219 320.681 134.06C320.318 134.93 320.003 135.801 319.754 136.627H311.223C311.531 134.531 312.088 132.732 312.699 130.997Z" fill="#B55B52"/>
<path d="M330.143 102.57C321.542 104.474 314.258 123.021 314.258 123.021L324.194 128.654C324.194 128.654 328.365 124.441 331.365 118.048C333.526 113.445 337.819 100.871 330.143 102.57Z" fill="#5997A3"/>
<path opacity="0.2" d="M333.31 112.991C332.691 114.967 331.951 116.801 331.365 118.05C328.365 124.442 324.194 128.655 324.194 128.655L322.016 127.42C325.421 121.226 325.389 113.316 325.389 113.316L332.805 112.032L333.31 112.991Z" fill="black"/>
<path d="M319.447 190.052L319.37 190.039C318.007 189.801 317.094 188.503 317.333 187.14L320.207 170.675C320.404 169.553 321.472 168.802 322.594 168.998L323.108 169.088C323.927 169.232 324.475 170.012 324.332 170.831L321.189 188.829C321.046 189.647 320.266 190.195 319.447 190.052Z" fill="#263238"/>
<path opacity="0.1" d="M319.447 190.052L319.37 190.039C318.007 189.801 317.094 188.503 317.333 187.14L320.207 170.675C320.404 169.553 321.472 168.802 322.594 168.998L323.108 169.088C323.927 169.232 324.475 170.012 324.332 170.831L321.189 188.829C321.046 189.647 320.266 190.195 319.447 190.052Z" fill="white"/>
<path d="M323.366 315.776L316.658 315.696L316.097 300.092L324.968 300.232L323.366 315.776Z" fill="#B55B52"/>
<path opacity="0.2" d="M316.099 300.099L316.425 309.219L324.034 309.321L324.972 300.237L316.099 300.099Z" fill="black"/>
<path d="M316.514 313.413L323.835 313.528C324.11 313.533 324.324 313.727 324.353 313.996L324.978 319.986C325.043 320.607 324.506 321.185 323.874 321.165C321.239 321.078 317.44 320.863 314.121 320.811C310.239 320.75 310.617 320.909 306.066 320.838C303.313 320.795 302.876 317.996 304.058 317.762C309.437 316.695 309.979 316.639 314.839 313.911C315.365 313.614 315.935 313.404 316.514 313.413Z" fill="#263238"/>
<path d="M315.296 314.012C315.352 313.994 315.394 313.945 315.404 313.886C315.415 313.819 315.383 313.753 315.323 313.721C315.021 313.558 312.347 312.148 311.523 312.59C311.364 312.675 311.27 312.82 311.253 313.009C311.224 313.326 311.319 313.588 311.537 313.788C312.261 314.451 314.19 314.217 315.276 314.018C315.282 314.016 315.289 314.014 315.296 314.012ZM311.73 312.844C312.24 312.677 313.693 313.258 314.748 313.782C313.261 314.005 312.157 313.924 311.75 313.551C311.607 313.42 311.548 313.252 311.567 313.036C311.576 312.953 311.606 312.903 311.671 312.868C311.69 312.86 311.71 312.852 311.73 312.844Z" fill="#5997A3"/>
<path d="M315.296 314.012C315.311 314.007 315.324 314 315.338 313.991C315.384 313.958 315.41 313.904 315.406 313.848C315.4 313.771 315.253 311.96 314.411 311.245C314.155 311.027 313.86 310.931 313.535 310.959C313.097 310.997 312.966 311.216 312.934 311.394C312.798 312.152 314.376 313.629 315.18 314.005C315.216 314.022 315.257 314.024 315.296 314.012ZM313.397 311.306C313.439 311.293 313.492 311.282 313.56 311.276C313.801 311.255 314.012 311.324 314.204 311.488C314.757 311.958 314.976 313.043 315.052 313.572C314.234 313.062 313.164 311.904 313.246 311.449C313.251 311.421 313.265 311.349 313.397 311.306Z" fill="#5997A3"/>
<path d="M331.008 241.8C340.995 207.522 350.302 183.716 348.108 166.712L324.421 166.995C324.421 166.995 311.881 222.555 312.813 242.661C313.78 263.566 315.015 303.291 315.015 303.291L325.815 303.445C325.815 303.445 333.82 265.15 331.008 241.8Z" fill="#263238"/>
<path opacity="0.2" d="M335.025 227.985C340.317 210.508 345.061 198.359 347.795 188.178C332.103 193.707 332.413 212.849 335.025 227.985Z" fill="black"/>
<path d="M313.492 300.89L314.148 305.522L326.028 305.735L326.735 301.357L313.492 300.89Z" fill="#263238"/>
<path opacity="0.3" d="M313.492 300.89L314.148 305.522L326.028 305.735L326.735 301.357L313.492 300.89Z" fill="black"/>
<path d="M369.166 315.776L362.443 315.694L358.949 300.092L367.591 300.228L369.166 315.776Z" fill="#B55B52"/>
<path opacity="0.2" d="M358.951 300.099L360.968 309.107L368.504 309.209L367.596 300.234L358.951 300.099Z" fill="black"/>
<path d="M361.933 314.32L369.254 314.172C369.528 314.167 369.75 314.353 369.788 314.622L370.641 320.584C370.729 321.202 370.214 321.8 369.582 321.802C366.945 321.81 366.109 321.624 362.789 321.692C358.908 321.77 360.704 321.866 356.153 321.957C353.4 322.013 352.86 319.244 354.029 318.955C357.728 318.041 358.654 316.521 360.277 314.878C360.703 314.448 361.355 314.332 361.933 314.32Z" fill="#263238"/>
<path d="M363.278 314.781C363.337 314.781 363.392 314.747 363.419 314.693C363.45 314.633 363.439 314.56 363.392 314.512C363.154 314.263 361.046 312.094 360.127 312.259C359.95 312.291 359.816 312.4 359.741 312.574C359.615 312.866 359.626 313.145 359.771 313.403C360.256 314.259 362.163 314.632 363.256 314.78C363.263 314.781 363.271 314.781 363.278 314.781ZM360.246 312.567C360.782 312.565 361.984 313.567 362.827 314.394C361.345 314.146 360.319 313.727 360.048 313.246C359.952 313.077 359.947 312.899 360.032 312.7C360.066 312.623 360.11 312.585 360.183 312.572C360.202 312.569 360.224 312.567 360.246 312.567Z" fill="#5997A3"/>
<path d="M363.278 314.781C363.293 314.781 363.308 314.779 363.323 314.775C363.377 314.758 363.418 314.714 363.432 314.659C363.45 314.585 363.866 312.815 363.287 311.875C363.109 311.588 362.859 311.405 362.542 311.331C362.113 311.231 361.921 311.4 361.837 311.559C361.473 312.238 362.521 314.131 363.169 314.739C363.199 314.766 363.237 314.781 363.278 314.781ZM362.304 311.618C362.347 311.618 362.401 311.625 362.469 311.64C362.704 311.695 362.884 311.826 363.016 312.041C363.397 312.66 363.271 313.759 363.181 314.287C362.56 313.549 361.899 312.115 362.117 311.708C362.13 311.683 362.164 311.619 362.304 311.618Z" fill="#5997A3"/>
<path d="M361.511 242.878C365.189 208.601 368.237 183.335 362.914 166.333L338.233 166.995C338.233 166.995 338.842 223.634 343.474 243.74C348.289 264.645 358.26 303.292 358.26 303.292L369.088 303.446C369.088 303.446 368.621 266.229 361.511 242.878Z" fill="#263238"/>
<path d="M356.682 300.891L357.39 305.523L369.53 305.735L370.216 301.358L356.682 300.891Z" fill="#263238"/>
<path opacity="0.3" d="M356.682 300.891L357.39 305.523L369.53 305.735L370.216 301.358L356.682 300.891Z" fill="black"/>
<path d="M333.6 101.536C340.859 100.657 348.434 101.047 356.235 102.343C360.394 103.033 363.637 106.275 364.237 110.417C365.629 120.02 367.799 138.924 363.874 168.429C360.317 169.554 349.847 169.475 341.527 168.876C340.622 168.812 338.406 166.704 338.406 166.704C338.406 166.704 336.415 168.422 335.263 168.284C329.751 167.624 325.358 166.677 324.346 165.599C322.09 160.238 320.679 146.645 326.662 134.482C326.727 127.198 325.286 119.002 325.166 111.186C325.091 106.298 328.71 102.128 333.6 101.536Z" fill="#5997A3"/>
<path d="M346.337 89.1133C347.008 94.1092 348.024 99.9016 351.553 102.736C350.234 106.188 346.934 109.28 342.071 109.534C336.726 109.813 337.55 105.545 338.435 103.285C340.706 100.737 339.614 97.9009 339.042 95.8858L346.337 89.1133Z" fill="#B55B52"/>
<path opacity="0.2" d="M344.858 91.5544C344.824 91.2367 344.774 90.919 344.723 90.6094L339.043 95.8888C339.386 97.0939 339.913 98.5996 339.795 100.156C342.616 98.2648 345.2 94.5829 344.858 91.5544Z" fill="black"/>
<path d="M348.207 81.8541C347.366 88.4574 347.209 92.3688 343.634 95.5242C338.256 100.271 330.26 96.624 329.109 89.8839C328.073 83.8179 329.623 74.0376 336.294 71.8803C342.865 69.7554 349.048 75.2508 348.207 81.8541Z" fill="#B55B52"/>
<path d="M337.631 85.5955C337.596 86.1355 337.281 86.5522 336.928 86.5261C336.574 86.5 336.316 86.041 336.352 85.5001C336.387 84.9601 336.702 84.5434 337.055 84.5695C337.408 84.5956 337.666 85.0555 337.631 85.5955Z" fill="#263238"/>
<path d="M330.879 85.303C330.844 85.843 330.529 86.2597 330.175 86.2336C329.821 86.2075 329.564 85.7485 329.599 85.2076C329.634 84.6676 329.949 84.2509 330.303 84.277C330.656 84.3031 330.914 84.7621 330.879 85.303Z" fill="#263238"/>
<path d="M339.493 85.7549H334.49C334.084 85.7549 333.758 86.0672 333.708 86.4614C333.025 86.1878 332.493 86.2985 332.169 86.4542C332.117 86.0636 331.793 85.7549 331.389 85.7549H327.577C327.136 85.7549 326.776 86.1158 326.776 86.5559V88.8734C326.776 89.3144 327.136 89.6744 327.577 89.6744H331.389C331.83 89.6744 332.19 89.3135 332.19 88.8734V86.9843C332.353 86.8619 332.883 86.5649 333.688 86.96V88.8734C333.688 89.3144 334.049 89.6744 334.489 89.6744H339.492C339.933 89.6744 340.293 89.3135 340.293 88.8734V86.5559C340.294 86.1149 339.934 85.7549 339.493 85.7549ZM331.722 88.8734C331.722 89.0543 331.569 89.2064 331.389 89.2064H327.577C327.393 89.2064 327.244 89.057 327.244 88.8734V86.5559C327.244 86.3723 327.393 86.2229 327.577 86.2229H331.389C331.57 86.2229 331.722 86.3759 331.722 86.5559V88.8734ZM339.826 88.8734C339.826 89.057 339.676 89.2064 339.493 89.2064H334.49C334.307 89.2064 334.157 89.057 334.157 88.8734V86.5559C334.157 86.3723 334.307 86.2229 334.49 86.2229H339.493C339.673 86.2229 339.826 86.3759 339.826 86.5559V88.8734Z" fill="#263238"/>
<path d="M332.941 86.7534C332.941 86.7534 331.577 89.2275 330.282 90.3345C330.988 91.1922 332.396 91.0365 332.396 91.0365L332.941 86.7534Z" fill="#A02724"/>
<path d="M338.936 82.6319C338.988 82.6193 339.036 82.5932 339.077 82.5545C339.204 82.4339 339.207 82.2322 339.085 82.1053C337.86 80.8309 336.413 81.0802 336.352 81.091C336.179 81.1225 336.065 81.2882 336.099 81.461C336.132 81.6329 336.298 81.7472 336.47 81.7166C336.518 81.7085 337.649 81.5267 338.626 82.5428C338.71 82.6292 338.829 82.6589 338.936 82.6319Z" fill="#263238"/>
<path d="M328.826 82.5515C328.927 82.5704 329.035 82.5407 329.112 82.4606C330.083 81.4544 331.211 81.6524 331.258 81.6614C331.43 81.6938 331.596 81.5804 331.627 81.4085C331.659 81.2366 331.546 81.0701 331.375 81.0359C331.312 81.0251 329.87 80.7551 328.653 82.0151C328.531 82.1411 328.536 82.3427 328.662 82.4651C328.71 82.5119 328.766 82.5398 328.826 82.5515Z" fill="#263238"/>
<path d="M349.678 100.261C349.838 101.794 348.005 107.224 341.591 109.547C344.066 109.569 345.146 112.706 345.146 112.706C345.146 112.706 353.652 108.175 352.642 102.701C351.978 100.156 349.678 100.261 349.678 100.261Z" fill="#5997A3"/>
<path d="M339.603 100.68C339.76 102.178 338.023 105.327 341.59 109.547C339.115 109.569 337.631 112.032 337.631 112.032C337.631 112.032 334.339 107.338 336.929 101.914C338.256 100.762 339.603 100.68 339.603 100.68Z" fill="#5997A3"/>
<g opacity="0.5">
<path d="M349.678 100.261C349.838 101.794 348.005 107.224 341.591 109.547C344.066 109.569 345.146 112.706 345.146 112.706C345.146 112.706 353.652 108.175 352.642 102.701C351.978 100.156 349.678 100.261 349.678 100.261Z" fill="white"/>
<path d="M339.603 100.68C339.76 102.178 338.023 105.327 341.59 109.547C339.115 109.569 337.631 112.032 337.631 112.032C337.631 112.032 334.339 107.338 336.929 101.914C338.256 100.762 339.603 100.68 339.603 100.68Z" fill="white"/>
</g>
<path d="M322.78 170.898L365.117 172.035V166.712L323.419 165.593L322.78 170.898Z" fill="#263238"/>
<path opacity="0.3" d="M322.78 170.898L365.117 172.035V166.712L323.419 165.593L322.78 170.898Z" fill="white"/>
<path d="M352.318 170.051L353.695 191.826L364.917 191.117C366.389 191.024 367.508 189.755 367.414 188.282L366.346 171.368C366.269 170.155 365.224 169.235 364.012 169.311L352.318 170.051Z" fill="#263238"/>
<path opacity="0.3" d="M352.318 170.051L353.695 191.826L364.917 191.117C366.389 191.024 367.508 189.755 367.414 188.282L366.346 171.368C366.269 170.155 365.224 169.235 364.012 169.311L352.318 170.051Z" fill="white"/>
<path opacity="0.2" d="M353.694 191.827L355.025 191.743C356.405 191.656 357.455 190.466 357.367 189.084L356.28 171.867C356.208 170.731 355.229 169.867 354.091 169.939L352.318 170.05L353.694 191.827Z" fill="black"/>
<path opacity="0.2" d="M356.332 172.687L356.288 172.004C356.212 170.792 355.167 169.871 353.955 169.948L364.012 169.313C365.224 169.236 366.269 170.157 366.346 171.369L366.389 172.051L366.493 173.712C366.56 174.768 365.758 175.678 364.702 175.745L358.47 176.138C357.413 176.205 356.503 175.403 356.437 174.346L356.332 172.687Z" fill="white"/>
<path d="M360.662 173.963C360.688 174.38 361.048 174.696 361.465 174.67C361.882 174.644 362.199 174.284 362.173 173.868C362.147 173.451 361.787 173.134 361.37 173.16C360.953 173.187 360.636 173.546 360.662 173.963Z" fill="#263238"/>
<path d="M337.396 168.55C337.396 168.968 337.734 169.307 338.152 169.307C338.57 169.307 338.909 168.969 338.909 168.55C338.909 168.133 338.571 167.793 338.152 167.793C337.734 167.793 337.396 168.133 337.396 168.55Z" fill="#263238"/>
<path opacity="0.1" d="M363.447 175.838L359.656 176.077L360.623 191.402L364.414 191.163L363.447 175.838Z" fill="black"/>
<path d="M344.888 87.8979C344.888 87.8979 342.868 88.0914 343.417 85.2555C343.966 82.4196 341.171 79.6035 341.965 76.8882C342.759 74.1729 334.145 76.2852 333.525 74.1729C332.905 72.0615 332.769 77.9988 330.098 77.1897C327.776 76.4859 330.806 73.7031 330.806 73.7031C330.806 73.7031 327.25 75.7317 327.25 73.7031C327.25 71.7087 331.441 71.7735 332.93 71.4162C337.159 70.4019 346.379 65.424 348.994 78.0942C348.994 78.0942 352.947 80.8563 347.202 88.9005L344.888 87.8979Z" fill="#263238"/>
<path opacity="0.2" d="M364.566 112.78C365.304 118.311 366.103 126.205 366.101 136.628C360.405 131.699 355.417 118.296 355.417 118.296V112.96L359.67 109.547L364.566 112.78Z" fill="black"/>
<path d="M325.448 128.234L314.101 121.736L313.207 124.793L323.419 130.586L325.448 128.234Z" fill="#5997A3"/>
<path opacity="0.5" d="M325.448 128.234L314.101 121.736L313.207 124.793L323.419 130.586L325.448 128.234Z" fill="white"/>
<path d="M331.969 70.8213C331.969 70.8213 340.85 62.508 348.927 69.3795C355.666 75.1107 349.915 84.0396 349.915 84.0396L346.681 80.2569L340.396 74.8263L334.631 71.4909L331.969 70.8213Z" fill="#5997A3"/>
<path d="M327.231 70.2516C331.136 67.2564 342.93 72.8508 350.041 84.1278L350.002 84.216C347.992 82.0218 336.946 70.3659 330.282 71.8032C330.282 71.8032 324.827 72.0948 327.231 70.2516Z" fill="#5997A3"/>
<g opacity="0.3">
<path d="M327.231 70.2516C331.136 67.2564 342.93 72.8508 350.041 84.1278L350.002 84.216C347.992 82.0218 336.946 70.3659 330.282 71.8032C330.282 71.8032 324.827 72.0948 327.231 70.2516Z" fill="black"/>
</g>
<path d="M334.863 68.4001C337.857 66.6964 343.691 64.531 349.123 69.1498C354.931 74.0899 351.712 81.3628 350.588 83.4742L350.04 83.2249C350.072 83.1412 353.209 74.7451 348.767 70.9849C345.149 67.9231 340.771 69.5647 338.483 70.8175L338.327 70.903L338.177 70.8076C337.43 70.3351 336.252 69.6268 334.877 68.9329L334.375 68.6791L334.863 68.4001Z" fill="#5997A3"/>
<path opacity="0.3" d="M334.863 68.4001C337.857 66.6964 343.691 64.531 349.123 69.1498C354.931 74.0899 351.712 81.3628 350.588 83.4742L350.04 83.2249C350.072 83.1412 353.209 74.7451 348.767 70.9849C345.149 67.9231 340.771 69.5647 338.483 70.8175L338.327 70.903L338.177 70.8076C337.43 70.3351 336.252 69.6268 334.877 68.9329L334.375 68.6791L334.863 68.4001Z" fill="white"/>
<path d="M334.019 93.7772C333.72 93.7772 333.403 93.7511 333.068 93.6917C332.978 93.6755 332.917 93.5891 332.933 93.4982C332.95 93.4082 333.033 93.3479 333.127 93.3632C335.575 93.7988 337.025 92.2886 337.039 92.2733C337.102 92.2058 337.207 92.2022 337.274 92.2652C337.342 92.3282 337.345 92.4335 337.282 92.5001C337.226 92.5604 336.06 93.7772 334.019 93.7772Z" fill="#263238"/>
<path opacity="0.5" d="M356.939 123.715H344.889L345.283 125.113C345.516 125.938 346.269 126.508 347.125 126.508H354.28C354.982 126.508 355.626 126.124 355.962 125.509L356.939 123.715Z" fill="white"/>
<path d="M350.164 125.039C350.164 125.453 350.499 125.788 350.913 125.788C351.327 125.788 351.663 125.453 351.663 125.039C351.663 124.625 351.327 124.289 350.913 124.289C350.499 124.289 350.164 124.625 350.164 125.039Z" fill="#5997A3"/>
<path opacity="0.5" d="M336.348 123.643H326.642L326.96 125.041C327.147 125.866 327.754 126.436 328.444 126.436H334.207C334.771 126.436 335.29 126.052 335.56 125.438L336.348 123.643Z" fill="white"/>
<path d="M329.942 125.039C329.942 125.453 330.277 125.788 330.691 125.788C331.105 125.788 331.441 125.453 331.441 125.039C331.441 124.625 331.105 124.289 330.691 124.289C330.277 124.289 329.942 124.625 329.942 125.039Z" fill="#5997A3"/>
<path d="M339.967 86.3401L345.545 85.963L345.505 85.3618L339.442 85.7812L339.967 86.3401Z" fill="#263238"/>
<path d="M350.023 88.7429C349.078 90.2621 347.514 91.1981 346.071 91.5014C343.899 91.9577 342.939 89.9795 343.647 88.0049C344.284 86.2274 346.182 83.8487 348.311 84.2798C350.409 84.7037 351.103 87.0059 350.023 88.7429Z" fill="#B55B52"/>
<path d="M338.005 132.69L337.554 134.097C337.495 134.283 337.689 134.449 337.863 134.36L339.178 133.689L347.046 124.438C347.214 124.241 347.19 123.946 346.993 123.778L346.532 123.386C346.334 123.219 346.039 123.242 345.872 123.439L338.005 132.69Z" fill="#263238"/>
<path opacity="0.5" d="M338.005 132.69L337.554 134.097C337.495 134.283 337.689 134.449 337.863 134.36L339.178 133.689L347.046 124.438C347.214 124.241 347.19 123.946 346.993 123.778L346.532 123.386C346.334 123.219 346.039 123.242 345.872 123.439L338.005 132.69Z" fill="white"/>
<path opacity="0.5" d="M346.351 123.293L338.151 132.936L337.599 134.297C337.556 134.243 337.53 134.174 337.555 134.097L338.006 132.69L345.873 123.439C345.994 123.296 346.182 123.247 346.351 123.293Z" fill="white"/>
<path d="M350.394 133.052L344.98 130.391L343.736 137.519C343.736 137.519 348.931 139.334 350.341 136.729L350.394 133.052Z" fill="#B55B52"/>
<path d="M339.033 132.367L339.018 134.939C339.012 135.962 339.749 136.839 340.758 137.011L343.736 137.518L344.98 130.39L341.18 130.288C340.007 130.259 339.039 131.195 339.033 132.367Z" fill="#B55B52"/>
<path d="M347.863 136.888C351.729 139.299 355.666 141.337 360.126 142.895C361.247 143.272 362.401 143.636 363.655 143.892C364.92 144.142 366.232 144.372 367.94 144.27C368.795 144.206 369.788 144.055 370.979 143.484C371.573 143.187 372.208 142.762 372.774 142.174C372.908 142.031 373.063 141.856 373.167 141.725L373.424 141.377C373.6 141.142 373.737 140.903 373.879 140.66C374.961 138.683 375.096 136.879 375.109 135.377C375.105 133.852 374.882 132.515 374.618 131.247C374.345 129.983 374.005 128.794 373.629 127.643C372.87 125.344 371.952 123.202 370.983 121.111C369.988 119.035 368.949 117.012 367.813 115.052C366.67 113.074 365.551 111.188 364.214 109.229C362.774 107.118 359.896 106.575 357.786 108.015C355.732 109.417 355.162 112.181 356.461 114.272L356.513 114.355C357.562 116.039 358.698 117.882 359.722 119.681C360.747 121.502 361.768 123.317 362.684 125.156C363.619 126.981 364.464 128.829 365.161 130.636C365.86 132.416 366.386 134.272 366.491 135.609C366.521 135.89 366.518 136.12 366.508 136.302C366.041 136.338 365.453 136.33 364.852 136.277C363.955 136.194 362.983 136.072 362.001 135.886C358.057 135.14 353.875 133.937 349.818 132.742L349.736 132.718C348.514 132.358 347.233 133.056 346.873 134.278C346.571 135.295 347.006 136.354 347.863 136.888Z" fill="#B55B52"/>
<path d="M359.689 103.394C369.089 106.356 374.375 126.066 374.375 126.066L364.19 130.047C364.19 130.047 359.372 126.62 355.967 120.136C354.936 118.172 352.191 101.032 359.689 103.394Z" fill="#5997A3"/>
<path d="M374.376 123.715L361.9 128.655L363.737 131.256L375.173 126.732L374.376 123.715Z" fill="#5997A3"/>
<path opacity="0.5" d="M374.376 123.715L361.9 128.655L363.737 131.256L375.173 126.732L374.376 123.715Z" fill="white"/>
<path d="M315.801 126.155H334.213L347.152 148.695L346.651 149.196H328.24L315.301 126.655L315.801 126.155Z" fill="#263238"/>
<path opacity="0.2" d="M315.801 126.155H334.213L347.152 148.695L346.651 149.196H328.24L315.301 126.655L315.801 126.155Z" fill="white"/>
<path d="M328.24 149.196H346.651L333.714 126.655H315.301L328.24 149.196Z" fill="#263238"/>
<path opacity="0.4" d="M328.24 149.196H346.651L333.714 126.655H315.301L328.24 149.196Z" fill="white"/>
<path d="M320.513 125.827H327.527L329.011 128.412L328.804 128.62H321.791L320.306 126.035L320.513 125.827Z" fill="#5997A3"/>
<path opacity="0.5" d="M320.513 125.827H327.527L329.011 128.412L328.804 128.62H321.791L320.306 126.035L320.513 125.827Z" fill="white"/>
<path d="M321.791 128.62L320.306 126.035H327.32L328.804 128.62H321.791Z" fill="#5997A3"/>
<path opacity="0.2" d="M321.791 128.62L320.306 126.035H327.32L328.804 128.62H321.791Z" fill="white"/>
<path d="M311.183 140.565C310.973 139.146 311.054 137.952 311.186 136.849C311.23 136.527 311.291 136.225 311.346 135.917H319.981C319.721 136.682 319.508 137.423 319.382 138.092C319.26 138.68 319.218 139.22 319.234 139.503C319.236 139.597 319.239 139.649 319.237 139.68C319.306 139.714 319.37 139.748 319.445 139.78C320.002 140.033 320.699 140.246 321.431 140.454C322.893 140.858 324.558 141.2 326.136 141.59L326.306 141.631C327.04 141.815 327.665 142.365 327.909 143.141C328.281 144.327 327.623 145.59 326.436 145.962C324.59 146.543 322.814 146.873 320.855 146.987C319.879 147.045 318.871 147.026 317.757 146.89C317.196 146.805 316.607 146.688 315.952 146.482C315.302 146.267 314.564 145.988 313.722 145.338C313.502 145.155 313.292 144.974 313.081 144.76C312.876 144.537 312.619 144.234 312.494 144.04C312.226 143.646 312.012 143.244 311.828 142.84C311.476 142.036 311.292 141.271 311.183 140.565Z" fill="#B55B52"/>
<path d="M326.104 145.975L332.506 145.093L328.813 139.17C328.813 139.17 323.413 139.964 323.777 143.299L326.104 145.975Z" fill="#B55B52"/>
<path d="M335.045 141.493L333.893 138.837C333.482 137.889 332.366 137.472 331.433 137.918L328.813 139.172L332.506 145.095L334.44 143.697C335.134 143.195 335.385 142.278 335.045 141.493Z" fill="#B55B52"/>
<path d="M94.1292 165.454H101.282V168.279H100.114V180.956H95.2965V168.279H94.1292V165.454Z" fill="#5997A3"/>
<g opacity="0.2">
<path d="M94.1292 165.454H101.282V168.279H100.114V180.956H95.2965V168.279H94.1292V165.454Z" fill="black"/>
</g>
<path d="M136.432 156.417L161.834 195.501V230.579H101.686V195.501L136.432 156.417Z" fill="#5997A3"/>
<path opacity="0.5" d="M136.432 156.417L161.834 195.501V230.579H101.686V195.501L136.432 156.417Z" fill="white"/>
<path d="M108.531 158.006L112.397 152.076H136.432L164.742 195.501H140.708H108.531V158.006Z" fill="#5997A3"/>
<path opacity="0.2" d="M108.531 158.006L112.397 152.076H136.432L164.742 195.501H140.708H108.531V158.006Z" fill="black"/>
<path d="M140.708 195.501L112.397 152.077L84.0861 195.501H140.708Z" fill="#5997A3"/>
<path d="M112.397 156.417L137.8 195.501V230.579H86.994V195.501L112.397 156.417Z" fill="#5997A3"/>
<path opacity="0.8" d="M112.397 156.417L137.8 195.501V230.579H86.994V195.501L112.397 156.417Z" fill="white"/>
<path d="M123.791 178.914H118.652V192.531H123.791V178.914Z" fill="#5997A3"/>
<path d="M105.804 178.914H100.665V192.531H105.804V178.914Z" fill="#5997A3"/>
<path d="M118.652 178.271H105.804V193.174H118.652V178.271Z" fill="#5997A3"/>
<path opacity="0.4" d="M118.652 178.271H105.804V193.174H118.652V178.271Z" fill="white"/>
<path d="M117.046 179.876H107.411V191.567H117.046V179.876Z" fill="#263238"/>
<path d="M104.46 230.579H119.995V205.506H104.46V230.579Z" fill="#5997A3"/>
<path opacity="0.3" d="M104.46 230.579H119.995V205.506H104.46V230.579Z" fill="white"/>
<path d="M105.422 200.253H119.033L122.342 206.392H102.115L105.422 200.253Z" fill="#5997A3"/>
<path d="M117.283 209.765H112.525V230.578H117.283V209.765Z" fill="#263238"/>
<path d="M111.93 209.765H107.173V230.578H111.93V209.765Z" fill="#263238"/>
<path d="M152.149 255.907H79.7778V317.24H152.149V255.907Z" fill="#5997A3"/>
<path opacity="0.6" d="M152.149 255.907H79.7778V317.24H152.149V255.907Z" fill="white"/>
<path d="M169.051 255.907H133.308V317.24H169.051V255.907Z" fill="#5997A3"/>
<path opacity="0.8" d="M169.051 255.907H133.308V317.24H169.051V255.907Z" fill="white"/>
<path d="M126.572 262.078H112.338V278.59H126.572V262.078Z" fill="#5997A3"/>
<path opacity="0.3" d="M126.572 262.078H112.338V278.59H126.572V262.078Z" fill="white"/>
<path d="M124.793 263.857H114.117V276.811H124.793V263.857Z" fill="#263238"/>
<path d="M143.9 262.789H138.207V277.878H143.9V262.789Z" fill="#5997A3"/>
<path d="M163.829 262.789H158.135V277.878H163.829V262.789Z" fill="#5997A3"/>
<path d="M158.135 262.077H143.9V278.589H158.135V262.077Z" fill="#5997A3"/>
<path opacity="0.3" d="M158.135 262.077H143.9V278.589H158.135V262.077Z" fill="white"/>
<path d="M156.355 263.856H145.679V276.81H156.355V263.856Z" fill="#263238"/>
<path d="M113.412 289.96H96.5079V317.24H113.412V289.96Z" fill="#5997A3"/>
<path opacity="0.3" d="M113.412 289.96H96.5079V317.24H113.412V289.96Z" fill="white"/>
<path d="M112.364 284.244H97.5555L93.9555 290.924H115.963L112.364 284.244Z" fill="#5997A3"/>
<path d="M104.636 294.594H99.4599V317.24H104.636V294.594Z" fill="#263238"/>
<path d="M110.459 294.594H105.283V317.24H110.459V294.594Z" fill="#263238"/>
<path d="M160.206 256.43L146.066 230.188H85.86L71.7201 256.43H160.206Z" fill="#5997A3"/>
<path opacity="0.3" d="M160.206 256.43L146.066 230.188H85.86L71.7201 256.43H160.206Z" fill="black"/>
<path d="M177.108 256.43L162.968 230.188H139.39L125.251 256.43H177.108Z" fill="#5997A3"/>
<path opacity="0.1" d="M177.108 256.43L162.968 230.188H139.39L125.251 256.43H177.108Z" fill="black"/>
<path d="M99.3474 251.944V230.188H127.182L115.459 251.944H99.3474Z" fill="#5997A3"/>
<path opacity="0.8" d="M99.3474 251.944V230.188H127.182L115.459 251.944H99.3474Z" fill="white"/>
<path d="M98.5309 251.944H115.435V235.041H98.5309V251.944Z" fill="#5997A3"/>
<path opacity="0.6" d="M98.5309 251.944H115.435V235.041H98.5309V251.944Z" fill="white"/>
<path d="M103.42 249.898H110.546C111.191 249.898 111.714 249.375 111.714 248.73V247.876H102.252V248.73C102.252 249.375 102.775 249.898 103.42 249.898Z" fill="#5997A3"/>
<path d="M103.99 240.939C103.99 239.287 105.331 237.947 106.983 237.947C108.635 237.947 109.975 239.287 109.975 240.939V247.397H103.99V240.939Z" fill="#263238"/>
<path d="M109.976 236.005L113.11 230.188H127.182L124.047 236.005H109.976Z" fill="#5997A3"/>
<path opacity="0.2" d="M109.976 236.005L113.11 230.188H127.182L124.047 236.005H109.976Z" fill="black"/>
<path d="M114.853 230.188L117.987 236.005H95.9796L99.1143 230.188H114.853Z" fill="#5997A3"/>
<path d="M101.074 262.078H86.8392V278.59H101.074V262.078Z" fill="#5997A3"/>
<path opacity="0.3" d="M101.074 262.078H86.8392V278.59H101.074V262.078Z" fill="white"/>
<path d="M99.2934 263.857H88.6176V276.811H99.2934V263.857Z" fill="#263238"/>
<path d="M171.873 316.629H304.313C306.77 316.629 308.587 314.639 308.372 312.182L291.756 122.266C291.541 119.81 289.375 117.819 286.919 117.819H154.479C152.023 117.819 150.206 119.81 150.421 122.266L167.036 312.182C167.252 314.638 169.416 316.629 171.873 316.629Z" fill="#263238"/>
<path d="M173.783 316.629H306.223C308.679 316.629 310.496 314.639 310.281 312.182L293.666 122.266C293.45 119.81 291.285 117.819 288.829 117.819H156.389C153.932 117.819 152.115 119.81 152.33 122.266L168.946 312.182C169.16 314.638 171.327 316.629 173.783 316.629Z" fill="#263238"/>
<path opacity="0.5" d="M173.783 316.629H306.223C308.679 316.629 310.496 314.639 310.281 312.182L293.666 122.266C293.45 119.81 291.285 117.819 288.829 117.819H156.389C153.932 117.819 152.115 119.81 152.33 122.266L168.946 312.182C169.16 314.638 171.327 316.629 173.783 316.629Z" fill="white"/>
<path opacity="0.2" d="M281.347 128.8L297.23 309.738H177.857L161.973 128.8H281.347Z" fill="black"/>
<path d="M282.079 128.799L286.657 187.154C287.844 202.278 289.635 217.35 292.026 232.332L303.727 305.648H184.353L172.632 232.149C170.246 217.186 168.458 202.132 167.272 187.026L162.705 128.799H282.079Z" fill="white"/>
<path d="M202.851 151.995H247.612C249.095 151.995 250.15 150.792 249.968 149.309L249.612 146.404C249.431 144.921 248.081 143.719 246.598 143.719H201.838C200.354 143.719 199.3 144.922 199.481 146.404L199.837 149.309C200.019 150.792 201.368 151.995 202.851 151.995Z" fill="#5997A3"/>
<path d="M183.947 212.152H280.04C281.524 212.152 282.578 210.95 282.397 209.467L282.041 206.562C281.859 205.079 280.51 203.877 279.027 203.877H182.934C181.451 203.877 180.396 205.08 180.578 206.562L180.933 209.467C181.115 210.95 182.464 212.152 183.947 212.152Z" fill="#5997A3"/>
<path opacity="0.5" d="M183.947 212.152H280.04C281.524 212.152 282.578 210.95 282.397 209.467L282.041 206.562C281.859 205.079 280.51 203.877 279.027 203.877H182.934C181.451 203.877 180.396 205.08 180.578 206.562L180.933 209.467C181.115 210.95 182.464 212.152 183.947 212.152Z" fill="white"/>
<path d="M243.175 164.382C228.254 164.382 213.334 164.382 198.414 164.382C197.492 164.382 197.366 162.95 198.289 162.95C213.209 162.95 228.129 162.95 243.05 162.95C243.971 162.95 244.098 164.382 243.175 164.382Z" fill="#263238"/>
<path d="M179.339 168.361C200.796 168.361 222.254 168.361 243.711 168.361C244.633 168.361 244.76 169.794 243.836 169.794C222.378 169.794 200.921 169.794 179.464 169.794C178.542 169.794 178.416 168.361 179.339 168.361Z" fill="#263238"/>
<path d="M253.041 170.033H274.885C276.368 170.033 277.423 168.83 277.241 167.347L276.886 164.442C276.704 162.959 275.355 161.757 273.872 161.757H252.028C250.545 161.757 249.49 162.96 249.672 164.442L250.027 167.347C250.209 168.83 251.558 170.033 253.041 170.033Z" fill="#263238"/>
<path opacity="0.7" d="M253.041 170.033H274.885C276.368 170.033 277.423 168.83 277.241 167.347L276.886 164.442C276.704 162.959 275.355 161.757 273.872 161.757H252.028C250.545 161.757 249.49 162.96 249.672 164.442L250.027 167.347C250.209 168.83 251.558 170.033 253.041 170.033Z" fill="white"/>
<path d="M265.354 186.689H276.924C278.407 186.689 279.462 185.486 279.28 184.004L279.094 182.48C278.912 180.997 277.563 179.795 276.079 179.795H264.51C263.027 179.795 261.972 180.998 262.154 182.48L262.34 184.004C262.522 185.486 263.871 186.689 265.354 186.689Z" fill="#263238"/>
<path d="M229.988 186.689H256.835C258.318 186.689 259.373 185.486 259.191 184.004L259.005 182.48C258.823 180.997 257.474 179.795 255.991 179.795H229.144C227.66 179.795 226.606 180.998 226.787 182.48L226.974 184.004C227.156 185.486 228.506 186.689 229.988 186.689Z" fill="#263238"/>
<path d="M201.306 186.689H221.469C222.953 186.689 224.007 185.486 223.826 184.004L223.639 182.48C223.457 180.997 222.108 179.795 220.625 179.795H200.462C198.978 179.795 197.924 180.998 198.105 182.48L198.292 184.004C198.474 185.486 199.823 186.689 201.306 186.689Z" fill="#263238"/>
<path d="M182.173 186.689H192.787C194.27 186.689 195.325 185.486 195.143 184.004L194.957 182.48C194.775 180.997 193.426 179.795 191.943 179.795H181.328C179.845 179.795 178.79 180.998 178.972 182.48L179.159 184.004C179.34 185.486 180.69 186.689 182.173 186.689Z" fill="#263238"/>
<path d="M257.994 196.765H278.158C279.641 196.765 280.696 195.563 280.514 194.079L280.328 192.557C280.146 191.073 278.797 189.871 277.313 189.871H257.15C255.667 189.871 254.612 191.073 254.794 192.557L254.98 194.079C255.162 195.563 256.511 196.765 257.994 196.765Z" fill="#263238"/>
<path d="M225.492 196.765H249.475C250.958 196.765 252.013 195.563 251.831 194.079L251.645 192.557C251.463 191.073 250.114 189.871 248.63 189.871H224.648C223.165 189.871 222.11 191.073 222.292 192.557L222.478 194.079C222.66 195.563 224.009 196.765 225.492 196.765Z" fill="#263238"/>
<path d="M205.404 196.765H216.974C218.457 196.765 219.512 195.563 219.33 194.079L219.144 192.557C218.962 191.073 217.613 189.871 216.13 189.871H204.56C203.077 189.871 202.022 191.073 202.204 192.557L202.39 194.079C202.572 195.563 203.921 196.765 205.404 196.765Z" fill="#263238"/>
<path d="M183.407 196.765H196.886C198.369 196.765 199.424 195.563 199.242 194.079L199.056 192.557C198.874 191.073 197.525 189.871 196.042 189.871H182.562C181.079 189.871 180.024 191.073 180.206 192.557L180.392 194.079C180.574 195.563 181.923 196.765 183.407 196.765Z" fill="#263238"/>
<g opacity="0.7">
<path d="M265.354 186.689H276.924C278.407 186.689 279.462 185.486 279.28 184.004L279.094 182.48C278.912 180.997 277.563 179.795 276.079 179.795H264.51C263.027 179.795 261.972 180.998 262.154 182.48L262.34 184.004C262.522 185.486 263.871 186.689 265.354 186.689Z" fill="white"/>
<path d="M229.988 186.689H256.835C258.318 186.689 259.373 185.486 259.191 184.004L259.005 182.48C258.823 180.997 257.474 179.795 255.991 179.795H229.144C227.66 179.795 226.606 180.998 226.787 182.48L226.974 184.004C227.156 185.486 228.506 186.689 229.988 186.689Z" fill="white"/>
<path d="M201.306 186.689H221.469C222.953 186.689 224.007 185.486 223.826 184.004L223.639 182.48C223.457 180.997 222.108 179.795 220.625 179.795H200.462C198.978 179.795 197.924 180.998 198.105 182.48L198.292 184.004C198.474 185.486 199.823 186.689 201.306 186.689Z" fill="white"/>
<path d="M182.173 186.689H192.787C194.27 186.689 195.325 185.486 195.143 184.004L194.957 182.48C194.775 180.997 193.426 179.795 191.943 179.795H181.328C179.845 179.795 178.79 180.998 178.972 182.48L179.159 184.004C179.34 185.486 180.69 186.689 182.173 186.689Z" fill="white"/>
<path d="M257.994 196.765H278.158C279.641 196.765 280.696 195.563 280.514 194.079L280.328 192.557C280.146 191.073 278.797 189.871 277.313 189.871H257.15C255.667 189.871 254.612 191.073 254.794 192.557L254.98 194.079C255.162 195.563 256.511 196.765 257.994 196.765Z" fill="white"/>
<path d="M225.492 196.765H249.475C250.958 196.765 252.013 195.563 251.831 194.079L251.645 192.557C251.463 191.073 250.114 189.871 248.63 189.871H224.648C223.165 189.871 222.11 191.073 222.292 192.557L222.478 194.079C222.66 195.563 224.009 196.765 225.492 196.765Z" fill="white"/>
<path d="M205.404 196.765H216.974C218.457 196.765 219.512 195.563 219.33 194.079L219.144 192.557C218.962 191.073 217.613 189.871 216.13 189.871H204.56C203.077 189.871 202.022 191.073 202.204 192.557L202.39 194.079C202.572 195.563 203.921 196.765 205.404 196.765Z" fill="white"/>
<path d="M183.407 196.765H196.886C198.369 196.765 199.424 195.563 199.242 194.079L199.056 192.557C198.874 191.073 197.525 189.871 196.042 189.871H182.562C181.079 189.871 180.024 191.073 180.206 192.557L180.392 194.079C180.574 195.563 181.923 196.765 183.407 196.765Z" fill="white"/>
</g>
<path d="M221.717 298.319C211.352 298.319 200.987 298.319 190.622 298.319C189.7 298.319 189.573 296.887 190.497 296.887C200.862 296.887 211.226 296.887 221.592 296.887C222.513 296.887 222.64 298.319 221.717 298.319Z" fill="#263238"/>
<path d="M293.248 298.319C282.883 298.319 272.518 298.319 262.153 298.319C261.231 298.319 261.104 296.887 262.028 296.887C272.393 296.887 282.757 296.887 293.123 296.887C294.044 296.887 294.171 298.319 293.248 298.319Z" fill="#263238"/>
<path d="M287.853 254.245C274.623 254.245 261.394 254.245 248.164 254.245C247.243 254.245 247.116 252.813 248.039 252.813C261.269 252.813 274.498 252.813 287.728 252.813C288.65 252.813 288.777 254.245 287.853 254.245Z" fill="#263238"/>
<path d="M248.713 258.322C261.943 258.322 275.172 258.322 288.402 258.322C289.324 258.322 289.451 259.754 288.527 259.754C275.297 259.754 262.068 259.754 248.838 259.754C247.917 259.754 247.791 258.322 248.713 258.322Z" fill="#263238"/>
<path d="M249.388 263.831C262.618 263.831 275.847 263.831 289.077 263.831C289.999 263.831 290.126 265.263 289.202 265.263C275.972 265.263 262.743 265.263 249.513 265.263C248.592 265.263 248.465 263.831 249.388 263.831Z" fill="#263238"/>
<path d="M250.062 269.34C263.292 269.34 276.521 269.34 289.751 269.34C290.673 269.34 290.8 270.773 289.876 270.773C276.646 270.773 263.417 270.773 250.187 270.773C249.266 270.773 249.139 269.34 250.062 269.34Z" fill="#263238"/>
<path d="M250.736 274.85C263.966 274.85 277.196 274.85 290.426 274.85C291.347 274.85 291.474 276.282 290.551 276.282C277.321 276.282 264.092 276.282 250.862 276.282C249.94 276.282 249.813 274.85 250.736 274.85Z" fill="#263238"/>
<path d="M228.51 254.245C218.145 254.245 207.78 254.245 197.415 254.245C196.493 254.245 196.367 252.813 197.29 252.813C207.655 252.813 218.02 252.813 228.385 252.813C229.307 252.813 229.433 254.245 228.51 254.245Z" fill="#263238"/>
<path d="M197.964 258.322C208.329 258.322 218.694 258.322 229.059 258.322C229.981 258.322 230.108 259.754 229.184 259.754C218.819 259.754 208.454 259.754 198.089 259.754C197.168 259.754 197.041 258.322 197.964 258.322Z" fill="#263238"/>
<path d="M198.639 263.831C209.004 263.831 219.369 263.831 229.734 263.831C230.656 263.831 230.783 265.263 229.859 265.263C219.494 265.263 209.129 265.263 198.764 265.263C197.843 265.263 197.716 263.831 198.639 263.831Z" fill="#263238"/>
<path d="M199.313 269.34C209.678 269.34 220.043 269.34 230.408 269.34C231.33 269.34 231.457 270.773 230.533 270.773C220.168 270.773 209.804 270.773 199.438 270.773C198.517 270.773 198.39 269.34 199.313 269.34Z" fill="#263238"/>
<path d="M199.987 274.85C210.353 274.85 220.717 274.85 231.082 274.85C232.004 274.85 232.131 276.282 231.207 276.282C220.842 276.282 210.478 276.282 200.112 276.282C199.191 276.282 199.064 274.85 199.987 274.85Z" fill="#263238"/>
<path d="M182.584 225.878L183.402 232.562L184.22 239.246L185.038 245.931H203.72H204.437H235.77H236.487H267.82H268.537H287.219L286.313 238.53L285.495 231.846L284.677 225.161L283.859 218.477H265.178H264.461H233.127H232.411H201.077H200.361H181.679L182.584 225.878ZM200.813 222.178L201.179 225.161H183.214L182.483 219.193H200.448L200.813 222.178ZM202.348 228.862L201.983 225.879H233.315L233.681 228.862L234.046 231.847H202.712L202.348 228.862ZM234.032 225.878H265.366L265.731 228.861L266.097 231.846H234.764L234.399 228.861L234.032 225.878ZM266.915 238.53H235.581L235.216 235.546L234.851 232.562H266.183L266.549 235.546L266.915 238.53ZM234.864 238.53H203.531L203.166 235.546L202.801 232.562H234.134L234.5 235.546L234.864 238.53ZM232.863 222.178L233.229 225.161H201.896L201.531 222.178L201.165 219.194H232.499L232.863 222.178ZM264.913 222.178L265.279 225.161H233.945L233.58 222.178L233.214 219.194H264.547L264.913 222.178ZM283.96 225.162H265.995L265.63 222.179L265.264 219.195H283.229L283.96 225.162ZM284.779 231.847H266.813L266.448 228.862L266.082 225.879H284.047L284.779 231.847ZM285.596 238.53H267.631L267.266 235.546L266.9 232.562H284.865L285.596 238.53ZM268.084 242.231L267.719 239.246H285.683L286.414 245.214H268.448L268.084 242.231ZM236.034 242.231L235.669 239.246H267.002L267.368 242.231L267.733 245.214H236.4L236.034 242.231ZM203.984 242.231L203.619 239.246H234.951L235.317 242.231L235.682 245.214H204.35L203.984 242.231ZM184.937 239.246H202.902L203.268 242.231L203.633 245.214H185.668L184.937 239.246ZM184.118 232.562H202.083L202.449 235.546L202.814 238.53H184.849L184.118 232.562ZM183.301 225.878H201.266L201.632 228.861L201.997 231.846H184.032L183.301 225.878Z" fill="#5997A3"/>
<path opacity="0.5" d="M182.584 225.878L183.402 232.562L184.22 239.246L185.038 245.931H203.72H204.437H235.77H236.487H267.82H268.537H287.219L286.313 238.53L285.495 231.846L284.677 225.161L283.859 218.477H265.178H264.461H233.127H232.411H201.077H200.361H181.679L182.584 225.878ZM200.813 222.178L201.179 225.161H183.214L182.483 219.193H200.448L200.813 222.178ZM202.348 228.862L201.983 225.879H233.315L233.681 228.862L234.046 231.847H202.712L202.348 228.862ZM234.032 225.878H265.366L265.731 228.861L266.097 231.846H234.764L234.399 228.861L234.032 225.878ZM266.915 238.53H235.581L235.216 235.546L234.851 232.562H266.183L266.549 235.546L266.915 238.53ZM234.864 238.53H203.531L203.166 235.546L202.801 232.562H234.134L234.5 235.546L234.864 238.53ZM232.863 222.178L233.229 225.161H201.896L201.531 222.178L201.165 219.194H232.499L232.863 222.178ZM264.913 222.178L265.279 225.161H233.945L233.58 222.178L233.214 219.194H264.547L264.913 222.178ZM283.96 225.162H265.995L265.63 222.179L265.264 219.195H283.229L283.96 225.162ZM284.779 231.847H266.813L266.448 228.862L266.082 225.879H284.047L284.779 231.847ZM285.596 238.53H267.631L267.266 235.546L266.9 232.562H284.865L285.596 238.53ZM268.084 242.231L267.719 239.246H285.683L286.414 245.214H268.448L268.084 242.231ZM236.034 242.231L235.669 239.246H267.002L267.368 242.231L267.733 245.214H236.4L236.034 242.231ZM203.984 242.231L203.619 239.246H234.951L235.317 242.231L235.682 245.214H204.35L203.984 242.231ZM184.937 239.246H202.902L203.268 242.231L203.633 245.214H185.668L184.937 239.246ZM184.118 232.562H202.083L202.449 235.546L202.814 238.53H184.849L184.118 232.562ZM183.301 225.878H201.266L201.632 228.861L201.997 231.846H184.032L183.301 225.878Z" fill="white"/>
<path d="M188.657 258.763H191.62C192.171 258.763 192.563 258.316 192.496 257.766L192.133 254.803C192.065 254.252 191.564 253.806 191.013 253.806H188.05C187.5 253.806 187.107 254.252 187.175 254.803L187.537 257.766C187.605 258.316 188.106 258.763 188.657 258.763Z" fill="#5997A3"/>
<path d="M189.319 264.174H192.282C192.833 264.174 193.225 263.727 193.158 263.176L192.795 260.214C192.728 259.663 192.226 259.216 191.676 259.216H188.713C188.162 259.216 187.77 259.663 187.837 260.214L188.2 263.176C188.267 263.727 188.769 264.174 189.319 264.174Z" fill="#5997A3"/>
<path d="M189.982 269.585H192.946C193.496 269.585 193.889 269.139 193.821 268.588L193.459 265.624C193.391 265.073 192.89 264.627 192.339 264.627H189.376C188.825 264.627 188.433 265.073 188.5 265.624L188.863 268.588C188.93 269.138 189.431 269.585 189.982 269.585Z" fill="#5997A3"/>
<path d="M190.644 274.996H193.607C194.158 274.996 194.55 274.55 194.483 273.999L194.12 271.036C194.053 270.485 193.551 270.039 193 270.039H190.038C189.487 270.039 189.094 270.485 189.162 271.036L189.525 273.999C189.592 274.55 190.093 274.996 190.644 274.996Z" fill="#5997A3"/>
<path opacity="0.5" d="M189.319 264.174H192.282C192.833 264.174 193.225 263.727 193.158 263.176L192.795 260.214C192.728 259.663 192.226 259.216 191.676 259.216H188.713C188.162 259.216 187.77 259.663 187.837 260.214L188.2 263.176C188.267 263.727 188.769 264.174 189.319 264.174Z" fill="white"/>
<path opacity="0.5" d="M190.644 274.996H193.607C194.158 274.996 194.55 274.55 194.483 273.999L194.12 271.036C194.053 270.485 193.551 270.039 193 270.039H190.038C189.487 270.039 189.094 270.485 189.162 271.036L189.525 273.999C189.592 274.55 190.093 274.996 190.644 274.996Z" fill="white"/>
<path d="M203.651 114.562H215.339L213.487 110.163C212.906 108.781 214.133 107.434 215.974 107.434H227.427C229.268 107.434 230.731 108.781 230.392 110.163L229.31 114.562H240.998C244.528 114.562 247.64 117.424 247.949 120.955L248.848 131.228C249.026 133.263 247.521 134.912 245.487 134.912H202.724C200.689 134.912 198.896 133.262 198.717 131.228L197.818 120.955C197.51 117.424 200.12 114.562 203.651 114.562Z" fill="#5997A3"/>
<path opacity="0.2" d="M229.31 114.562H215.339L214.249 111.973H229.946L229.31 114.562Z" fill="black"/>
<path d="M238.725 128.76C238.821 129.858 239.79 130.749 240.889 130.749C241.988 130.749 242.8 129.858 242.704 128.76C242.608 127.661 241.639 126.771 240.54 126.771C239.441 126.77 238.629 127.661 238.725 128.76Z" fill="#263238"/>
<path d="M204.429 128.76C204.525 129.858 205.493 130.749 206.592 130.749C207.691 130.749 208.504 129.858 208.408 128.76C208.311 127.661 207.343 126.771 206.244 126.771C205.146 126.77 204.332 127.661 204.429 128.76Z" fill="#263238"/>
<path d="M280.115 291.046L227.198 301.392C224.61 301.898 222.274 300.24 221.99 297.696L221.094 289.65C220.811 287.106 222.685 284.626 225.274 284.119L278.19 273.774C280.778 273.269 283.114 274.926 283.397 277.471L284.294 285.517C284.577 288.06 282.703 290.541 280.115 291.046ZM225.423 285.466C223.59 285.825 222.262 287.581 222.463 289.384L223.359 297.43C223.56 299.231 225.214 300.405 227.048 300.047L279.965 289.702C281.797 289.344 283.126 287.587 282.924 285.785L282.028 277.739C281.827 275.937 280.173 274.763 278.339 275.121L225.423 285.466Z" fill="#5997A3"/>
<path d="M232.917 293.1L230.247 293.622L229.873 294.932L228.509 295.199L230.442 289.045L231.756 288.787L234.958 293.938L233.561 294.211L232.917 293.1ZM232.388 292.188L231.235 290.203L230.565 292.546L232.388 292.188Z" fill="#5997A3"/>
<path d="M238.773 287.673C239.166 287.767 239.482 287.948 239.719 288.215C239.955 288.482 240.098 288.826 240.144 289.246C240.19 289.66 240.129 290.041 239.962 290.39C239.793 290.74 239.531 291.033 239.174 291.271C238.818 291.508 238.384 291.677 237.875 291.776L236.716 292.002L236.89 293.561L235.559 293.821L234.929 288.168L237.418 287.681C237.928 287.582 238.379 287.581 238.773 287.673ZM238.565 290.292C238.755 290.082 238.831 289.822 238.797 289.509C238.762 289.192 238.631 288.968 238.403 288.839C238.176 288.71 237.862 288.685 237.462 288.762L236.378 288.975L236.597 290.937L237.681 290.724C238.082 290.647 238.376 290.502 238.565 290.292Z" fill="#5997A3"/>
<path d="M244.705 286.513C245.098 286.606 245.414 286.787 245.651 287.055C245.887 287.322 246.029 287.666 246.076 288.085C246.122 288.499 246.062 288.881 245.894 289.23C245.725 289.579 245.462 289.873 245.106 290.11C244.749 290.348 244.316 290.516 243.806 290.615L242.648 290.842L242.822 292.401L241.491 292.661L240.861 287.008L243.35 286.521C243.859 286.423 244.311 286.42 244.705 286.513ZM244.497 289.132C244.686 288.921 244.763 288.661 244.729 288.349C244.694 288.031 244.562 287.808 244.335 287.678C244.108 287.55 243.795 287.524 243.394 287.602L242.31 287.814L242.529 289.776L243.613 289.564C244.013 289.486 244.308 289.342 244.497 289.132Z" fill="#5997A3"/>
<path d="M251.087 290.785L249.802 289.427L249.737 289.44L248.578 289.667L248.754 291.242L247.423 291.502L246.793 285.849L249.282 285.362C249.791 285.262 250.243 285.26 250.637 285.353C251.03 285.447 251.346 285.627 251.582 285.895C251.819 286.162 251.961 286.506 252.008 286.925C252.055 287.346 251.993 287.727 251.821 288.071C251.649 288.416 251.384 288.705 251.024 288.94L252.516 290.505L251.087 290.785ZM250.267 286.518C250.04 286.39 249.726 286.365 249.326 286.442L248.242 286.654L248.461 288.625L249.546 288.413C249.945 288.335 250.24 288.189 250.429 287.976C250.618 287.762 250.695 287.5 250.66 287.188C250.626 286.871 250.494 286.648 250.267 286.518Z" fill="#5997A3"/>
<path d="M254.6 289.809C254.093 289.65 253.679 289.375 253.358 288.984C253.038 288.593 252.846 288.12 252.784 287.566C252.722 287.011 252.802 286.486 253.024 285.988C253.246 285.491 253.582 285.069 254.033 284.722C254.484 284.376 255.008 284.144 255.605 284.027C256.202 283.91 256.754 283.932 257.258 284.092C257.763 284.252 258.177 284.527 258.5 284.918C258.823 285.309 259.016 285.781 259.078 286.335C259.14 286.89 259.058 287.416 258.834 287.914C258.609 288.411 258.273 288.834 257.825 289.179C257.377 289.526 256.854 289.756 256.257 289.873C255.66 289.99 255.108 289.969 254.6 289.809ZM257.027 288.35C257.284 288.143 257.475 287.886 257.601 287.582C257.726 287.277 257.769 286.949 257.73 286.599C257.692 286.25 257.579 285.953 257.392 285.708C257.206 285.464 256.966 285.291 256.676 285.192C256.384 285.093 256.069 285.075 255.73 285.142C255.39 285.209 255.092 285.345 254.835 285.552C254.578 285.759 254.387 286.014 254.262 286.32C254.137 286.625 254.093 286.953 254.132 287.302C254.171 287.652 254.284 287.949 254.471 288.193C254.657 288.437 254.896 288.609 255.187 288.709C255.478 288.809 255.793 288.825 256.133 288.759C256.472 288.693 256.77 288.557 257.027 288.35Z" fill="#5997A3"/>
<path d="M265.106 282.269L263.246 288.409L261.932 288.666L258.82 283.498L260.258 283.218L262.458 286.913L263.783 282.528L265.106 282.269Z" fill="#5997A3"/>
<path d="M270.547 285.908L270.664 286.957L266.211 287.828L265.581 282.175L269.927 281.325L270.044 282.376L267.021 282.967L267.158 284.194L269.828 283.672L269.942 284.689L267.271 285.211L267.417 286.52L270.547 285.908Z" fill="#5997A3"/>
<path d="M271.094 281.098L273.707 280.587C274.332 280.464 274.896 280.474 275.402 280.614C275.908 280.755 276.316 281.012 276.629 281.385C276.943 281.758 277.131 282.227 277.194 282.792C277.257 283.358 277.179 283.879 276.961 284.356C276.742 284.833 276.407 285.236 275.954 285.564C275.5 285.892 274.962 286.117 274.337 286.239L271.724 286.75L271.094 281.098ZM274.152 285.179C274.727 285.067 275.168 284.819 275.476 284.438C275.783 284.056 275.907 283.595 275.846 283.057C275.786 282.519 275.567 282.126 275.19 281.878C274.813 281.63 274.337 281.562 273.761 281.675L272.545 281.912L272.936 285.417L274.152 285.179Z" fill="#5997A3"/>
</svg>
