<svg width="44" height="41" viewBox="0 0 44 41" fill="none" xmlns="http://www.w3.org/2000/svg">
<circle cx="18" cy="18" r="18" fill="#E6F0F1"/>
<path d="M28.0001 38.3334C20.6363 38.3334 14.6667 32.3638 14.6667 25.0001C14.6667 17.6363 20.6363 11.6667 28.0001 11.6667C35.3638 11.6667 41.3334 17.6363 41.3334 25.0001C41.3334 32.3638 35.3638 38.3334 28.0001 38.3334ZM28.0001 35.6667C33.8911 35.6667 38.6667 30.8911 38.6667 25.0001C38.6667 19.109 33.8911 14.3334 28.0001 14.3334C22.109 14.3334 17.3334 19.109 17.3334 25.0001C17.3334 30.8911 22.109 35.6667 28.0001 35.6667ZM29.3334 25.0001H34.6667V27.6667H26.6667V18.3334H29.3334V25.0001Z" fill="#076476"/>
</svg>
