<svg width="44" height="41" viewBox="0 0 44 41" fill="none" xmlns="http://www.w3.org/2000/svg">
<circle cx="18" cy="18" r="18" fill="#E6F0F1"/>
<path d="M18.6732 21.0037C19.4096 21.0037 20.0065 21.6007 20.0065 22.3371C22.1862 22.3371 24.1914 23.0843 25.7799 24.3364L28.6732 24.3371C30.45 24.3371 32.0464 25.1095 33.1451 26.3367L37.3399 26.3371C39.9963 26.3371 42.2897 27.8908 43.3613 30.1389C40.2083 34.2997 35.1024 37.0037 29.3399 37.0037C25.6189 37.0037 22.4729 36.1995 19.9253 34.7932C19.7408 35.3045 19.2497 35.6704 18.6732 35.6704H14.6732C13.9368 35.6704 13.3398 35.0735 13.3398 34.3371V22.3371C13.3398 21.6007 13.9368 21.0037 14.6732 21.0037H18.6732ZM20.0079 25.0037L20.0065 31.6997L20.067 31.7431C22.4587 33.4236 25.5773 34.3371 29.3399 34.3371C33.3452 34.3371 37.0713 32.7963 39.7867 30.1645L39.9639 29.9864L39.8049 29.8525C39.1863 29.3685 38.4273 29.0683 37.6132 29.0129L37.3399 29.0037H34.5245C34.6219 29.4325 34.6732 29.8788 34.6732 30.3371V31.6704H22.6732V29.0037L31.7265 29.0024L31.6807 28.8977C31.1733 27.8396 30.124 27.0908 28.8924 27.0108L28.6732 27.0037L24.7673 27.0036C23.5576 25.7697 21.8722 25.0041 20.0079 25.0037ZM17.3398 23.6704H16.0065V33.0037H17.3398V23.6704ZM36.0065 15.6704C38.2156 15.6704 40.0065 17.4613 40.0065 19.6704C40.0065 21.8795 38.2156 23.6704 36.0065 23.6704C33.7973 23.6704 32.0065 21.8795 32.0065 19.6704C32.0065 17.4613 33.7973 15.6704 36.0065 15.6704ZM36.0065 18.3371C35.2701 18.3371 34.6732 18.934 34.6732 19.6704C34.6732 20.4068 35.2701 21.0037 36.0065 21.0037C36.7429 21.0037 37.3399 20.4068 37.3399 19.6704C37.3399 18.934 36.7429 18.3371 36.0065 18.3371ZM26.6732 11.6704C28.8823 11.6704 30.6732 13.4613 30.6732 15.6704C30.6732 17.8795 28.8823 19.6704 26.6732 19.6704C24.464 19.6704 22.6732 17.8795 22.6732 15.6704C22.6732 13.4613 24.464 11.6704 26.6732 11.6704ZM26.6732 14.3371C25.9368 14.3371 25.3399 14.934 25.3399 15.6704C25.3399 16.4068 25.9368 17.0037 26.6732 17.0037C27.4096 17.0037 28.0065 16.4068 28.0065 15.6704C28.0065 14.934 27.4096 14.3371 26.6732 14.3371Z" fill="#076476"/>
</svg>
