<svg width="36" height="36" viewBox="0 0 36 36" fill="none" xmlns="http://www.w3.org/2000/svg">
<circle cx="18" cy="18" r="18" fill="#E6F0F1"/>
<path d="M20.1665 14.6671H25.5C26.4205 14.6671 27.1667 15.4133 27.1667 16.3337V18.0874C27.1667 18.3051 27.124 18.5207 27.0412 18.722L24.4625 24.9844C24.334 25.2967 24.0296 25.5004 23.692 25.5004H9.66671C9.20647 25.5004 8.83337 25.1273 8.83337 24.6671V16.3337C8.83337 15.8735 9.20647 15.5004 9.66671 15.5004H12.5682C12.839 15.5004 13.0929 15.3689 13.249 15.1477L17.7935 8.70963C17.9123 8.5414 18.1361 8.48514 18.3203 8.57723L19.832 9.33309C20.7084 9.77128 21.161 10.7609 20.9193 11.7105L20.1665 14.6671ZM13.8334 16.8233V23.8337H23.1339L25.5 18.0874V16.3337H20.1665C19.0793 16.3337 18.2832 15.3096 18.5514 14.2559L19.3041 11.2993C19.3525 11.1094 19.262 10.9114 19.0866 10.8238L18.5357 10.5483L14.6107 16.1088C14.4024 16.4038 14.1362 16.6457 13.8334 16.8233ZM12.1667 17.1671H10.5V23.8337H12.1667V17.1671Z" fill="#076476"/>
</svg>
