<svg width="44" height="41" viewBox="0 0 44 41" fill="none" xmlns="http://www.w3.org/2000/svg">
<circle cx="18" cy="18" r="18" fill="#E6F0F1"/>
<path d="M28 10.3333L38.9559 12.7679C39.566 12.9035 40 13.4445 40 14.0695V27.3851C40 30.0599 38.6632 32.5578 36.4376 34.0415L28 39.6666L19.5624 34.0415C17.3368 32.5578 16 30.0599 16 27.3851V14.0695C16 13.4445 16.434 12.9035 17.0441 12.7679L28 10.3333ZM28 13.065L18.6667 15.139V27.3851C18.6667 29.1683 19.5579 30.8335 21.0416 31.8227L28 36.4617L34.9584 31.8227C36.4421 30.8335 37.3333 29.1683 37.3333 27.3851V15.139L28 13.065ZM33.9365 19.9624L35.8221 21.848L27.3368 30.3333L21.68 24.6765L23.5656 22.7907L27.3359 26.5611L33.9365 19.9624Z" fill="#076476"/>
</svg>
