<svg width="450" height="450" viewBox="0 0 450 450" fill="none" xmlns="http://www.w3.org/2000/svg">
<path d="M225 433.707C333.568 433.707 421.58 382.893 421.58 320.211C421.58 257.529 333.568 206.716 225 206.716C116.432 206.716 28.4202 257.529 28.4202 320.211C28.4202 382.893 116.432 433.707 225 433.707Z" fill="url(#paint0_radial_343_1164)"/>
<path d="M98.901 348.078L51.0057 320.426L98.901 292.773L146.796 320.426L98.901 348.078Z" fill="#E0E0E0"/>
<path d="M140.801 354.838L105.232 334.301L140.801 313.766L176.369 334.302L140.801 354.838Z" fill="#E0E0E0"/>
<path d="M220.105 409.082C248.953 409.082 272.339 395.581 272.339 378.925C272.339 362.27 248.953 348.768 220.105 348.768C191.257 348.768 167.871 362.27 167.871 378.925C167.871 395.581 191.257 409.082 220.105 409.082Z" fill="#E0E0E0"/>
<path d="M365.936 361.09L163.01 244.282L190.251 228.554L393.178 345.362L365.936 361.09Z" fill="#E0E0E0"/>
<path d="M364.62 328.998L376.821 336.085C376.821 336.085 370.664 316.432 374.081 296.662C375.371 289.199 378.085 285.493 379.044 283.501C380.002 281.509 387.358 269.177 380.883 263.493C374.406 257.809 359.212 269.116 359.893 299.566C360.242 315.193 364.62 328.998 364.62 328.998Z" fill="#076476"/>
<path opacity="0.3" d="M364.62 328.998L376.821 336.085C376.821 336.085 370.664 316.432 374.081 296.662C375.371 289.199 378.085 285.493 379.044 283.501C380.002 281.509 387.358 269.177 380.883 263.493C374.406 257.809 359.212 269.116 359.893 299.566C360.242 315.193 364.62 328.998 364.62 328.998Z" fill="black"/>
<path d="M370.291 332.734C370.111 332.734 369.942 332.624 369.877 332.444C369.83 332.318 365.223 319.525 365.466 298.998C365.709 278.372 376.54 267.381 376.649 267.272C376.822 267.1 377.103 267.101 377.274 267.275C377.446 267.446 377.445 267.727 377.272 267.899C377.165 268.005 366.588 278.762 366.349 299.008C366.109 319.359 370.66 332.014 370.705 332.139C370.79 332.369 370.672 332.622 370.443 332.706C370.393 332.725 370.342 332.734 370.291 332.734Z" fill="white"/>
<path d="M368.054 330.834L388.21 342.688C388.21 342.688 397.44 341.328 396.742 332.641C396.043 323.953 392.294 321.906 396.963 318.089C401.632 314.272 402.837 314.019 402.614 310.277C402.391 306.535 399.874 304.903 398.689 303.42C397.505 301.937 394.204 298.828 396.526 294.315C398.85 289.803 401.997 285.444 397.323 283.375C394.533 282.14 389.841 283.687 386.732 286.988C383.621 290.29 381.056 292.663 378.11 293.43C375.163 294.196 369.02 294.257 369.227 299.334C369.434 304.41 370.752 306.164 369.52 308.417C367.2 312.663 357.292 314.95 368.054 330.834Z" fill="#076476"/>
<path d="M376.262 336.103C376.034 336.103 375.841 335.928 375.822 335.697C375.798 335.396 373.608 305.394 394.452 285.693C394.628 285.527 394.908 285.533 395.077 285.712C395.244 285.888 395.237 286.169 395.059 286.337C374.529 305.74 376.679 335.329 376.703 335.625C376.723 335.869 376.541 336.082 376.298 336.101C376.286 336.102 376.274 336.103 376.262 336.103Z" fill="white"/>
<path d="M379.876 310.347C379.646 310.347 379.453 310.171 379.436 309.937C378.847 301.997 373.319 297.915 373.263 297.875C373.065 297.732 373.02 297.455 373.163 297.257C373.306 297.059 373.583 297.014 373.78 297.157C374.022 297.33 379.697 301.505 380.318 309.873C380.336 310.117 380.153 310.328 379.909 310.346C379.898 310.347 379.887 310.347 379.876 310.347Z" fill="white"/>
<path d="M378.389 315.475C378.283 315.475 378.177 315.438 378.093 315.362C377.912 315.198 377.896 314.92 378.059 314.739C378.276 314.498 383.501 308.858 395.589 310.52C395.83 310.553 396 310.775 395.967 311.017C395.933 311.259 395.717 311.424 395.468 311.395C383.874 309.801 378.766 315.276 378.716 315.331C378.629 315.427 378.509 315.475 378.389 315.475Z" fill="white"/>
<path d="M370.84 176.636L274.953 20.8853C272.41 16.7552 267.073 15.3467 262.823 17.6849L177.167 64.8179L370.84 176.636Z" fill="#076476"/>
<path d="M370.84 176.636L177.167 64.8188V233.395C177.167 239.166 180.246 244.499 185.243 247.385L357.255 346.695C363.293 350.181 370.84 345.824 370.84 338.852V176.636H370.84Z" fill="#076476"/>
<g opacity="0.3">
<path d="M370.84 176.636L274.953 20.8853C272.41 16.7552 267.073 15.3467 262.823 17.6849L177.167 64.8179L370.84 176.636Z" fill="white"/>
<path d="M370.84 176.636L177.167 64.8188V233.395C177.167 239.166 180.246 244.499 185.243 247.385L357.255 346.695C363.293 350.181 370.84 345.824 370.84 338.852V176.636H370.84Z" fill="white"/>
</g>
<path d="M366.286 178.448L270.399 22.6978C267.855 18.5677 262.519 17.1592 258.269 19.4974L172.613 66.6304L366.286 178.448Z" fill="#076476"/>
<path opacity="0.5" d="M366.286 178.448L270.399 22.6978C267.855 18.5677 262.519 17.1592 258.269 19.4974L172.613 66.6304L366.286 178.448Z" fill="white"/>
<path d="M366.286 178.448L172.613 66.6313V235.207C172.613 240.978 175.692 246.311 180.689 249.196L352.701 348.507C358.739 351.993 366.286 347.636 366.286 340.663V178.448Z" fill="#076476"/>
<path opacity="0.5" d="M366.286 178.448L172.613 66.6313V235.207C172.613 240.978 175.692 246.311 180.689 249.196L352.701 348.507C358.739 351.993 366.286 347.636 366.286 340.663V178.448Z" fill="white"/>
<path d="M180.69 249.196L352.701 348.507C355.611 350.186 358.863 350.032 361.461 348.655L258.798 194.079L172.614 235.207C172.613 240.979 175.692 246.311 180.69 249.196Z" fill="#076476"/>
<path opacity="0.7" d="M180.69 249.196L352.701 348.507C355.611 350.186 358.863 350.032 361.461 348.655L258.798 194.079L172.614 235.207C172.613 240.979 175.692 246.311 180.69 249.196Z" fill="white"/>
<path d="M172.613 66.6313L256.472 209.58L366.286 178.448L172.613 66.6313Z" fill="#076476"/>
<path opacity="0.3" d="M172.613 66.6313L256.472 209.58L366.286 178.448L172.613 66.6313Z" fill="white"/>
<path d="M345.038 116.801V184.477L256.477 209.577L194.36 103.7V29.7998L345.038 116.801Z" fill="#F0F0F0"/>
<path d="M98.901 342.997L61.1973 321.228V269.541L98.901 291.309V342.997Z" fill="#076476"/>
<path d="M98.901 342.997V291.309L136.605 269.542V321.229L98.901 342.997Z" fill="#076476"/>
<path opacity="0.5" d="M98.901 342.997L61.1973 321.228V269.541L98.901 291.309V342.997Z" fill="black"/>
<path opacity="0.7" d="M98.901 342.997V291.309L136.605 269.542V321.229L98.901 342.997Z" fill="black"/>
<path d="M98.901 289.202L58.2714 265.745L98.901 242.287L139.53 265.745L98.901 289.202Z" fill="#076476"/>
<path opacity="0.1" d="M98.901 289.202L58.2714 265.745L98.901 242.287L139.53 265.745L98.901 289.202Z" fill="black"/>
<path d="M75.9402 255.544L116.569 279.001L121.862 275.945L81.2323 252.489L75.9402 255.544Z" fill="#076476"/>
<path opacity="0.3" d="M75.9402 255.544L116.569 279.001L121.862 275.945L81.2323 252.489L75.9402 255.544Z" fill="white"/>
<path d="M98.901 297.316L58.2714 273.858V265.745L98.901 289.202V297.316Z" fill="#076476"/>
<path d="M98.901 297.316V289.202L139.53 265.745V273.858L98.901 297.316Z" fill="#076476"/>
<path opacity="0.3" d="M98.901 297.316L58.2714 273.858V265.745L98.901 289.202V297.316Z" fill="black"/>
<path opacity="0.5" d="M98.901 297.316V289.202L139.53 265.745V273.858L98.901 297.316Z" fill="black"/>
<path d="M81.2323 332.826L75.9402 329.794V275.945L81.2323 279.001V332.826Z" fill="#076476"/>
<path d="M116.569 332.826L121.862 329.794V275.945L116.569 279.001V332.826Z" fill="#076476"/>
<path opacity="0.2" d="M81.2323 332.826L75.9402 329.794V275.945L81.2323 279.001V332.826Z" fill="black"/>
<path opacity="0.4" d="M116.569 332.826L121.862 329.794V275.945L116.569 279.001V332.826Z" fill="black"/>
<path d="M121.862 255.544L81.2323 279.001L75.9402 275.945L116.569 252.489L121.862 255.544Z" fill="#076476"/>
<path opacity="0.3" d="M121.862 255.544L81.2323 279.001L75.9402 275.945L116.569 252.489L121.862 255.544Z" fill="white"/>
<path d="M140.801 350.63L113.255 334.726V296.964L140.801 312.868V350.63Z" fill="#076476"/>
<path d="M140.801 350.63V312.868L168.348 296.964V334.726L140.801 350.63Z" fill="#076476"/>
<path opacity="0.5" d="M140.801 350.63L113.255 334.726V296.964L140.801 312.868V350.63Z" fill="black"/>
<path opacity="0.7" d="M140.801 350.63V312.868L168.348 296.964V334.726L140.801 350.63Z" fill="black"/>
<path d="M140.801 311.328L111.118 294.19L140.801 277.052L170.484 294.19L140.801 311.328Z" fill="#076476"/>
<path opacity="0.1" d="M140.801 311.328L111.118 294.19L140.801 277.052L170.484 294.19L140.801 311.328Z" fill="black"/>
<path d="M124.026 286.737L153.709 303.875L157.577 301.643L127.893 284.505L124.026 286.737Z" fill="#076476"/>
<path opacity="0.3" d="M124.026 286.737L153.709 303.875L157.577 301.643L127.893 284.505L124.026 286.737Z" fill="white"/>
<path d="M140.801 317.255L111.118 300.117V294.19L140.801 311.328V317.255Z" fill="#076476"/>
<path d="M140.801 317.255V311.328L170.484 294.19V300.117L140.801 317.255Z" fill="#076476"/>
<path opacity="0.3" d="M140.801 317.255L111.118 300.117V294.19L140.801 311.328V317.255Z" fill="black"/>
<path opacity="0.5" d="M140.801 317.255V311.328L170.484 294.19V300.117L140.801 317.255Z" fill="black"/>
<path d="M127.893 343.2L124.026 340.985V301.643L127.893 303.875V343.2Z" fill="#076476"/>
<path d="M153.709 343.2L157.577 340.985V301.643L153.709 303.875V343.2Z" fill="#076476"/>
<path d="M157.577 286.737L127.893 303.875L124.026 301.643L153.709 284.505L157.577 286.737Z" fill="#076476"/>
<path opacity="0.3" d="M157.577 286.737L127.893 303.875L124.026 301.643L153.709 284.505L157.577 286.737Z" fill="white"/>
<path d="M171.292 160.942L187.513 188.378L205.928 178.521C209.536 176.59 213.49 175.388 217.562 174.982L206.195 197.719L188.048 206.57C184.516 208.293 180.216 207.446 177.723 204.409C175.674 201.912 173.407 197.844 171.292 191.233C165.268 172.402 162.463 162.574 162.463 162.574L165.883 157.295L171.292 160.942Z" fill="#FFA8A7"/>
<path d="M212.807 344.754C212.856 344.317 212.905 343.89 212.954 343.484C213.841 336.097 219.1 312.02 218.363 301.205L234.354 240.374L208.046 235.949C208.046 235.949 197.24 274.961 195.915 296.288C195.186 308.021 196.116 328.63 197.102 344.8C200.487 346.039 206.183 347.194 212.807 344.754Z" fill="#455A64"/>
<path d="M203.81 374.517L211.052 363.928C211.052 363.928 211.959 352.27 212.807 344.753C206.184 347.193 200.487 346.039 197.101 344.799C197.906 358.022 198.748 368.278 198.748 368.278L203.81 374.517Z" fill="#FFA8A7"/>
<path d="M216.733 237.41L212.375 237.919C208.733 254.079 220.057 261.651 220.057 261.651C220.057 261.651 212.275 286.588 208.79 304.929C207.096 313.844 211.231 319.007 216.545 321.872C217.752 314.123 218.705 306.231 218.362 301.205L234.354 240.374L216.733 237.41Z" fill="#37474F"/>
<path d="M211.254 365.683C211.254 365.683 208.342 367.265 206.932 371.086C206.31 372.77 204.662 374.162 203.81 374.517C203.81 374.517 204.538 371.351 203.262 370.366C201.986 369.383 197.484 365.905 197.008 370.848C196.858 372.405 196.709 373.962 196.709 373.962C196.709 373.962 190.739 380.434 187.832 381.848C184.926 383.261 176.661 383.082 178.69 390.627C180.719 398.171 194.934 394.502 199.602 390.42C204.271 386.339 215.747 387.233 215.583 381.779C215.42 376.324 211.616 370.051 211.254 365.683Z" fill="#263238"/>
<path d="M211.052 363.929C211.052 363.929 208.12 365.522 206.7 369.369C206.075 371.065 204.415 372.466 203.557 372.823C203.557 372.823 204.29 369.636 203.005 368.645C201.721 367.654 197.187 364.153 196.708 369.129C196.556 370.697 196.405 372.265 196.405 372.265C196.405 372.265 190.394 378.781 187.468 380.204C184.542 381.628 176.221 381.448 178.264 389.043C180.307 396.639 194.619 392.945 199.319 388.834C204.02 384.724 215.575 385.626 215.41 380.134C215.245 374.643 211.415 368.326 211.052 363.929Z" fill="#37474F"/>
<path d="M201.091 377.97C200.906 377.97 200.736 377.851 200.678 377.665C199.459 373.719 196.406 372.717 196.277 372.676C196.051 372.605 195.924 372.363 195.995 372.136C196.066 371.909 196.305 371.782 196.533 371.852C196.68 371.898 200.144 373.013 201.503 377.411C201.573 377.638 201.446 377.881 201.218 377.951C201.175 377.963 201.133 377.97 201.091 377.97Z" fill="#F0F0F0"/>
<path d="M198.483 380.42C198.299 380.42 198.129 380.302 198.071 380.116C196.852 376.17 193.8 375.168 193.67 375.127C193.443 375.055 193.316 374.813 193.387 374.587C193.459 374.36 193.698 374.233 193.926 374.303C194.072 374.349 197.536 375.464 198.895 379.861C198.965 380.089 198.838 380.33 198.61 380.401C198.568 380.414 198.525 380.42 198.483 380.42Z" fill="#F0F0F0"/>
<path d="M195.914 383.012C195.729 383.012 195.559 382.894 195.502 382.708C194.282 378.762 191.229 377.76 191.101 377.719C190.874 377.648 190.747 377.405 190.818 377.179C190.889 376.952 191.128 376.824 191.356 376.895C191.503 376.941 194.967 378.056 196.326 382.454C196.396 382.681 196.268 382.922 196.042 382.994C195.998 383.007 195.956 383.012 195.914 383.012Z" fill="#F0F0F0"/>
<path d="M187.468 380.204C184.542 381.627 176.221 381.447 178.264 389.043C179.581 393.942 185.999 394.141 191.653 392.566C191.893 391.041 192.077 388.508 191.359 385.839C190.21 381.567 187.468 380.204 187.468 380.204Z" fill="#FAFAFA"/>
<path d="M268.466 310.843C268.466 310.843 269.239 314.066 272.561 316.42C274.027 317.458 274.942 319.411 275.063 320.326C275.063 320.326 272.195 318.801 270.913 319.777C269.632 320.754 265.105 324.198 269.754 325.942C271.219 326.491 272.684 327.04 272.684 327.04C272.684 327.04 277.384 334.486 277.994 337.66C278.604 340.834 276.285 348.768 284.098 348.768C291.91 348.768 292.058 334.088 289.329 328.519C286.6 322.95 290.445 312.1 285.135 310.842C279.824 309.584 272.777 311.628 268.466 310.843Z" fill="#263238"/>
<path d="M256.381 308.393C254.83 307.982 253.215 307.515 251.598 306.98C243.784 304.399 235.937 303.171 235.937 303.171C235.937 303.171 248.227 273.059 250.931 257.082C253.634 241.104 247.243 230.289 247.243 230.289L211.74 236.556C209.053 252.903 222.785 261.26 222.785 261.26C222.249 261.124 214.929 285.198 212.092 303.662C209.257 322.116 225.468 322.712 233.231 322.589C236.942 322.53 246.451 322.528 255.372 322.541C258.251 316.05 257.333 311.037 256.381 308.393Z" fill="#455A64"/>
<path d="M267.277 310.667C267.277 310.667 262.326 309.968 256.381 308.393C257.333 311.036 258.251 316.049 255.374 322.541C265.119 322.555 274.16 322.589 274.16 322.589C274.161 313.372 267.277 310.667 267.277 310.667Z" fill="#FFA8A7"/>
<path d="M266.719 310.583C266.719 310.583 267.495 313.828 270.842 316.199C272.318 317.244 273.239 319.21 273.361 320.132C273.361 320.132 270.473 318.596 269.183 319.579C267.892 320.562 263.334 324.031 268.016 325.786C269.491 326.338 270.966 326.892 270.966 326.892C270.966 326.892 275.698 334.389 276.312 337.585C276.926 340.781 274.591 348.769 282.457 348.769C290.323 348.769 290.472 333.988 287.725 328.381C284.977 322.774 288.848 311.85 283.502 310.583C278.155 309.316 271.06 311.374 266.719 310.583Z" fill="#37474F"/>
<path d="M270.965 327.322C270.886 327.322 270.806 327.3 270.734 327.255C270.534 327.128 270.473 326.863 270.6 326.661C270.682 326.533 272.659 323.476 277.258 323.306C277.47 323.263 277.695 323.482 277.705 323.721C277.714 323.96 277.528 324.159 277.289 324.168C273.163 324.321 271.402 327.008 271.329 327.122C271.246 327.251 271.107 327.322 270.965 327.322Z" fill="#F0F0F0"/>
<path d="M272.653 330.478C272.575 330.478 272.495 330.456 272.424 330.411C272.222 330.284 272.162 330.019 272.289 329.816C272.371 329.686 274.347 326.631 278.947 326.461C278.952 326.46 278.958 326.46 278.963 326.46C279.193 326.46 279.385 326.643 279.393 326.876C279.402 327.114 279.216 327.313 278.978 327.322C274.829 327.476 273.036 330.248 273.018 330.276C272.937 330.406 272.796 330.478 272.653 330.478Z" fill="#F0F0F0"/>
<path d="M274.49 333.631C274.411 333.631 274.332 333.61 274.26 333.565C274.059 333.437 273.999 333.171 274.126 332.971C274.208 332.841 276.185 329.786 280.784 329.615C280.999 329.574 281.221 329.791 281.231 330.03C281.24 330.269 281.054 330.468 280.816 330.477C276.69 330.63 274.928 333.317 274.855 333.431C274.772 333.561 274.632 333.631 274.49 333.631Z" fill="#F0F0F0"/>
<path d="M276.311 337.584C276.925 340.78 274.59 348.768 282.456 348.768C287.528 348.768 289.389 342.622 289.336 336.753C287.924 336.126 285.527 335.29 282.763 335.29C278.339 335.29 276.311 337.584 276.311 337.584Z" fill="#FAFAFA"/>
<path d="M249.333 136.349C249.333 136.349 249.497 128.155 251.791 127.992C254.085 127.828 252.425 133.645 252.425 133.645C252.425 133.645 254.821 132.048 255.724 133.481C256.628 134.914 251.3 137.25 251.3 137.25L249.333 136.349Z" fill="#263238"/>
<path d="M201.262 152.42C201.262 152.42 202.888 165.993 223.493 156.825C223.493 156.825 203.937 192.885 239.009 192.885C254.414 192.885 264.82 185.359 262.73 172.653C262.73 172.653 271.347 172.468 271.696 165.552C271.696 165.552 261.131 170.177 256.543 159.737C251.955 149.296 258.252 138.974 250.433 134.794C250.433 134.794 246.069 120.927 219.508 128.32C219.508 128.32 216.21 125.699 211.524 127.501C206.839 129.304 205.64 137.571 206.839 143.844C208.038 150.114 206.776 155.053 201.262 152.42Z" fill="#263238"/>
<path d="M244.1 177.744L248.269 178.874V206.405L244.1 219.679C244.1 219.679 246.957 226.971 248.76 235.411C248.76 235.411 239.819 241.556 227.457 241.556C215.095 241.556 208.046 235.95 208.046 235.95L206.482 217.631C206.482 217.631 197.303 211.772 201.811 200.075C206.318 188.379 217.562 174.982 217.562 174.982H221.62C221.62 174.982 231 180.628 244.1 177.744Z" fill="#076476"/>
<path opacity="0.6" d="M244.1 177.744L248.269 178.874V206.405L244.1 219.679C244.1 219.679 246.957 226.971 248.76 235.411C248.76 235.411 239.819 241.556 227.457 241.556C215.095 241.556 208.046 235.95 208.046 235.95L206.482 217.631C206.482 217.631 197.303 211.772 201.811 200.075C206.318 188.379 217.562 174.982 217.562 174.982H221.62C221.62 174.982 231 180.628 244.1 177.744Z" fill="black"/>
<path d="M237.917 176.149L244.1 177.743C244.1 177.743 237.684 181.672 235.277 194.396C234.957 196.09 233.254 197.149 231.599 196.662L214.982 191.771C213.19 191.244 212.35 189.193 213.264 187.564C215.316 183.909 218.803 178.032 221.618 174.981H227.148L237.917 176.149Z" fill="#FFA8A7"/>
<path d="M237.917 176.149L223.494 175.066V156.825H237.917V176.149Z" fill="#FFA8A7"/>
<path d="M223.494 174.279C228.592 172.311 233.918 168.362 236.744 161.678V156.825H223.494V174.279Z" fill="#F28F8F"/>
<path d="M220.134 133.182C220.134 133.182 206.943 133.955 208.573 156.506C209.327 166.936 211.77 172.335 219.8 171.94C228.9 171.492 241.815 165.238 240.967 147.396C240.12 129.553 220.134 133.182 220.134 133.182Z" fill="#FFA8A7"/>
<path d="M237.917 156.825C237.917 156.825 234.302 157.778 234.302 152.599C234.302 152.599 218.232 151.511 214.684 135.565C214.684 135.565 216.268 130.792 226.301 130.792C236.333 130.792 244.765 139.662 242.146 151.856L237.917 156.825Z" fill="#263238"/>
<path d="M218.243 151.982V159.736L213.702 158.342L218.243 151.982Z" fill="#F28F8F"/>
<path d="M225.074 152.807C225.074 153.679 224.366 154.386 223.494 154.386C222.622 154.386 221.915 153.679 221.915 152.807C221.915 151.934 222.622 151.227 223.494 151.227C224.366 151.227 225.074 151.934 225.074 152.807Z" fill="#263238"/>
<path d="M214.684 151.705C214.684 152.577 213.977 153.284 213.105 153.284C212.233 153.284 211.525 152.577 211.525 151.705C211.525 150.833 212.233 150.125 213.105 150.125C213.977 150.125 214.684 150.833 214.684 151.705Z" fill="#263238"/>
<path d="M211.18 148.416L214.268 146.581C214.268 146.581 213.082 145.349 211.902 146.09C210.723 146.83 211.18 148.416 211.18 148.416Z" fill="#263238"/>
<path d="M218.634 162.304C218.634 162.304 221.632 162.577 223.719 160.942C223.719 160.942 224.067 163.619 221.823 164.132C219.58 164.644 218.634 162.304 218.634 162.304Z" fill="#F28F8F"/>
<path d="M236.638 157.412C236.602 156.101 236.813 154.783 237.349 153.586C237.951 152.244 239.014 150.889 240.859 150.839C244.91 150.728 245.456 154.628 245.402 156.016C245.258 159.662 242.307 163.602 236.813 163.752L236.638 157.412Z" fill="#FFA8A7"/>
<path d="M246.888 178.5C246.888 178.5 239.194 185.368 242.758 195.2C246.322 205.033 253.573 217.261 255.602 221.625C255.602 221.625 238.334 223.592 234.032 224.022L236.49 235.33C236.49 235.33 261.071 235.826 266.356 233.888C271.641 231.949 274.099 227.279 271.334 220.028C269.257 214.585 260.257 195.048 255.897 185.644C254.384 182.381 251.551 179.918 248.109 178.873L246.888 178.5Z" fill="#FFA8A7"/>
<path d="M115.929 137.648V220.613C115.929 223.882 117.674 226.901 120.506 228.533L223.331 287.79C226.076 289.372 229.505 287.39 229.505 284.222V201.362C229.505 197.249 227.309 193.448 223.745 191.395L123.19 133.451C119.961 131.591 115.929 133.921 115.929 137.648Z" fill="#076476"/>
<path opacity="0.3" d="M115.929 137.648V220.613C115.929 223.882 117.674 226.901 120.506 228.533L223.331 287.79C226.076 289.372 229.505 287.39 229.505 284.222V201.362C229.505 197.249 227.309 193.448 223.745 191.395L123.19 133.451C119.961 131.591 115.929 133.921 115.929 137.648Z" fill="black"/>
<path d="M113.688 138.479V221.444C113.688 224.712 115.433 227.732 118.264 229.364L221.09 288.621C223.835 290.203 227.263 288.221 227.263 285.053V202.193C227.263 198.08 225.067 194.279 221.503 192.226L120.948 134.282C117.72 132.422 113.688 134.753 113.688 138.479Z" fill="#076476"/>
<path d="M153.245 152.893L155.192 151.892L159.148 154.172L157.401 155.288L153.245 152.893Z" fill="#076476"/>
<path d="M153.245 249.522L157.401 251.917V155.288L153.245 152.893V249.522Z" fill="#076476"/>
<path opacity="0.4" d="M153.245 249.522L157.401 251.917V155.288L153.245 152.893V249.522Z" fill="white"/>
<path d="M173.042 162.17L168.89 159.78C168.89 159.78 168.093 160.964 167.509 166.78C167.022 171.628 149.395 161.348 156.816 152.064C161.487 146.222 175.503 157.471 173.042 162.17Z" fill="#FFA8A7"/>
<path d="M234.032 224.021C234.032 224.021 228.604 224.266 227.293 224.021C225.982 223.775 221.757 219.678 220.633 219.514C219.509 219.351 216.641 221.153 218.854 228.036C221.067 234.918 224.262 238.032 229.26 237.295C234.257 236.558 236.49 235.328 236.49 235.328L234.032 224.021Z" fill="#FFA8A7"/>
<path d="M234.032 224.021C234.032 224.021 230.653 221.399 229.505 220.907V225.904L234.032 224.021Z" fill="#FFA8A7"/>
<path d="M113.688 181.901L227.264 247.474V242.231L113.688 176.657V181.901Z" fill="#076476"/>
<path opacity="0.4" d="M113.688 181.901L227.264 247.474V242.231L113.688 176.657V181.901Z" fill="white"/>
<path d="M154.581 200.441C154.581 200.441 149.868 184.516 153.539 183.258C156.503 182.242 159.503 184.947 158.426 190.862C157.457 196.181 157.109 202.341 157.109 202.341C158.204 202.976 159.607 202.467 160.032 201.274C161.806 196.297 165.802 188.525 163.431 182.583C161.744 178.356 154.646 172.629 149.329 174.953C144.012 177.277 145.985 188.833 151.69 200.083C151.69 200.083 152.741 202.615 154.581 200.441Z" fill="#076476"/>
<path opacity="0.6" d="M154.581 200.441C154.581 200.441 149.868 184.516 153.539 183.258C156.503 182.242 159.503 184.947 158.426 190.862C157.457 196.181 157.109 202.341 157.109 202.341C158.204 202.976 159.607 202.467 160.032 201.274C161.806 196.297 165.802 188.525 163.431 182.583C161.744 178.356 154.646 172.629 149.329 174.953C144.012 177.277 145.985 188.833 151.69 200.083C151.69 200.083 152.741 202.615 154.581 200.441Z" fill="white"/>
<path d="M155.802 207.99C155.802 207.99 160.514 223.915 156.844 225.173C153.88 226.189 150.88 223.484 151.957 217.57C152.926 212.251 153.274 206.091 153.274 206.091C152.179 205.456 150.776 205.965 150.351 207.158C148.577 212.135 144.581 219.907 146.952 225.849C148.639 230.076 155.737 235.803 161.054 233.479C166.371 231.155 164.397 219.598 158.693 208.349C158.693 208.349 157.641 205.816 155.802 207.99Z" fill="#076476"/>
<path opacity="0.6" d="M155.802 207.99C155.802 207.99 160.514 223.915 156.844 225.173C153.88 226.189 150.88 223.484 151.957 217.57C152.926 212.251 153.274 206.091 153.274 206.091C152.179 205.456 150.776 205.965 150.351 207.158C148.577 212.135 144.581 219.907 146.952 225.849C148.639 230.076 155.737 235.803 161.054 233.479C166.371 231.155 164.397 219.598 158.693 208.349C158.693 208.349 157.641 205.816 155.802 207.99Z" fill="white"/>
<path d="M157.588 211.563L152.24 208.475C150.769 207.626 149.862 206.055 149.862 204.356V198.809C149.862 196.889 151.941 195.689 153.604 196.649L158.175 199.289C159.79 200.221 160.785 201.945 160.785 203.81V209.718C160.785 211.358 159.008 212.383 157.588 211.563Z" fill="#076476"/>
<path opacity="0.6" d="M157.588 211.563L152.24 208.475C150.769 207.626 149.862 206.055 149.862 204.356V198.809C149.862 196.889 151.941 195.689 153.604 196.649L158.175 199.289C159.79 200.221 160.785 201.945 160.785 203.81V209.718C160.785 211.358 159.008 212.383 157.588 211.563Z" fill="white"/>
<path d="M227.264 247.474L229.505 246.143V240.736L227.264 242.231V247.474Z" fill="#076476"/>
<defs>
<radialGradient id="paint0_radial_343_1164" cx="0" cy="0" r="1" gradientUnits="userSpaceOnUse" gradientTransform="translate(225 320.211) rotate(90) scale(113.495 196.58)">
<stop stop-color="#FFF9E8"/>
<stop offset="1" stop-color="#FFF9E8" stop-opacity="0"/>
</radialGradient>
</defs>
</svg>
