<svg width="24" height="24" viewBox="0 0 24 24" fill="none" xmlns="http://www.w3.org/2000/svg">
<mask id="mask0_1076_5182" style="mask-type:alpha" maskUnits="userSpaceOnUse" x="0" y="0" width="24" height="24">
<circle cx="12" cy="12" r="12" fill="#D9D9D9"/>
</mask>
<g mask="url(#mask0_1076_5182)">
<path d="M8.89454 0H-5.98749V7.96034H8.89454V0Z" fill="#00237C"/>
<path d="M-1.90258 0H-5.98749V2.50319L13.9415 15.6618L18.7913 13.6648L-1.90258 0Z" fill="white"/>
<path d="M-5.98755 0.209229V1.92968L14.2055 15.2627L14.9956 14.0642L-5.98755 0.209229Z" fill="#CF142B"/>
<path d="M29.8623 0H14.9791V7.96034H29.8623V0Z" fill="#00237C"/>
<path d="M25.7785 0H29.8622V2.50319L9.9337 15.6618L5.08368 13.6648L25.7785 0Z" fill="white"/>
<path d="M29.8622 0.209229V1.92968L9.67036 15.2627L8.87811 14.0642L29.8622 0.209229Z" fill="#CF142B"/>
<path d="M29.8623 16.0398H14.9791V24.0001H29.8623V16.0398Z" fill="#00237C"/>
<path d="M25.7785 23.9999H29.8622V21.4965L9.9337 8.33813L5.08368 10.3351L25.7785 23.9999Z" fill="white"/>
<path d="M29.8622 23.791V22.0706L9.67036 8.7373L8.87811 9.936L29.8622 23.791Z" fill="#CF142B"/>
<path d="M8.89448 16.0398H-5.98755V24.0001H8.89448V16.0398Z" fill="#00237C"/>
<path d="M-1.90258 23.9999H-5.98749V21.4965L13.9415 8.33813L18.7913 10.3351L-1.90258 23.9999Z" fill="white"/>
<path d="M-5.98755 23.791V22.0706L14.2055 8.7373L14.9956 9.936L-5.98755 23.791Z" fill="#CF142B"/>
<path d="M29.8622 7.96034H15.0103V0H8.80499V7.96034H-5.98749V15.8604H8.80499V24H15.0103V15.8604H29.8622V7.96034Z" fill="white"/>
<path d="M29.8622 9.57593H13.6935V0H10.1218V9.57593H-5.98749V14.2443H10.1218V24H13.6935V14.2443H29.8622V9.57593Z" fill="#CF142B"/>
</g>
</svg>
