<svg width="36" height="36" viewBox="0 0 36 36" fill="none" xmlns="http://www.w3.org/2000/svg">
<circle cx="18" cy="18" r="18" fill="#E6F0F1"/>
<path d="M18 8.8335L24.8474 10.3551C25.2287 10.4399 25.5 10.7781 25.5 11.1686V19.4909C25.5 21.1627 24.6645 22.7238 23.2735 23.6512L18 27.1668L12.7265 23.6512C11.3355 22.7238 10.5 21.1627 10.5 19.4909V11.1686C10.5 10.7781 10.7713 10.4399 11.1526 10.3551L18 8.8335ZM18 10.5408L12.1667 11.8371V19.4909C12.1667 20.6054 12.7237 21.6462 13.651 22.2644L18 25.1637L22.349 22.2644C23.2763 21.6462 23.8333 20.6054 23.8333 19.4909V11.8371L18 10.5408ZM21.7103 14.8517L22.8888 16.0302L17.5855 21.3335L14.05 17.798L15.2285 16.6194L17.5849 18.9759L21.7103 14.8517Z" fill="#076476"/>
</svg>
